<?xml version="1.0" encoding="iso-8859-1"?>
<!-- Generator: Adobe Illustrator 18.0.0, SVG Export Plug-In . SVG Version: 6.00 Build 0)  -->
<!DOCTYPE svg PUBLIC "-//W3C//DTD SVG 1.1//EN" "http://www.w3.org/Graphics/SVG/1.1/DTD/svg11.dtd">
<svg version="1.1" id="Capa_1" xmlns="http://www.w3.org/2000/svg" xmlns:xlink="http://www.w3.org/1999/xlink" x="0px" y="0px"
	 viewBox="0 0 64.918 64.918" style="enable-background:new 0 0 64.918 64.918;" xml:space="preserve">
<g>
	<path style="fill:#1D1D1B;" d="M64.295,51.414c0.101-4.784,0.131-9.574,0.076-14.359c-0.007-0.597-0.026-1.193-0.036-1.79
		c0.051-0.089,0.052-0.2-0.006-0.283c-0.059-3.456-0.156-6.912-0.315-10.366c-0.111-2.403,0.158-5.065-1.645-6.868
		c-2.956-2.956-8.935-3.298-13.851-3.373c0.555-3.456,0.775-7.706-1.333-10.71c-2.809-4.004-8.135-3.363-12.428-3.395
		c-4.379-0.032-10.765-1.216-14.57,1.649c-3.45,2.598-3.407,7.428-2.955,11.294c0.002,0.017,0.011,0.028,0.014,0.044
		c-0.909-0.031-1.818-0.071-2.728-0.1c-5.345-0.173-13.685-0.067-13.044,7.39c0.008,0.092,0.037,0.168,0.068,0.243
		c-0.595,8.467-0.591,16.96-0.671,25.444c-0.036,3.881-0.578,8.038-0.244,11.901c0.17,1.967,0.658,3.519,2.334,4.657
		c1.665,1.132,3.781,1.185,5.72,1.265c4.632,0.19,9.287,0.174,13.922,0.276c8.837,0.195,17.688,0.557,26.526,0.584
		c4.593,0.014,12.468,0.136,14.5-5.107C64.603,57.294,64.24,54.042,64.295,51.414z M62.968,41.555
		c-1.022-0.027-2.045-0.045-3.07-0.049c0.692-0.934,1.069-2.05,1.312-3.388c0.528-0.022,1.056-0.036,1.584-0.062
		C62.833,39.119,62.901,40.301,62.968,41.555z M62.251,25.173c0.039-0.005,0.079-0.008,0.118-0.014
		c0.014,0.415,0.027,0.859,0.051,1.37c0.018,0.384,0.029,0.768,0.046,1.152c-0.088,0.002-0.176,0.003-0.264,0.004
		C62.228,26.848,62.25,26.01,62.251,25.173z M62.191,28.263c0.099-0.001,0.199-0.002,0.298-0.003
		c0.028,0.658,0.049,1.316,0.073,1.974c-0.159,0.015-0.317,0.027-0.476,0.041C62.128,29.604,62.166,28.934,62.191,28.263z
		 M62.057,30.77c0.174-0.019,0.349-0.035,0.524-0.055c0.051,1.393,0.084,2.787,0.121,4.181c-0.347,0.001-0.695,0.008-1.042,0.01
		C61.823,33.533,61.963,32.155,62.057,30.77z M61.292,37.668c0.116-0.741,0.204-1.491,0.298-2.238
		c0.376-0.008,0.751-0.01,1.127-0.018c0.014,0.548,0.038,1.096,0.048,1.644c0.003,0.183,0.009,0.375,0.015,0.567
		c-0.496,0.013-0.992,0.035-1.488,0.051C61.291,37.671,61.292,37.669,61.292,37.668z M23.714,2.205
		c2.934-1.01,7.147-0.412,10.194-0.437c3.527-0.029,8.782-0.853,11.533,1.915c2.691,2.708,1.959,7.251,1.724,10.675
		c-1.094-0.011-2.114-0.019-2.997-0.055c-0.207-0.008-0.414-0.017-0.62-0.025c0.106-0.121,0.192-0.271,0.219-0.484
		c0.294-2.294,0.518-5.197-1.227-7.04c-2.052-2.166-5.583-1.523-8.233-1.58c-2.922-0.062-7.203-1.028-9.886,0.553
		c-2.838,1.672-0.827,4.716-2.115,7.107c-0.118,0.22-0.121,0.429-0.055,0.608c-1.083-0.04-2.166-0.085-3.249-0.123
		c0.003-0.038,0.019-0.067,0.018-0.109C18.927,8.929,18.628,3.955,23.714,2.205z M42.363,14.231
		c-6.236-0.253-12.472-0.502-18.709-0.735c0.536-0.907,0.55-1.593,0.74-2.6c0.007-0.531-0.014-1.062-0.062-1.591
		c0.912-0.861,1.824-1.723,2.735-2.584c0.868-0.397,2.363-0.063,3.302-0.078c2.234-0.036,4.907-0.574,7.084-0.152
		c1.357,0.263,4.098,1.206,4.802,2.531c0.51,0.959,0.102,3.593-0.037,4.563C42.181,13.856,42.246,14.071,42.363,14.231z
		 M18.472,15.405c3.953,0.129,7.906,0.26,11.859,0.387c7.26,0.233,14.63-0.006,21.863,0.724c2.517,0.254,4.01,0.402,5.52,1.268
		c-7.442-0.055-14.936,0.11-22.336,0.637c-0.185,0.013-0.189,0.291,0,0.291c7.707-0.029,15.436-0.204,23.146-0.394
		c0.473,0.35,0.963,0.776,1.504,1.312c0.367,0.364,0.655,0.688,0.912,1c-8.516,0.219-17.064,0.365-25.557,0.935
		c-0.119,0.008-0.122,0.187,0,0.188c8.611,0.067,17.254-0.304,25.866-0.592c-0.106,1.196-0.192,2.393-0.281,3.59
		c-8.759,0.74-17.293,0.748-26.077-0.136c-0.135-0.014-0.168,0.219-0.032,0.239c8.594,1.293,17.422,1.49,26.064,0.473
		c-0.059,0.794-0.119,1.589-0.18,2.383c-7.535,0.118-15.077,0.181-22.606,0.487c-0.123,0.005-0.124,0.19,0,0.192
		c7.518,0.108,15.043-0.027,22.563-0.108c-0.056,0.711-0.12,1.421-0.181,2.132c-4.959,0.445-9.918,0.828-14.883,1.22
		c-0.148,0.012-0.153,0.236,0,0.234c4.948-0.072,9.909-0.423,14.838-0.93c-0.023,0.261-0.042,0.523-0.067,0.784
		c-0.07,0.74-0.104,1.967-0.187,3.201c-3.946,0.038-7.897,0.118-11.833,0.297c-0.159,0.007-0.161,0.245,0,0.249
		c3.925,0.075,7.862,0.052,11.793-0.013c-0.068,0.841-0.168,1.638-0.319,2.268c-3.492,0.124-6.984,0.282-10.473,0.457
		c-0.192,0.01-0.194,0.305,0,0.3c3.445-0.079,6.892-0.174,10.338-0.302c-0.041,0.115-0.078,0.243-0.125,0.334
		c-0.692,1.35-1.658,2.313-2.782,3.002c-2.232,0.017-4.464,0.049-6.688,0.039c-0.173-0.001-0.171,0.259,0,0.267
		c1.88,0.094,3.781,0.174,5.684,0.224c-1.553,0.692-3.318,0.977-5.063,1.081c-6.987,0.415-14.167-0.248-21.159-0.434
		c-6.427-0.171-16.412,1.163-21.353-3.884c-4.888-4.993-3.616-14.663-4.174-21.416C6.996,13.997,14.973,15.29,18.472,15.405z
		 M33.404,48.714c-0.807,0.636-1.812-0.191-2.163-0.902c-0.522-1.055-0.342-2.343-0.231-3.475c0.988,0.026,1.976,0.053,2.964,0.08
		c-0.271,0.512-0.36,1.088-0.331,1.71C33.676,46.861,34.085,48.178,33.404,48.714z M47.387,48.85
		c5.243,0.186,10.498,0.182,15.745,0.169c-0.01,0.355-0.025,0.71-0.043,1.063c-6.896,0.26-13.806,0.554-20.694,0.98
		c-0.17,0.01-0.173,0.272,0,0.267c6.887-0.174,13.785-0.482,20.667-0.823c-0.078,1.255-0.217,2.484-0.433,3.658
		c-6.829-0.174-13.668-0.124-20.499-0.305c-0.118-0.003-0.117,0.176,0,0.183c6.778,0.396,13.642,0.703,20.437,0.469
		c-0.234,1.174-0.566,2.273-0.994,3.285c-5.066,0.058-10.12,0.067-15.185-0.106c-0.109-0.004-0.107,0.161,0,0.169
		c4.992,0.378,10.008,0.532,15.013,0.34c-0.367,0.79-0.806,1.512-1.328,2.15c0.044-0.129-0.008-0.292-0.184-0.285
		c-7.584,0.286-15.161,0.377-22.75,0.292c-0.163-0.002-0.163,0.248,0,0.253c7.582,0.232,15.17,0.189,22.75-0.11
		c0.038-0.001,0.058-0.025,0.086-0.04c-0.828,0.977-1.858,1.748-3.151,2.229c-3.601,1.341-8.563,0.644-12.343,0.564
		c-3.646-0.077-7.292-0.166-10.938-0.254c-7.622-0.183-15.252-0.283-22.872-0.555c-1.592-0.057-3.908,0.123-5.442-0.513
		c-3.502-1.452-2.949-4.23-2.948-7.136c0.001-3.805,0.213-7.616,0.363-11.417c0.175-4.454,0.341-8.911,0.42-13.368
		c0.441,3.564,1.443,6.912,3.544,9.372c5.264,6.165,15.824,4.732,22.989,4.917c0.107,0.003,0.213,0.006,0.32,0.009
		c-1.053,2.374-0.552,6.139,2.618,6.331c1.208,0.073,2.399-0.527,2.803-1.719c0.221-0.652,0.18-1.337,0.112-2.009
		c-0.061-0.602-0.294-1.434,0.181-1.914c0.163-0.165,0.223-0.348,0.233-0.528c3.248,0.089,6.495,0.176,9.743,0.243
		c3.762,0.078,8.525,0.402,12.032-1.36c0.734-0.369,1.304-0.797,1.773-1.275c1.199-0.009,2.392-0.045,3.58-0.112
		c0.053,1.012,0.102,2.069,0.134,3.145c-2.901-0.2-5.856,0.02-8.735,0.329c-0.132,0.014-0.137,0.22,0,0.211
		c2.917-0.193,5.827-0.144,8.742-0.215c0.027,1.019,0.033,2.054,0.013,3.087c-5.251-0.013-10.51-0.016-15.757,0.17
		C47.285,48.694,47.284,48.846,47.387,48.85z"/>
</g>
<g>
</g>
<g>
</g>
<g>
</g>
<g>
</g>
<g>
</g>
<g>
</g>
<g>
</g>
<g>
</g>
<g>
</g>
<g>
</g>
<g>
</g>
<g>
</g>
<g>
</g>
<g>
</g>
<g>
</g>
</svg>
