<?xml version="1.0" encoding="iso-8859-1"?>
<!-- Generator: Adobe Illustrator 18.0.0, SVG Export Plug-In . SVG Version: 6.00 Build 0)  -->
<!DOCTYPE svg PUBLIC "-//W3C//DTD SVG 1.1//EN" "http://www.w3.org/Graphics/SVG/1.1/DTD/svg11.dtd">
<svg version="1.1" id="Capa_1" xmlns="http://www.w3.org/2000/svg" xmlns:xlink="http://www.w3.org/1999/xlink" x="0px" y="0px"
	 viewBox="0 0 62.723 62.723" style="enable-background:new 0 0 62.723 62.723;" xml:space="preserve">
<g>
	<path style="fill:#1D1D1B;" d="M62.689,58.517c-0.038-0.211-0.163-0.351-0.322-0.433c0.059-0.197,0.028-0.419-0.179-0.615
		c-9.439-8.913-18.551-18.019-27.466-27.431c-0.031-0.88-0.544-1.711-1.263-2.412c1.546-0.101,2.994-0.815,3.299-2.491
		c0.267-1.463-0.683-2.771-1.936-3.42c-1.219-0.632-2.699-0.6-4.056-0.283c1-5.468-2.311-11.584-6.783-15.261
		c-2.98-2.45-6.673-5.13-10.732-4.613C8.912,2.111,4.903,5.241,2.579,8.82c-4.8,7.394-2.689,17.477,4.58,22.467
		c4.507,3.094,11.26,3.485,15.814,0.557c0.072,1.071,0.361,2.112,1.079,2.957c0.968,1.139,2.631,1.78,4.075,1.23
		c1.763-0.671,2.201-2.105,1.986-3.632c0.015,0.008,0.031,0.014,0.047,0.022c8.037,10.182,17.973,20.451,28.15,28.481
		c0.272,0.215,0.589,0.155,0.78-0.025C60.6,61.926,63.039,60.481,62.689,58.517z M31.735,26.359
		c-0.353-0.196-0.699-0.355-1.025-0.48c1.469,0.01,2.987-0.087,4.412-0.418C34.496,26.476,32.903,26.581,31.735,26.359z
		 M3.834,10.332c1.602-2.681,4.076-4.981,7.01-6.108c2.755-1.059,5.233-0.703,7.516,0.361c-2.211,0.095-4.444,0.497-6.629,0.768
		c-0.176,0.022-0.182,0.299,0,0.281c2.362-0.229,4.814-0.314,7.148-0.787c0.513,0.266,1.02,0.554,1.514,0.881
		c-4.417-0.34-9.134,0.507-13.44,1.428C6.703,7.21,6.81,7.582,7.057,7.536c4.47-0.834,8.928-0.971,13.419-1.499
		c0.096-0.011,0.145-0.083,0.146-0.154c0.822,0.559,1.617,1.191,2.394,1.851c-4.63,0.004-9.287,0.437-13.814,1.387
		c-0.094,0.02-0.075,0.183,0.023,0.17c4.77-0.612,9.495-0.992,14.294-1.115c0.453,0.407,0.879,0.843,1.291,1.292
		c-3.957,0.252-7.947,0.867-11.863,1.402c-0.127,0.017-0.098,0.236,0.031,0.226c4.042-0.327,8.179-0.589,12.194-1.228
		c0.67,0.773,1.266,1.603,1.788,2.466c-6.012,0.68-12.018,1.469-17.998,2.385c-0.121,0.019-0.094,0.229,0.029,0.217
		c6.068-0.636,12.129-1.403,18.168-2.28c0.379,0.66,0.705,1.341,0.982,2.035c-5.147,0.368-10.3,1.026-15.413,1.692
		c-0.116,0.015-0.123,0.197,0,0.188c5.185-0.392,10.408-0.802,15.564-1.499c0.23,0.624,0.411,1.258,0.548,1.897
		c-5.23,0.29-10.457,0.958-15.644,1.666c-0.155,0.021-0.12,0.292,0.037,0.276c5.229-0.528,10.475-0.902,15.7-1.455
		c0.093,0.537,0.138,1.077,0.158,1.618c-3.723,0.335-7.462,0.89-11.155,1.451c-0.135,0.021-0.104,0.251,0.032,0.239
		c3.708-0.318,7.453-0.654,11.138-1.196c-0.005,0.768-0.095,1.535-0.264,2.293c-0.035-0.017-0.061-0.044-0.111-0.043
		c-4.951,0.137-9.928,0.856-14.766,1.893c-0.164,0.035-0.092,0.275,0.069,0.249c4.891-0.793,9.759-1.25,14.693-1.625
		c-0.152,0.561-0.366,1.115-0.618,1.661c-3.903,0.276-7.829,1.134-11.663,1.881c-0.2,0.039-0.113,0.336,0.083,0.303
		c3.77-0.632,7.604-1.005,11.358-1.717c-0.324,0.621-0.712,1.23-1.184,1.82c-0.217-0.048-0.471,0.006-0.618,0.201
		c-0.106,0.14-0.219,0.259-0.327,0.393c-0.02-0.007-0.033-0.022-0.058-0.021c-2.829,0.132-5.703,0.873-8.494,1.339
		c-0.142,0.024-0.11,0.272,0.034,0.253c2.677-0.356,5.521-0.509,8.157-1.137C14.711,39.738-4.519,24.31,3.834,10.332z
		 M27.881,27.914c-0.473-0.499-1.302,0.143-0.95,0.733c0.121,0.202,0.267,0.433,0.424,0.683c-0.161,0.145-0.233,0.407-0.058,0.624
		c0.008,0.01,0.019,0.021,0.027,0.031c-0.538,0.025-1.073,0.046-1.598,0.053c-0.201,0.003-0.197,0.295,0,0.309
		c0.656,0.048,1.341,0.101,2.038,0.147c0.178,0.194,0.369,0.391,0.573,0.584c0.104,0.227,0.191,0.456,0.267,0.685
		c-0.877,0.043-1.778,0.225-2.625,0.322c-0.205,0.024-0.215,0.341,0,0.328c0.89-0.054,1.851-0.032,2.758-0.157
		c0.19,0.908,0.032,1.767-0.901,2.365c-1.188,0.761-2.7-0.175-3.302-1.238c-0.392-0.691-0.539-1.461-0.587-2.241
		c1.056-0.86,1.953-1.93,2.619-3.225c0.132,0.002,0.271-0.037,0.4-0.146c1.675-1.407,2.759-3.018,3.368-4.727
		c1.005-0.221,2.021-0.518,3.051-0.299c0.608,0.129,1.318,0.535,1.696,1.101c-1.116,0.082-2.211,0.216-3.355,0.161
		c-0.243-0.012-0.23,0.342,0,0.37c1.117,0.136,2.415,0.21,3.578,0.004c0.043,0.19,0.06,0.387,0.013,0.596
		c-1.788,0.241-3.531,0.539-5.344,0.606c-0.187,0.007-0.188,0.286,0,0.291c0.029,0.001,0.058,0,0.087,0.001
		c-0.368,0.238-0.484,0.885-0.01,1.137c0.6,0.319,1.247,0.574,1.82,0.943c0.086,0.111,0.175,0.22,0.261,0.331
		c-1.042-0.086-2.116,0-3.159,0.038c-0.178,0.006-0.178,0.27,0,0.277c1.072,0.039,2.18,0.132,3.25,0.033
		c0.06-0.006,0.1-0.034,0.128-0.07c0.3,0.38,0.6,0.759,0.899,1.139c0.021,0.076,0.027,0.153,0.039,0.229
		c-1.31-0.13-2.676-0.102-4.041-0.04C28.846,29.118,28.36,28.418,27.881,27.914z M29.783,31.075c-0.06-0.168-0.138-0.33-0.208-0.495
		c1.278,0.03,2.55-0.022,3.732-0.244c-0.027,0.322-0.146,0.632-0.424,0.894C31.931,32.127,30.787,31.764,29.783,31.075z
		 M61.253,58.711c0.098,1.005-1.192,1.65-1.985,1.041c-0.162-0.125-0.356-0.086-0.506,0.024c-4.48-4.764-9.484-9.087-14.105-13.721
		c-4.354-4.366-8.562-8.89-13.019-13.151c0.842,0.086,1.676-0.187,2.403-1.055c0.175-0.209,0.307-0.417,0.412-0.626
		c0.516,0.642,1.049,1.272,1.574,1.908c-0.865,0.054-1.751,0.251-2.593,0.42c-0.169,0.034-0.134,0.321,0.041,0.304
		c0.923-0.089,1.913-0.155,2.81-0.396c0.004-0.001,0.005-0.005,0.008-0.006c0.511,0.616,1.036,1.222,1.556,1.833
		c-0.994-0.044-1.984,0.19-2.911,0.534c-0.181,0.067-0.108,0.354,0.081,0.294c0.972-0.311,1.947-0.41,2.958-0.495
		c0.049-0.004,0.083-0.026,0.109-0.052c0.394,0.461,0.798,0.915,1.197,1.373c-0.596,0.101-1.178,0.179-1.805,0.133
		c-0.148-0.011-0.185,0.241-0.036,0.262c0.691,0.101,1.437,0.112,2.122-0.073c0.363,0.416,0.736,0.824,1.102,1.237
		c-0.529,0.236-1.091,0.335-1.69,0.292c-0.223-0.016-0.214,0.317,0,0.342c0.694,0.082,1.36-0.03,1.987-0.3
		c0.459,0.514,0.927,1.021,1.391,1.531c-0.792,0.039-1.591,0.138-2.374,0.234c-0.201,0.025-0.213,0.333,0,0.323
		c0.893-0.042,1.809-0.076,2.696-0.204c0.405,0.442,0.828,0.868,1.237,1.307c-0.547,0.153-1.091,0.273-1.687,0.287
		c-0.202,0.005-0.202,0.311,0,0.314c0.664,0.012,1.362-0.053,2-0.27c0.534,0.569,1.085,1.122,1.624,1.685
		c-0.45-0.023-0.897-0.092-1.337-0.215c-0.196-0.055-0.274,0.239-0.083,0.303c0.594,0.2,1.193,0.3,1.805,0.311
		c0.401,0.417,0.814,0.821,1.219,1.234c-0.22,0.031-0.44,0.062-0.661,0.082c-0.414,0.038-0.831,0.029-1.24,0.101
		c-0.002,0-0.004,0-0.006,0c-0.001,0-0.002,0.001-0.003,0.001c-0.009,0.002-0.018,0.001-0.027,0.003
		c0,0.002,0.001,0.004,0.001,0.007c-0.097,0.028-0.112,0.182-0.001,0.21c0.702,0.18,1.541,0.121,2.301-0.036
		c0.532,0.54,1.075,1.068,1.612,1.603c-0.641,0.143-1.306,0.197-1.952,0.037c-0.17-0.042-0.228,0.196-0.071,0.258
		c0.472,0.184,0.877,0.303,1.396,0.272c0.339-0.02,0.656-0.106,0.964-0.231c0.582,0.576,1.172,1.141,1.759,1.71
		c-0.679,0.089-1.358,0.139-2.05,0.109c-0.213-0.009-0.208,0.312,0,0.328c0.803,0.062,1.605,0.042,2.392-0.105
		c0.626,0.603,1.258,1.198,1.891,1.792c-0.678,0.003-1.357,0.032-2.033,0.053c-0.19,0.006-0.191,0.293,0,0.295
		c0.801,0.011,1.609,0.04,2.411,0.01c0.58,0.541,1.172,1.064,1.758,1.596c-0.64-0.061-1.281-0.111-1.925-0.149
		c-0.211-0.012-0.203,0.301,0,0.323c0.781,0.086,1.559,0.157,2.342,0.204c0.578,0.521,1.161,1.035,1.744,1.549
		c-0.625,0.116-1.249,0.243-1.873,0.37c-0.233,0.047-0.132,0.392,0.097,0.353c0.719-0.123,1.438-0.245,2.152-0.388
		c0.791,0.693,1.591,1.374,2.396,2.047c-0.806,0.112-1.608,0.266-2.404,0.421c-0.171,0.034-0.135,0.328,0.042,0.308
		c0.926-0.104,1.865-0.199,2.782-0.376c0.011,0.006,0.023,0.011,0.034,0.019C61.257,58.529,61.243,58.615,61.253,58.711z"/>
	<path style="fill:#1D1D1B;" d="M28.473,33.269c-0.983-0.082-2.019,0.159-2.995,0.28c-0.216,0.027-0.227,0.364,0,0.347
		c0.995-0.075,2.074-0.044,3.036-0.323C28.688,33.522,28.643,33.283,28.473,33.269z"/>
</g>
<g>
</g>
<g>
</g>
<g>
</g>
<g>
</g>
<g>
</g>
<g>
</g>
<g>
</g>
<g>
</g>
<g>
</g>
<g>
</g>
<g>
</g>
<g>
</g>
<g>
</g>
<g>
</g>
<g>
</g>
</svg>
