<?xml version="1.0" encoding="iso-8859-1"?>
<!-- Generator: Adobe Illustrator 18.0.0, SVG Export Plug-In . SVG Version: 6.00 Build 0)  -->
<!DOCTYPE svg PUBLIC "-//W3C//DTD SVG 1.1//EN" "http://www.w3.org/Graphics/SVG/1.1/DTD/svg11.dtd">
<svg version="1.1" id="Capa_1" xmlns="http://www.w3.org/2000/svg" xmlns:xlink="http://www.w3.org/1999/xlink" x="0px" y="0px"
	 viewBox="0 0 60.661 60.661" style="enable-background:new 0 0 60.661 60.661;" xml:space="preserve">
<g>
	<path style="fill:#1D1D1B;" d="M38.588,12.462c-0.008-0.149-0.06-0.264-0.126-0.365c-0.082-0.287-0.312-0.539-0.697-0.578
		c-0.251-0.025-0.513-0.051-0.77-0.077c0.179-1.035-0.039-2.151-0.089-3.193c-0.065-1.376-0.126-2.756-0.168-4.133
		c-0.009-0.308-0.288-0.485-0.546-0.477c-0.074-0.069-0.163-0.128-0.273-0.17c-3.266-1.235-6.599-2.293-9.899-3.435
		c-0.435-0.15-0.791,0.238-0.828,0.63c-0.317,3.426-0.424,7.125-0.102,10.564c-0.058,0.01-0.121,0.014-0.179,0.024
		c-0.548,0.096-1.067,0.242-1.33,0.546c-0.273-0.253-0.789-0.25-0.851,0.205c-0.815,5.941-0.756,11.999-0.843,17.987
		c-0.097,6.622-0.407,13.39,0.092,19.998c0.662,8.776,6.592,11.112,14.675,10.61c0.49-0.031,0.828-0.372,0.862-0.862
		C38.61,44.087,39.486,28.141,38.588,12.462z M26.508,1.612c2.992,1.137,5.968,2.325,8.995,3.365c0.029,0.01,0.052,0.004,0.08,0.011
		c-0.108,0.566-0.203,1.132-0.284,1.702c-1.947-0.611-4.219-0.838-6.221-0.481c-0.294,0.052-0.23,0.558,0.071,0.526
		c2.045,0.16,4.046,0.288,6.083,0.565c-0.037,0.315-0.081,0.629-0.105,0.949c-0.007,0.103-0.016,0.206-0.024,0.309
		c-1.451,0.048-2.89,0.046-4.337-0.149c-0.23-0.031-0.34,0.313-0.099,0.359c1.459,0.283,2.924,0.407,4.398,0.289
		c-0.055,0.745-0.085,1.487,0.058,2.202c-3.027-0.283-6.293-0.496-9.197-0.144C26.402,8.035,26.553,4.746,26.508,1.612z
		 M36.897,38.083c-0.05,1.532-0.125,3.064-0.189,4.596c-0.756,0.091-1.493,0.194-2.244,0.22c0.755-1.174,0.619-3.456,0.539-5.055
		c0.644,0.033,1.29,0.033,1.901-0.076C36.901,37.872,36.901,37.977,36.897,38.083z M36.917,37.164
		c-0.624-0.113-1.285-0.111-1.943-0.077c-0.002-0.103-0.008-0.219-0.007-0.308c0.008-0.967,0.246-2.703,0.13-4.19
		c0.641,0.026,1.281,0.027,1.905-0.029C36.982,34.094,36.961,35.629,36.917,37.164z M37.019,31.705
		c-0.671-0.062-1.361-0.056-2.049-0.027c-0.123-0.556-0.328-1.032-0.663-1.349c-0.381-0.361-0.947-0.511-1.591-0.537
		c0.191-0.635,0.313-1.292,0.396-1.96c1.29,0.038,2.63,0.135,3.936,0.051C37.04,29.157,37.033,30.431,37.019,31.705z M32.728,41.889
		c-0.443,0.347-2.761-0.041-4.131-0.249c0.245-3.109,0.181-6.182-0.351-9.261c0.124,0.028,0.259,0.035,0.409,0.003
		c0.886-0.188,1.784-0.423,2.683-0.544c0.301-0.043,0.602-0.085,0.903-0.128c0.556-0.208,0.868-0.172,0.955,0.09
		c-0.258,0.169-0.222,0.622,0.11,0.707c0.363,1.215-0.058,3.613-0.094,4.73C33.183,38.102,33.459,41.316,32.728,41.889z
		 M31.555,43.792c-0.433,3.358-0.916,6.732-1.223,10.105c-0.26-0.002-0.511-0.046-0.759-0.111c0.621-3.262,0.527-6.836,0.562-10.171
		C30.605,43.694,31.087,43.758,31.555,43.792z M30.694,16.096c0.49,0.177,1.043,0.32,1.563,0.31
		c-0.367,2.039-0.424,4.169-0.513,6.224c-0.103,2.357-0.396,4.883,0.164,7.19c-0.443,0.04-0.899,0.115-1.344,0.211
		C30.665,25.438,31.137,20.623,30.694,16.096z M37.148,13.756c-1.438-0.366-2.942-0.379-4.41-0.215c-0.334,0.037-0.35,0.553,0,0.534
		c1.491-0.079,2.932,0.096,4.402,0.301c-0.022,1.392-0.043,2.784-0.052,4.176c-1.093,0.21-2.16,0.24-3.257-0.096
		c-0.454-0.139-0.635,0.552-0.194,0.705c1.13,0.393,2.313,0.495,3.448,0.213c-0.007,1.268-0.014,2.537-0.018,3.805
		c-0.995-0.053-2.006,0.011-2.996,0.036c-0.321,0.008-0.322,0.491,0,0.499c0.989,0.024,2,0.089,2.994,0.036
		c-0.003,1.099-0.007,2.198-0.011,3.297c-1.282-0.083-2.596,0.008-3.864,0.047c0.12-1.488,0.072-3.013,0.092-4.465
		c0.03-2.121,0.096-4.311-0.185-6.425c0.084-0.044,0.169-0.085,0.246-0.146c0.181-0.144,0.137-0.515-0.078-0.607
		c-0.098-0.042-0.196-0.072-0.293-0.094c-0.07-0.198-0.337-0.205-0.461-0.056c-0.164-0.007-0.331-0.008-0.506-0.013
		c-0.51-0.013-0.993-0.12-1.474-0.286c-0.409-0.141-0.718,0.368-0.568,0.689c0,0.001-0.001,0.001-0.002,0.003
		c-1.142,4.533-0.719,9.843-0.163,14.518c-0.638,0.167-1.214,0.343-1.615,0.457c-0.615,0.175-0.732,0.753-0.533,1.196
		c-0.075,0.058-0.128,0.141-0.128,0.252c0.025,3.361-0.09,6.693-0.607,10.019c-0.09,0.579,0.223,0.985,0.802,1.053
		c0.287,0.034,0.651,0.101,1.042,0.175c-0.416,3.502-1.065,7.279-0.773,10.767c0.053,0.634,0.835,0.938,1.251,0.59
		c0.334,0.143,0.678,0.242,1.034,0.301c0.15,0.869,1.595,0.785,1.696-0.221c0.366-3.648,0.494-7.341,0.685-11.005
		c0.51-0.041,0.961-0.159,1.309-0.386c0.917,0.079,1.858,0.03,2.727-0.263c-0.055,1.286-0.098,2.573-0.159,3.859
		c-1.009,0.305-2.006,0.471-3.079,0.292c-0.275-0.046-0.399,0.353-0.118,0.427c1.045,0.276,2.158,0.29,3.166-0.075
		c-0.036,0.749-0.068,1.499-0.107,2.248c-0.035,0.682-0.053,1.379-0.073,2.078c-0.968,0.137-1.906,0.277-2.915,0.227
		c-0.28-0.014-0.353,0.456-0.067,0.497c0.949,0.138,1.997,0.177,2.962-0.036c-0.033,0.948-0.085,1.897-0.21,2.819
		c-0.359,0.019-0.719,0.047-1.079,0.038c-0.637-0.016-1.268-0.099-1.892-0.229c-0.348-0.073-0.494,0.435-0.148,0.536
		c0.905,0.262,2.017,0.492,3.021,0.392c-0.312,2.232-0.152,2.827-2.778,2.771c-6.255-0.135-9.14-3.606-9.545-9.721
		c-0.248-3.752-0.118-7.584-0.122-11.344c-0.01-8.323,0.632-16.75,0.229-25.063c0.008-0.015,0.018-0.029,0.018-0.048
		c0.02-1,6.448-0.049,7.007-0.015c2.111,0.127,4.238,0.254,6.355,0.248C37.152,13.283,37.152,13.52,37.148,13.756z"/>
</g>
<g>
</g>
<g>
</g>
<g>
</g>
<g>
</g>
<g>
</g>
<g>
</g>
<g>
</g>
<g>
</g>
<g>
</g>
<g>
</g>
<g>
</g>
<g>
</g>
<g>
</g>
<g>
</g>
<g>
</g>
</svg>
