<?xml version="1.0" encoding="iso-8859-1"?>
<!-- Generator: Adobe Illustrator 18.0.0, SVG Export Plug-In . SVG Version: 6.00 Build 0)  -->
<!DOCTYPE svg PUBLIC "-//W3C//DTD SVG 1.1//EN" "http://www.w3.org/Graphics/SVG/1.1/DTD/svg11.dtd">
<svg version="1.1" id="Capa_1" xmlns="http://www.w3.org/2000/svg" xmlns:xlink="http://www.w3.org/1999/xlink" x="0px" y="0px"
	 viewBox="0 0 63.345 63.345" style="enable-background:new 0 0 63.345 63.345;" xml:space="preserve">
<g>
	<path style="fill:#1D1D1B;" d="M59.288,37.446c-0.547-3.31-0.973-6.563-1.04-9.92c-0.042-2.1-0.105-3.987-0.832-5.922
		c0.34-0.509-0.008-1.441-0.756-1.465c-8.496-0.271-17.139,0.676-25.645,0.896c-8.482,0.219-17.242-0.358-25.667,0.647
		c-0.564,0.067-0.792,0.518-0.709,0.915c-0.086,0.069-0.151,0.163-0.171,0.293c-0.798,5.345-0.355,11.494,0.361,16.829
		c0.082,0.613,0.714,0.798,1.085,0.521c0.058,0.158,0.198,0.293,0.419,0.321c8.816,1.127,17.967,0.72,26.83,0.372
		c8.343-0.328,16.856-0.704,25.097-2.095c0.333-0.056,0.532-0.268,0.637-0.527C59.165,38.16,59.357,37.861,59.288,37.446z
		 M32.205,39.021c-8.615,0.435-17.273,0.072-25.873,0.607c-0.056,0.003-0.101,0.02-0.147,0.035
		c0.405-5.232,0.502-11.237-0.52-16.421c8.61,1.037,17.692,0.258,26.336-0.001c7.807-0.234,15.859-0.143,23.625-1.162
		c0.204,1.746,0.299,3.466,0.398,5.173c-4.669,0.247-9.365,0.748-14.008,1.277c-0.28,0.032-0.296,0.461,0,0.45
		c4.676-0.178,9.401-0.394,14.06-0.859c0.13,2.122,0.298,4.225,0.73,6.328c-4.139-0.088-8.323,0.316-12.46,0.437
		c-0.354,0.01-0.352,0.533,0,0.549c4.137,0.183,8.462,0.274,12.557-0.483c0.145,0.642,0.314,1.285,0.519,1.928
		C49.005,37.505,40.646,38.595,32.205,39.021z"/>
	<path style="fill:#1D1D1B;" d="M30.703,0.603c-0.039-0.127-0.114-0.244-0.251-0.287c-5.579-1.737-9.754,4.037-10.276,8.961
		c-0.554,5.236,3.282,8.773,8.375,8.782c5.208,0.009,10.087-3.551,9.809-9.089C38.142,4.651,34.729,1.376,30.703,0.603z
		 M36.013,9.345c-2.912-0.316-6.075-0.076-9,0.081c-0.371,0.02-0.371,0.557,0,0.577c2.923,0.157,6.088,0.397,8.999,0.081
		c-0.136,1-0.523,1.891-1.09,2.654c0.04-0.156-0.039-0.334-0.249-0.348c-1.149-0.078-2.338,0.185-3.487,0.267
		c-1.168,0.083-2.334,0.12-3.506,0.109c-0.365-0.003-0.358,0.539,0,0.563c2.208,0.143,4.957,0.398,7.068-0.387
		c0.018-0.007,0.023-0.023,0.039-0.032c-1.405,1.752-3.785,2.772-6.236,2.752c-4.369-0.037-6.774-3.378-5.72-7.642
		c0.732-2.961,2.529-4.962,5.021-6.095c0.129,0.106,0.285,0.191,0.49,0.216c1.169,0.137,2.313,0.436,3.355,0.896
		c-1.12,0.002-2.236,0-3.37-0.098c-0.25-0.022-0.3,0.379-0.059,0.435c1.496,0.351,3.165,0.532,4.726,0.363
		c0.901,0.593,1.669,1.345,2.209,2.291c-2.564-0.34-5.404-0.024-7.928,0.418c-0.275,0.048-0.214,0.512,0.066,0.49
		c2.682-0.211,5.33-0.073,8.003-0.184c0.072-0.003,0.126-0.043,0.178-0.082c0.209,0.489,0.371,1.015,0.462,1.592
		c0.061,0.382,0.081,0.75,0.076,1.108C36.042,9.364,36.035,9.347,36.013,9.345z"/>
	<path style="fill:#1D1D1B;" d="M30.898,44.507c-4.133-0.29-7.693,4.565-8.492,8.397c-1.067,5.117,3.182,10.125,8.303,10.425
		c5.536,0.325,10.267-4.67,10.363-10.06C41.163,48.167,36.347,42.511,30.898,44.507z M31.149,60.948
		c-1.796-0.032-3.16-0.571-4.149-1.421c0.006,0.001,0.008,0.007,0.014,0.007c2.604,0.233,5.585,0.503,8.269,0.082
		C34.079,60.466,32.653,60.975,31.149,60.948z M32.017,54.741c2.1-0.023,4.493,0.123,6.617-0.215
		c-0.158,0.788-0.444,1.554-0.837,2.268c-1.911-0.147-3.873,0.014-5.784,0.07c-0.235,0.007-0.236,0.359,0,0.366
		c1.807,0.053,3.658,0.194,5.47,0.086c-0.328,0.505-0.703,0.98-1.13,1.405c-3.083-0.073-6.236,0.476-9.339,0.463
		c-0.142-0.001-0.183,0.122-0.149,0.224c-3.813-3.513-1.547-11.923,4.095-13.268c0.016,0,0.027,0.007,0.044,0.007
		c2.081-0.058,3.937,0.477,5.316,1.534c-1.428-0.069-2.887,0.015-4.307,0.072c-0.38,0.015-0.381,0.575,0,0.591
		c1.649,0.066,3.356,0.184,5,0.035c0.022-0.002,0.029-0.019,0.049-0.023c0.526,0.559,0.956,1.212,1.248,1.97
		c-2.859-0.03-5.799,0.421-8.636,0.646c-0.396,0.031-0.406,0.644,0,0.626c2.925-0.128,5.98-0.042,8.89-0.452
		c0.181,0.742,0.255,1.558,0.198,2.451c-0.003,0.048-0.014,0.094-0.018,0.142c-2.175-0.157-4.592,0.239-6.728,0.428
		C31.653,54.197,31.64,54.745,32.017,54.741z"/>
	<path style="fill:#1D1D1B;" d="M56.095,31.749c-2.696-0.41-5.693,0.008-8.416,0.084c-0.276,0.008-0.276,0.421,0,0.429
		c2.724,0.076,5.72,0.494,8.416,0.084C56.391,32.3,56.391,31.794,56.095,31.749z"/>
	<path style="fill:#1D1D1B;" d="M55.333,23.624c-1.112-0.024-2.215,0.262-3.328,0.333c-1.117,0.071-2.229,0.058-3.347,0.019
		c-0.279-0.009-0.352,0.447-0.067,0.497c2.086,0.372,4.826,0.654,6.837-0.153C55.783,24.179,55.76,23.633,55.333,23.624z"/>
</g>
<g>
</g>
<g>
</g>
<g>
</g>
<g>
</g>
<g>
</g>
<g>
</g>
<g>
</g>
<g>
</g>
<g>
</g>
<g>
</g>
<g>
</g>
<g>
</g>
<g>
</g>
<g>
</g>
<g>
</g>
</svg>
