<?xml version="1.0" encoding="iso-8859-1"?>
<!-- Generator: Adobe Illustrator 18.0.0, SVG Export Plug-In . SVG Version: 6.00 Build 0)  -->
<!DOCTYPE svg PUBLIC "-//W3C//DTD SVG 1.1//EN" "http://www.w3.org/Graphics/SVG/1.1/DTD/svg11.dtd">
<svg version="1.1" id="Capa_1" xmlns="http://www.w3.org/2000/svg" xmlns:xlink="http://www.w3.org/1999/xlink" x="0px" y="0px"
	 viewBox="0 0 54.412 54.412" style="enable-background:new 0 0 54.412 54.412;" xml:space="preserve">
<path style="fill:#1D1D1B;" d="M53.27,20.296C51.637,5.694,39.708-1.061,25.913,0.135C13.797,1.185,0.107,9.403,1.046,23.243
	c0.899,13.236,14.897,18.989,26.479,17.234c0.642,4.539,0.403,9.306,1.622,13.684c0.091,0.329,0.592,0.341,0.678,0
	c0.894-3.559,0.751-8.162,0.004-12.417c9.459-0.845,19.011-4.387,22.341-12.426c0.065-0.075,0.1-0.165,0.105-0.263
	C53.252,26.572,53.648,23.673,53.27,20.296z M45.08,24.238c1.256,0.042,2.513,0.083,3.769,0.125c0.892,0.03,1.804,0.128,2.691,0.029
	c-0.136,1.46-0.459,2.778-0.942,3.97c-2.688-0.104-5.535,0.185-8.184,0.296c-0.533,0.022-0.51,0.754,0,0.812
	c2.352,0.269,5.039,0.488,7.521,0.276c-0.411,0.738-0.877,1.431-1.415,2.064c-2.745-0.114-5.746,0.632-8.436,0.994
	c-0.418,0.056-0.45,0.699,0,0.679c2.242-0.098,4.74,0.021,7.061-0.262c-1.088,0.967-2.331,1.799-3.69,2.515
	c-0.018-0.003-0.027-0.019-0.047-0.019c-3.681-0.009-7.32,0.246-11.008,0.088c-0.433-0.019-0.543,0.69-0.104,0.769
	c2.803,0.5,5.767,0.71,8.622,0.329c-3.534,1.415-7.56,2.282-11.464,2.955c-0.38-1.704-0.851-3.316-1.386-4.73
	c-0.118-0.312-0.263-0.611-0.395-0.915c0.042-0.04,0.081-0.087,0.111-0.15c1.18-2.517,2.771-4.6,4.885-6.402
	c0.354-0.302,0.735-0.574,1.112-0.849c0.849,0.089,1.708,0.2,2.521,0.467c0.768,0.252,1.446,0.741,2.226,0.927
	c0.909,0.217,1.351-0.949,0.616-1.462c-1.02-0.712-2.656-0.882-4.088-0.834c1.372-0.919,2.771-1.805,3.951-2.917
	c0.528-0.497-0.017-1.565-0.744-1.278c-2.545,1.004-5.093,3.068-7.066,4.955c-1.836,1.755-3.377,3.793-4.163,6.202
	c-1.952-3.731-5.009-6.813-8.89-8.549c-0.475-0.213-0.833,0.391-0.408,0.698c5.021,3.628,8.38,7.828,9.562,14.025
	c0.015,0.079,0.023,0.161,0.038,0.24C16.498,39.68,3.591,35.162,2.903,22.506C2.185,9.287,16.278,2.401,27.526,1.938
	c4.065-0.167,7.928,0.432,11.328,1.79c-2.139,0.086-4.352,0.496-6.177,0.811c-0.332,0.057-0.26,0.631,0.081,0.595
	c1.849-0.198,3.7-0.305,5.561-0.26c1.102,0.026,2.211,0.185,3.313,0.222c0.926,0.534,1.819,1.112,2.642,1.781
	c-1.186,0.028-2.386,0.137-3.526,0.195c-0.456,0.023-0.457,0.686,0,0.709c1.535,0.078,3.179,0.254,4.748,0.18
	c1.192,1.153,2.249,2.461,3.126,3.946c-4.069-0.662-8.447-0.424-12.534-0.529c-0.328-0.008-0.317,0.473,0,0.502
	c4.24,0.389,8.758,1.2,13.023,0.915c0.467,0.895,0.889,1.832,1.234,2.839c-1.061-0.245-2.209-0.167-3.291-0.186
	c-1.436-0.025-2.871-0.047-4.306-0.053c-0.473-0.002-0.456,0.681,0,0.723c1.435,0.132,2.87,0.249,4.306,0.362
	c1.196,0.094,2.427,0.318,3.606,0.074c0.194,0.665,0.364,1.35,0.503,2.061c-0.369,0.042-0.719,0.215-1.089,0.284
	c-0.117,0.022-0.238,0.019-0.358,0.03c-1.405-0.147-2.846,0.036-4.259,0.06c-1.797,0.031-3.592-0.014-5.387-0.107
	c-0.435-0.023-0.415,0.618,0,0.664c3.042,0.343,6.843,1.032,9.879,0.316c0.514,0.028,1.017-0.043,1.396-0.291
	c0.196,1.268,0.288,2.46,0.267,3.567c-0.909-0.113-1.851-0.014-2.763,0.017l-3.769,0.125C44.462,23.299,44.461,24.218,45.08,24.238z
	"/>
<g>
</g>
<g>
</g>
<g>
</g>
<g>
</g>
<g>
</g>
<g>
</g>
<g>
</g>
<g>
</g>
<g>
</g>
<g>
</g>
<g>
</g>
<g>
</g>
<g>
</g>
<g>
</g>
<g>
</g>
</svg>
