<?xml version="1.0" encoding="iso-8859-1"?>
<!-- Generator: Adobe Illustrator 18.0.0, SVG Export Plug-In . SVG Version: 6.00 Build 0)  -->
<!DOCTYPE svg PUBLIC "-//W3C//DTD SVG 1.1//EN" "http://www.w3.org/Graphics/SVG/1.1/DTD/svg11.dtd">
<svg version="1.1" id="Capa_1" xmlns="http://www.w3.org/2000/svg" xmlns:xlink="http://www.w3.org/1999/xlink" x="0px" y="0px"
	 viewBox="0 0 56.854 56.854" style="enable-background:new 0 0 56.854 56.854;" xml:space="preserve">
<g>
	<path style="fill:#1D1D1B;" d="M56.621,23.922C54.977,10.951,43.885,0.404,30.648,0.632c-0.301,0.005-0.518,0.132-0.66,0.312
		C18.629,0.241,6.87,6.015,2.207,16.729c-4.773,10.966-1.537,24.09,7.114,32.176c8.576,8.016,21.472,9.418,31.93,4.36
		C52.19,47.974,58.133,35.849,56.621,23.922z M28.387,2.756c1.033-0.116,2.07-0.216,3.105-0.304c0.897,0.054,1.777,0.155,2.64,0.301
		c-0.334,1.583-0.774,3.028-2.772,3.36C29.304,6.455,27.417,4.534,28.387,2.756z M2.115,27.104
		c0.178-7.616,3.883-14.966,10.231-19.269c4.303-2.917,9.202-4.17,14.227-4.856c-0.199,0.479-0.272,1.029-0.196,1.61
		c0.079,0.6,0.313,1.139,0.641,1.614C19.441,7.606,12.644,12.784,9.32,19.737c-2.841,5.941-4.732,14.869-3.164,21.852
		C3.496,37.334,1.993,32.325,2.115,27.104z M26.837,54.052c-7.269-0.354-13.785-3.919-18.303-9.223
		c0.033-0.108,0.048-0.224,0.014-0.35c-2.033-7.592-0.791-17.394,2.905-24.376c3.622-6.844,9.857-9.662,16.251-13.127
		c0.373,0.328,0.806,0.591,1.265,0.791c-5.362,6.836-5.845,16.066-5.811,24.476c0.032,7.83,1.291,16.212,7.062,21.758
		C29.108,54.085,27.98,54.107,26.837,54.052z M52.799,37.616c-3.268,0.113-6.722,0.614-9.849,1.186
		c-0.21,0.038-0.156,0.367,0.05,0.366c3.014-0.013,6.295-0.157,9.385-0.59c-0.363,0.797-0.751,1.579-1.184,2.331
		c-1.565,0.029-3.222,0.345-4.623,0.687c-0.266,0.065-0.218,0.523,0.066,0.49c1.321-0.153,2.699-0.208,4.055-0.321
		c-3.982,6.33-10.567,10.739-18.172,11.967c-6.578-6.145-7.591-14.517-7.418-23.217c0.159-7.953,1.018-15.604,5.436-22.35
		c0.927,0.071,1.864-0.119,2.703-0.514c-1.163,6.172,2.526,12.973,5.698,18.036c3.349,5.345,7.946,9.651,14.052,11.466
		C52.938,37.31,52.862,37.459,52.799,37.616z M53.615,35.306c-1.357-0.461-2.7-1.103-4.01-1.889c1.446-0.025,3.068,0.051,4.532-0.17
		C53.986,33.943,53.815,34.631,53.615,35.306z M54.601,30.338c-0.066,0.668-0.165,1.323-0.281,1.971
		c-1.627-0.071-3.429,0.299-5.003,0.464c-0.174,0.018-0.273,0.144-0.299,0.279c-8.382-5.359-15.199-16.702-14.684-26.081
		c0.211-0.17,0.413-0.351,0.595-0.554c0.738-0.824,1.255-2.055,1.238-3.223c2.512,0.65,4.836,1.701,6.938,3.055
		c-1.953-0.073-3.925,0.046-5.851,0.323c-0.242,0.035-0.186,0.443,0.058,0.428c2.261-0.14,4.493-0.15,6.751-0.1
		c1.136,0.811,2.206,1.708,3.186,2.695c-1.748-0.045-3.517,0.025-5.255,0.089c-0.312,0.012-0.313,0.474,0,0.485
		c1.938,0.072,3.915,0.152,5.858,0.069c0.841,0.909,1.629,1.869,2.33,2.895c-3.17,0.081-6.364,0.441-9.517,0.688
		c-0.214,0.017-0.219,0.347,0,0.338c3.272-0.136,6.602-0.155,9.867-0.485c0.618,0.956,1.181,1.951,1.67,2.988
		c-1.631,0.124-3.276,0.426-4.878,0.629c-0.332,0.042-0.348,0.565,0,0.534c1.703-0.148,3.472-0.209,5.181-0.465
		c0.568,1.301,1.043,2.65,1.394,4.047c-2.893,0.405-5.793,0.993-8.644,1.58c-0.331,0.068-0.181,0.538,0.136,0.495
		c2.883-0.394,5.814-0.798,8.676-1.378c0.334,1.501,0.552,3.041,0.615,4.615c-2.366,0.296-4.77,0.964-7.068,1.407
		c-0.305,0.059-0.171,0.507,0.127,0.461c2.261-0.352,4.691-0.533,6.97-1.031C54.719,28.478,54.693,29.404,54.601,30.338z"/>
</g>
<g>
</g>
<g>
</g>
<g>
</g>
<g>
</g>
<g>
</g>
<g>
</g>
<g>
</g>
<g>
</g>
<g>
</g>
<g>
</g>
<g>
</g>
<g>
</g>
<g>
</g>
<g>
</g>
<g>
</g>
</svg>
