<?xml version="1.0" encoding="iso-8859-1"?>
<!-- Generator: Adobe Illustrator 18.0.0, SVG Export Plug-In . SVG Version: 6.00 Build 0)  -->
<!DOCTYPE svg PUBLIC "-//W3C//DTD SVG 1.1//EN" "http://www.w3.org/Graphics/SVG/1.1/DTD/svg11.dtd">
<svg version="1.1" id="Capa_1" xmlns="http://www.w3.org/2000/svg" xmlns:xlink="http://www.w3.org/1999/xlink" x="0px" y="0px"
	 viewBox="0 0 65.049 65.049" style="enable-background:new 0 0 65.049 65.049;" xml:space="preserve">
<g>
	<path style="fill:#1D1D1B;" d="M54.647,54.888c-1.957-0.3-3.855-0.511-5.689-0.884c0.846-0.553,1.673-1.145,2.505-1.679
		c0.899-0.578,2.193-1.207,2.034-2.479c-0.134-1.072-1.179-1.514-2.137-1.641c-1.773-0.236-3.622-0.229-5.409-0.316
		c-0.463-0.022-0.745,0.384-0.792,0.792c-0.179,1.555-0.059,2.963,0.399,4.354c-1.093-0.423-2.161-0.966-3.201-1.701
		c-1.428-1.009-2.654-2.19-3.699-3.5c1.551,0.306,3.217,0.393,4.638,0.288c0.596-0.044,0.941-0.616,0.665-1.159
		c-0.615-1.21-1.358-2.335-2.255-3.356c-0.676-0.769-1.696-2.008-2.709-2.345c-0.663-0.22-1.165,0.152-1.455,0.725
		c-0.406,0.805-0.694,1.7-0.956,2.6c-0.615-1.206-1.125-2.473-1.51-3.8c0.167-0.207,0.277-0.465,0.298-0.711
		c0.866-10.286,3.096-20.24,6.595-29.944c0.006-0.017,0.006-0.036,0.01-0.053c0.337-0.167,0.676-0.328,1.009-0.508
		c0.595-0.321,1.103-0.592,1.37-1.243c0.214-0.523-0.314-0.956-0.763-1.001c-0.621-0.063-1.147,0.365-1.636,0.692
		c-0.35,0.233-0.687,0.482-1.026,0.729c-0.007,0.001-0.014-0.002-0.02-0.001c-12.252,1.346-24.079-0.88-35.413-5.575
		C5.343,3.107,5.199,3.12,5.075,3.175C4.852,2.914,4.617,2.663,4.377,2.422c-0.543-0.545-1.074-0.986-1.86-1.06
		c-0.49-0.046-0.773,0.489-0.686,0.901C1.98,2.975,2.528,3.44,3.075,3.871c0.35,0.275,0.717,0.534,1.096,0.771
		c0.169,11.041,0.825,21.222-1.922,32.112c-0.01,0.041-0.008,0.079-0.014,0.119c-0.826,0.189-1.633,0.576-2.077,1.219
		c-0.57,0.826,0.531,1.802,1.332,1.332c0.403-0.236,0.649-0.636,1.033-0.896c0.237-0.161,0.5-0.294,0.767-0.412
		c0.098,0.005,0.199-0.002,0.301-0.022c10.287-1.967,20.489-0.929,30.197,2.952c0.377,1.838,1.007,3.578,1.862,5.188
		c-1.261-0.536-2.582-1.035-3.874-1.26c-1.021-0.178-1.95,0.313-2.033,1.407c-0.093,1.224,0.976,2.345,1.698,3.213
		c1.051,1.264,2.26,2.357,3.567,3.35c0.392,0.297,0.914-0.039,1.047-0.426c0.455-1.328,1.015-2.999,0.727-4.426
		c1.378,1.996,3.143,3.735,5.265,5.122c0.735,0.48,1.544,0.865,2.399,1.189c-1.37,0.374-2.704,0.927-3.989,1.488
		c-0.606,0.265-0.613,1.16-0.203,1.574c1.023,1.031,2.124,1.975,3.306,2.82c0.928,0.663,2.223,1.749,3.438,1.207
		c1.014-0.453,1.077-1.51,0.945-2.484c-0.153-1.13-0.183-2.59-0.595-3.752c6.524,1.487,14.359,1.191,16.457,7.992
		c0.202,0.655,1.289,0.571,1.243-0.168C64.71,57.597,59.354,55.61,54.647,54.888z M27.884,28.991
		c2.221,0.126,4.478,0.357,6.711,0.334c-0.171,0.984-0.332,1.97-0.478,2.96c-2.081,0.049-4.143,0.201-6.233,0.09
		c-0.386-0.021-0.38,0.568,0,0.598c2.032,0.157,4.119,0.229,6.145-0.072c-0.13,0.912-0.254,1.826-0.363,2.743
		c-1.153-0.017-2.322,0.038-3.451,0.109c-0.371,0.023-0.371,0.553,0,0.577c1.101,0.07,2.239,0.122,3.364,0.109
		c-0.079,0.707-0.165,1.413-0.232,2.123c-9.22-3.464-18.882-4.407-28.592-2.868c2.357-9.814,3.618-20.983,0.786-30.738
		c0.075-0.048,0.139-0.107,0.19-0.177c10.451,5.223,21.996,7.095,33.604,6.279c-0.078,0.221-0.145,0.444-0.22,0.666
		c-1.828-0.223-3.73-0.044-5.567-0.006c-0.416,0.009-0.417,0.638,0,0.647c1.765,0.036,3.589,0.196,5.351,0.011
		c-0.21,0.631-0.427,1.26-0.626,1.893c-3.339-0.422-7.063-0.433-10.389-0.193c-0.234,0.017-0.327,0.404-0.06,0.442
		c3.247,0.466,6.893,0.732,10.2,0.565c-0.696,2.269-1.324,4.553-1.876,6.853c-3.383-0.298-6.882-0.217-10.265-0.21
		c-0.374,0.001-0.368,0.554,0,0.577c3.319,0.209,6.747,0.496,10.088,0.418c-0.194,0.833-0.39,1.665-0.566,2.502
		c-0.03-0.038-0.068-0.071-0.122-0.092c-0.506-0.191-1.073-0.114-1.606-0.103c-0.599,0.012-1.197,0.028-1.795,0.056
		c-0.375,0.017-0.376,0.566,0,0.583c0.598,0.028,1.196,0.044,1.795,0.056c0.535,0.011,1.097,0.088,1.606-0.104
		c0.022-0.008,0.032-0.026,0.05-0.038c-0.21,1.013-0.425,2.025-0.608,3.044c-2.263-0.243-4.573-0.229-6.839-0.315
		C27.444,28.293,27.448,28.967,27.884,28.991z M35.829,47.772c-0.439,1.038-0.582,2.195-0.847,3.314
		c-1.232-1.06-2.365-2.25-3.265-3.601c-0.104-0.143-0.198-0.292-0.282-0.447c-0.302-0.409-0.201-0.564,0.303-0.464
		c0.352-0.081,1.167,0.324,1.496,0.415c0.909,0.252,1.809,0.467,2.723,0.651C35.91,47.679,35.857,47.707,35.829,47.772z
		 M37.767,44.434c0.362-0.865,0.678-2.251,1.748-1.212c0.99,0.962,1.802,2.053,2.469,3.242c-0.709-0.062-1.417-0.13-2.122-0.254
		c-0.885-0.156-1.748-0.407-2.624-0.594C37.417,45.222,37.601,44.832,37.767,44.434z M45.895,59.531
		c-0.203-0.009-0.858-0.569-1.022-0.685c-0.378-0.268-0.747-0.55-1.105-0.843c-0.397-0.325-0.778-0.667-1.15-1.019
		c1.042-0.548,2.105-1.051,3.143-1.602c-0.028,0.606,0.075,1.226,0.151,1.828c0.066,0.528,0.137,1.056,0.199,1.585
		C46.155,59.181,46.399,59.553,45.895,59.531z M46.818,53.095c-0.211-1.174-0.276-2.384-0.163-3.566
		c0.868,0.068,1.736,0.133,2.605,0.198c0.472,0.035,1.366-0.074,1.781,0.134c0.543,0.272,0.531,0.188-0.046,0.677
		C49.762,51.582,48.203,52.225,46.818,53.095z"/>
	<path style="fill:#1D1D1B;" d="M36.548,17.731c-2.742-0.271-5.581-0.041-8.333-0.003c-0.403,0.006-0.403,0.62,0,0.626
		c2.752,0.037,5.592,0.268,8.333-0.003C36.946,18.31,36.947,17.77,36.548,17.731z"/>
</g>
<g>
</g>
<g>
</g>
<g>
</g>
<g>
</g>
<g>
</g>
<g>
</g>
<g>
</g>
<g>
</g>
<g>
</g>
<g>
</g>
<g>
</g>
<g>
</g>
<g>
</g>
<g>
</g>
<g>
</g>
</svg>
