<?xml version="1.0" encoding="iso-8859-1"?>
<!-- Generator: Adobe Illustrator 18.0.0, SVG Export Plug-In . SVG Version: 6.00 Build 0)  -->
<!DOCTYPE svg PUBLIC "-//W3C//DTD SVG 1.1//EN" "http://www.w3.org/Graphics/SVG/1.1/DTD/svg11.dtd">
<svg version="1.1" id="Capa_1" xmlns="http://www.w3.org/2000/svg" xmlns:xlink="http://www.w3.org/1999/xlink" x="0px" y="0px"
	 viewBox="0 0 60.004 60.004" style="enable-background:new 0 0 60.004 60.004;" xml:space="preserve">
<g>
	<path style="fill:#1D1D1B;" d="M58.919,24.154c-0.42-3.617-0.518-7.567-1.659-11.061c-2.063-6.317-7.72-7.507-13.72-8.194
		C33.829,3.786,24.005,4.85,14.348,5.993C8.93,6.633,3.315,7.54,1.205,13.289c-2.535,6.904-0.436,16.191,0.56,23.224
		c0.859,6.07,1.622,11.543,8.515,12.531c8.112,1.163,18.304,1.121,26.387-1.006c-0.004,0.199,0.049,0.405,0.208,0.592
		c3.617,4.244,8.668,6.681,14.232,6.945c0.53,0.025,0.904-0.533,0.775-1.017c-0.684-2.578-1.119-5.216-1.803-7.79
		c5.43,0.465,9.01-4.103,9.728-9.2C60.427,33.176,59.425,28.512,58.919,24.154z M35.587,35.807
		c7.614-0.347,15.197-0.479,22.814-0.315c-0.022,0.733-0.074,1.458-0.159,2.164c-5.46-0.087-10.951,0.157-16.406,0.354
		c-0.168,0.006-0.17,0.262,0,0.263c5.437,0.019,10.911,0.081,16.345-0.181c-0.104,0.728-0.252,1.428-0.444,2.092
		c-8.24-0.448-16.746-0.121-24.921,1.002c-0.139,0.019-0.106,0.251,0.033,0.244c8.265-0.393,16.471-0.669,24.743-0.778
		c-0.352,1.05-0.843,1.98-1.504,2.733c-9.778,0.109-19.872-0.194-29.521,1.529c-0.175,0.031-0.097,0.285,0.072,0.262
		c9.561-1.288,19.302-0.974,28.932-1.271c-1.284,1.134-3.107,1.691-5.674,1.328c-0.829-0.117-1.153,0.723-0.781,1.2
		c-0.002,0.016-0.009,0.029-0.009,0.047c-0.009,1.579,0.186,3.154,0.457,4.718c-0.565-0.014-1.135,0.062-1.701,0.061
		c-0.753-0.002-1.502-0.064-2.248-0.165c-0.18-0.024-0.265,0.242-0.077,0.28c1.263,0.256,2.806,0.54,4.105,0.281
		c0.135,0.733,0.281,1.464,0.438,2.19c-4.707-0.574-8.855-2.813-11.974-6.45c-0.286-0.334-0.646-0.343-0.937-0.185
		c-5.692-0.145-11.435,0.684-17.141,0.71c-3.006,0.014-6.712,0.336-9.648-0.369c-4.271-1.025-5.914-3.74-6.65-7.789
		c-1.156-6.353-1.86-13.022-1.926-19.485c-0.031-3.02,0.21-6.107,2.002-8.627c2.416-3.397,6.782-3.712,10.54-4.179
		c5.942-0.738,11.926-1.375,17.914-1.536c5.447-0.147,12.54-0.54,17.798,1.569C39.976,7.394,29.776,7.872,19.812,9.442
		c-0.214,0.034-0.167,0.404,0.052,0.382c10.343-1.02,20.571-1.804,30.973-1.802c0.086,0,0.147-0.036,0.188-0.087
		c0.041,0.02,0.084,0.036,0.125,0.056c0.842,0.419,1.558,0.934,2.179,1.521c-7.411,0.558-14.821,1.079-22.238,1.554
		c-0.212,0.014-0.216,0.337,0,0.333c7.564-0.146,15.136-0.629,22.657-1.445c1.427,1.547,2.254,3.534,2.771,5.688
		c-7.06,0.617-14.105,1.124-21.183,1.516c-0.18,0.01-0.182,0.28,0,0.281c7.095,0.057,14.247-0.412,21.281-1.366
		c0.276,1.26,0.453,2.57,0.588,3.879c-9.514,0.261-19.165,1.043-28.611,2.187c-0.125,0.015-0.132,0.209,0,0.202
		c9.535-0.504,19.139-1.129,28.649-1.992c0.074,0.765,0.134,1.524,0.193,2.274c-7.191,0.944-14.349,1.614-21.596,1.952
		c-0.183,0.009-0.185,0.286,0,0.286c7.234-0.014,14.494-0.598,21.632-1.788c0.079,1.003,0.158,1.98,0.262,2.902
		c0.042,0.37,0.09,0.773,0.141,1.203c-8.291,0.163-16.487,0.509-24.788,0.194c-0.14-0.005-0.137,0.204,0,0.216
		c8.18,0.694,16.663,0.947,24.829-0.064c0.097,0.828,0.201,1.745,0.289,2.714c-6.009-0.102-12.114,0.325-18.101,0.809
		c-0.166,0.014-0.171,0.267,0,0.263c6.032-0.163,12.12-0.218,18.139-0.627c0.115,1.364,0.191,2.815,0.173,4.255
		c-7.611-0.276-15.243-0.115-22.826,0.602C35.419,35.556,35.413,35.815,35.587,35.807z"/>
	<path style="fill:#1D1D1B;" d="M55.092,12.275c-9.903,0.41-19.889,0.818-29.757,1.757c-0.138,0.013-0.144,0.222,0,0.22
		c9.907-0.137,19.873-0.818,29.757-1.485C55.406,12.746,55.411,12.262,55.092,12.275z"/>
	<path style="fill:#1D1D1B;" d="M48.579,45.633c-2.915,0.383-5.806,0.738-8.74,0.938c-0.191,0.013-0.195,0.301,0,0.3
		c2.935-0.019,5.915-0.232,8.806-0.755C48.914,46.068,48.855,45.597,48.579,45.633z"/>
	<path style="fill:#1D1D1B;" d="M48.598,48.831c-2.078-0.019-4.177,0.147-6.26,0.169c-0.209,0.002-0.2,0.298,0,0.319
		c2.047,0.208,4.285,0.306,6.324-0.014C48.937,49.262,48.863,48.833,48.598,48.831z"/>
</g>
<g>
</g>
<g>
</g>
<g>
</g>
<g>
</g>
<g>
</g>
<g>
</g>
<g>
</g>
<g>
</g>
<g>
</g>
<g>
</g>
<g>
</g>
<g>
</g>
<g>
</g>
<g>
</g>
<g>
</g>
</svg>
