<?xml version="1.0" encoding="iso-8859-1"?>
<!-- Generator: Adobe Illustrator 18.0.0, SVG Export Plug-In . SVG Version: 6.00 Build 0)  -->
<!DOCTYPE svg PUBLIC "-//W3C//DTD SVG 1.1//EN" "http://www.w3.org/Graphics/SVG/1.1/DTD/svg11.dtd">
<svg version="1.1" id="Capa_1" xmlns="http://www.w3.org/2000/svg" xmlns:xlink="http://www.w3.org/1999/xlink" x="0px" y="0px"
	 viewBox="0 0 58.888 58.888" style="enable-background:new 0 0 58.888 58.888;" xml:space="preserve">
<g>
	<path style="fill:#1D1D1B;" d="M49.877,12.199c-6.343-4.816-14.776-1.568-20.391,3.024c0.321-4.733,0.537-9.421,1.486-14.099
		c0.049-0.24-0.033-0.479-0.248-0.609c-2.684-1.633-4.722,0.923-5.253,3.412c-0.134,0.627-0.199,1.268-0.236,1.914
		c-1.19-1.917-3.4-2.994-5.727-2.832c-3.495,0.242-6.066,3.06-7.798,5.85c-0.082,0.132-0.112,0.26-0.119,0.383
		c-0.073,0.163-0.057,0.361,0.121,0.537c3.274,3.237,11.372,4.416,13.701-0.668c0.328,2.164,1.036,4.3,1.94,6.214
		c-5.442-1.47-11.352-1.578-16.438,0.647c-7.861,3.44-8.051,11.947-7.798,19.408c0.252,7.425,0.48,17.677,8.049,21.677
		c6.621,3.499,10.791-1.624,15.735-5.042c6.303,2.787,10.07,10.424,17.746,4.939c3.057-2.185,4.66-5.717,5.868-9.156
		c1.862-5.301,3.769-10.84,4.806-16.367C56.585,24.69,55.754,16.661,49.877,12.199z M18.774,4.732
		c0.357-0.103,0.719-0.162,1.082-0.198c0.183,0.787,0.486,1.577,0.913,2.29c-0.112,0.134-0.229,0.265-0.337,0.402
		c-0.086,0.016-0.172,0.03-0.258,0.046c-0.614-0.432-1.341-0.676-1.985-1.068c-0.369-0.224-0.716-0.476-1.046-0.748
		C17.649,5.153,18.188,4.901,18.774,4.732z M16.281,6.05c0.625,0.583,1.356,1.146,2.134,1.52c-1.504,0.224-3.095,0.4-4.486,0.979
		C14.611,7.624,15.385,6.753,16.281,6.05z M18.174,10.386c-0.085,0.191-0.098,0.373-0.065,0.544
		c-1.756,0.039-3.419-0.393-4.906-1.347c0.045-0.068,0.094-0.135,0.139-0.203c0.012,0.004,0.017,0.015,0.03,0.017
		c1.757,0.304,3.563-0.181,5.311-0.439c0.166-0.024,0.334-0.047,0.502-0.069C18.81,9.367,18.409,9.859,18.174,10.386z M24.842,8.358
		c-1.885,0.994-3.389,2.19-5.588,2.489c-0.093,0.013-0.184,0.016-0.276,0.027c0.034-0.503,0.733-1.161,1.04-1.559
		c0.153-0.199,0.305-0.399,0.459-0.597c0.56-0.075,1.118-0.167,1.67-0.28c0.269,0.22,0.551,0.423,0.861,0.582
		c0.377,0.193,0.833-0.311,0.477-0.618c-0.09-0.078-0.175-0.156-0.262-0.234c0.464-0.139,0.921-0.299,1.352-0.516
		c0.272-0.137,0.234-0.648-0.091-0.694c-0.817-0.116-1.638-0.074-2.458,0.026c-0.636-0.724-1.142-1.515-1.455-2.48
		c1.875,0.045,3.634,0.996,4.446,2.818c0.048,0.108,0.13,0.17,0.222,0.196c0.017,0.285,0.045,0.571,0.076,0.856
		C25.19,8.286,25.023,8.262,24.842,8.358z M48.568,13.339c-0.003,0-0.004-0.003-0.007-0.003c-3.419-0.025-6.835,0.047-10.256-0.002
		c-0.196-0.003-0.19,0.284,0,0.3c3.384,0.288,6.865,0.426,10.256,0.195c0.197-0.014,0.258-0.198,0.207-0.338
		c0.644,0.498,1.269,1.101,1.868,1.836c-2.753-0.114-5.536,0.04-8.28,0.21c-1.777,0.11-4.636-0.21-6.184,0.74
		c-0.055,0.034-0.08,0.111-0.044,0.168c0.034,0.055,0.069,0.109,0.103,0.163c0.02,0.032,0.064,0.055,0.102,0.041l0.147-0.053
		c0.065-0.023,0.058-0.125-0.017-0.124c4.789-0.015,9.782-0.323,14.588-0.613c0.133,0.179,0.265,0.357,0.396,0.55
		c0.416,0.615,0.753,1.251,1.058,1.894c-0.046-0.047-0.109-0.081-0.196-0.079c-5.777,0.136-11.565,0.303-17.338,0.592
		c0.021-0.219-0.06-0.443-0.285-0.566c-1.407-0.766-2.914-1.445-4.481-2.022C36.175,13.215,43.076,9.314,48.568,13.339z
		 M26.911,6.082C26.906,5.189,26.97,4.3,27.104,3.416c2.101-2.017,2.929-2.304,2.481-0.86c0.025,0.172,0.034,0.356,0.033,0.549
		c-0.699,0.093-1.4,0.241-2.09,0.359c-0.108,0.019-0.084,0.207,0.026,0.193c0.675-0.086,1.369-0.149,2.047-0.258
		c-0.03,0.488-0.113,1.018-0.225,1.565c-0.689,0.007-1.347-0.023-2.034-0.217c-0.152-0.043-0.213,0.187-0.065,0.235
		c0.643,0.208,1.344,0.341,2.03,0.313c-0.103,0.469-0.213,0.941-0.321,1.4c-0.682-0.062-1.377-0.02-2.064,0.013
		C26.919,6.501,26.908,6.292,26.911,6.082z M26.928,7.006c0.66,0.032,1.327,0.069,1.983,0.018c-0.118,0.525-0.219,1.023-0.265,1.462
		c-0.016,0.155-0.029,0.31-0.045,0.465c-0.538,0.025-1.049,0.01-1.57-0.134C26.979,8.214,26.946,7.61,26.928,7.006z M27.054,9.147
		c0-0.003,0-0.006-0.001-0.01c0.491,0.163,1.006,0.231,1.514,0.145c-0.189,1.931-0.318,3.881-0.283,5.821
		C27.676,13.147,27.243,11.231,27.054,9.147z M53.829,29.241c-0.005,0-0.009-0.003-0.015-0.003
		c-7.067-0.251-14.488-0.555-21.509,0.406c-0.046,0.006-0.032,0.076,0.011,0.078c7.104,0.362,14.298-0.044,21.422,0.129
		c-0.19,1.236-0.445,2.468-0.746,3.681c-4.088-0.603-8.323-0.604-12.429-0.307c-0.202,0.015-0.207,0.323,0,0.319
		c4.136-0.082,8.173,0.222,12.277,0.577c-0.152,0.585-0.309,1.167-0.474,1.74c-5.774,0.279-11.524,0.527-17.308,0.524
		c-0.167,0-0.165,0.251,0,0.258c5.709,0.24,11.47,0.203,17.167-0.3c-0.09,0.306-0.18,0.611-0.273,0.913
		c-0.181,0.591-0.362,1.23-0.546,1.889c-7.178-0.466-14.418-0.322-21.593,0.124c-0.158,0.01-0.161,0.253,0,0.248
		c7.166-0.205,14.294-0.062,21.456,0.117c-0.261,0.943-0.53,1.932-0.82,2.947c-5.708-0.368-11.435-0.218-17.135,0.211
		c-0.143,0.011-0.146,0.232,0,0.225c5.672-0.266,11.312-0.145,16.975,0.104c-0.124,0.424-0.245,0.848-0.377,1.276
		c-7.445-0.039-14.914,0.15-22.35,0.456c-0.132,0.005-0.133,0.204,0,0.206c7.378,0.125,14.786,0.133,22.165-0.081
		c-0.389,1.219-0.814,2.437-1.306,3.606c-3.595-0.246-7.289,0.015-10.866,0.265c-0.208,0.015-0.213,0.335,0,0.328
		c3.538-0.111,7.086,0.035,10.621-0.04c-0.385,0.865-0.794,1.709-1.261,2.488c-4.245-0.275-8.611,0.022-12.855,0.114
		c-0.154,0.003-0.154,0.236,0,0.239c4.139,0.09,8.397,0.375,12.544,0.133c-0.543,0.841-1.139,1.619-1.812,2.289
		c-3.459-0.437-7.008-0.5-10.487-0.685c-0.273-0.015-0.267,0.399,0,0.422c3.296,0.287,6.64,0.684,9.954,0.765
		c-0.578,0.501-1.198,0.942-1.881,1.285c-5.754,2.888-9.465-2.62-14.139-5.037c0.62-0.368,1.254-0.699,1.911-0.972
		c0.995-0.413,0.652-1.906-0.456-1.654c-4.444,1.011-6.648,5.05-10.615,6.879C7.428,60.771,5.511,43.339,5.227,36.281
		C4.922,28.685,4.791,19.873,13.562,17.2c6.397-1.949,13.496-0.545,19.642,1.778c-0.04,0.083-0.008,0.2,0.113,0.2
		c0.132,0,0.265-0.003,0.397-0.003c0.167,0.065,0.336,0.128,0.501,0.194c0.264,0.106,0.485-0.01,0.621-0.201
		c5.824-0.028,11.655-0.182,17.474-0.367c0.226-0.007,0.298-0.218,0.247-0.384c0.572,1.236,0.974,2.513,1.208,3.822
		c-5.565,0.056-11.137,0.354-16.703,0.468c-0.205,0.004-0.205,0.315,0,0.319c5.573,0.107,11.227,0.157,16.789-0.274
		c0.124,0.839,0.195,1.688,0.21,2.542c-8.495-0.029-17.01,0.172-25.499,0.456c-0.201,0.007-0.203,0.313,0,0.314
		c8.497,0.054,17.019,0.023,25.514-0.237C54.071,26.961,53.982,28.102,53.829,29.241z"/>
</g>
<g>
</g>
<g>
</g>
<g>
</g>
<g>
</g>
<g>
</g>
<g>
</g>
<g>
</g>
<g>
</g>
<g>
</g>
<g>
</g>
<g>
</g>
<g>
</g>
<g>
</g>
<g>
</g>
<g>
</g>
</svg>
