<?xml version="1.0" encoding="iso-8859-1"?>
<!-- Generator: Adobe Illustrator 18.0.0, SVG Export Plug-In . SVG Version: 6.00 Build 0)  -->
<!DOCTYPE svg PUBLIC "-//W3C//DTD SVG 1.1//EN" "http://www.w3.org/Graphics/SVG/1.1/DTD/svg11.dtd">
<svg version="1.1" id="Capa_1" xmlns="http://www.w3.org/2000/svg" xmlns:xlink="http://www.w3.org/1999/xlink" x="0px" y="0px"
	 viewBox="0 0 49.868 49.868" style="enable-background:new 0 0 49.868 49.868;" xml:space="preserve">
<g>
	<path style="fill:#1D1D1B;" d="M48.155,31.873c2.879-6.151,0.855-14.132-3.122-19.333c-0.118-0.154-0.266-0.244-0.42-0.289
		c-0.138-2.398-3.117-4.373-5.124-5.183c-2.502-1.009-5.282-1.125-7.76-0.076c-0.922-0.686-1.957-1.199-2.9-0.877
		c-1.37,0.468-2.277,2.375-2.852,3.885c-1.694,0.046-3.331,0.886-4.268,2.648c-0.044,0.082-0.06,0.16-0.063,0.234
		c-0.31-0.015-0.619-0.014-0.928,0.006c-1.902,0.122-3.812,1.228-3.543,3.373c0.01,0.083,0.043,0.15,0.084,0.208
		c-2.097-0.323-4.152,0.379-4.954,2.826c-1.569,0.067-3.861,0.823-3.637,2.51c-0.589-0.28-1.199-0.523-1.837-0.7
		c0.04-0.248-0.194-0.481-0.475-0.345c-3.882,1.875-7.144,5.593-6.189,10.215c0.145,0.703,0.386,1.31,0.691,1.847
		c-2.685,11.91,21.192,11.221,27.703,10.887c5.851-0.3,15.143-0.84,19.613-5.117C50.27,36.591,50.595,33.558,48.155,31.873z
		 M44.22,14.153c0.505,0.897,0.921,1.782,1.281,2.663c-0.921-0.006-1.854,0.067-2.759,0.094c-0.416,0.012-0.417,0.634,0,0.647
		c1.01,0.03,2.054,0.121,3.077,0.091c0.294,0.809,0.547,1.616,0.74,2.426c-2.037-0.193-4.389,0.071-6.224,0.561
		c-0.303,0.081-0.24,0.544,0.074,0.546c1.314,0.006,2.626-0.17,3.942-0.2c0.8-0.018,1.601,0.012,2.399-0.018
		c0.19,0.956,0.326,1.917,0.408,2.894c-1.139-0.025-2.307,0.056-3.415,0.139c-0.307,0.023-0.308,0.455,0,0.478
		c1.123,0.085,2.309,0.168,3.463,0.139c0.046,0.771,0.074,1.549,0.071,2.344c-1.418,0.209-2.752,0.458-4.2,0.387
		c-0.233-0.012-0.294,0.381-0.056,0.414c1.374,0.195,2.9,0.243,4.251-0.165c-0.018,1.04-0.068,2.106-0.138,3.206
		c-2.438-0.093-4.983,0.285-7.392,0.451c-0.375,0.026-0.384,0.599,0,0.591c2.006-0.046,4.117,0.04,6.165-0.106
		c-6.784,4.145-15.495,4.507-23.259,4.392c-2.415-0.036-4.837-0.18-7.247-0.43c0.399-1.567,0.437-3.165,0.175-4.706
		c0.571,0.03,1.174-0.094,1.692-0.373c0.977-0.525,1.463-1.379,1.636-2.341c1.779,0.231,3.56-1.168,4.255-2.771
		c0.157-0.361,0.25-0.738,0.315-1.12c2.54,0.227,4.203-1.484,4.743-3.615c1.482,0.277,2.838-0.662,3.461-2.007
		C35.319,19.073,42.956,17.91,44.22,14.153z M37.733,8.236c-0.776,0.02-1.553,0.056-2.323,0.075c-0.33,0.008-0.331,0.505,0,0.513
		c1.289,0.031,2.595,0.111,3.89,0.08c0.774,0.429,1.378,0.977,1.927,1.563c-0.983,0.025-1.985,0.242-2.89,0.497
		c-0.308,0.087-0.177,0.534,0.131,0.475c1.173-0.225,2.302-0.186,3.459-0.201c0.385,0.431,0.773,0.858,1.216,1.247
		c-0.01,0.039-0.027,0.074-0.038,0.112c-1.268,0.024-2.513,0.217-3.769,0.398c-0.332,0.048-0.255,0.607,0.08,0.587
		c1.15-0.07,2.292-0.133,3.425-0.317c-1.241,2.457-4.905,3.017-8.11,3.395c1.347-0.743,2.822-1.718,2.757-2.994
		c-0.092-1.821-2.677-3.971-3.909-5.07C33.385,8.424,33.165,8.218,32.926,8C34.549,7.697,36.167,7.741,37.733,8.236z M27.888,9.318
		c0.458-0.902,0.427-0.893,1.574-1.204c1.367-0.371,1.65,0.115,2.613,0.968c0.449,0.398,0.88,0.817,1.301,1.243
		c0.696,0.704,2.242,1.935,2.46,2.869c0.353,1.517-2.248,2.675-3.257,3.42c-0.127,0.093-0.193,0.215-0.219,0.34
		c-0.084,0.012-0.173,0.024-0.255,0.037c0.113-1.603-0.399-3.281-1.306-4.559c-0.829-1.168-2.024-1.937-3.297-2.262
		C27.623,9.883,27.746,9.597,27.888,9.318z M25.64,11.513c0.209,0.41,0.876,0.521,1.227,0.128c0.784,0.195,1.53,0.595,2.122,1.22
		c1.39,1.469,2.444,6.244-0.582,6.186c-0.036-1.241-0.431-2.492-1.239-3.498c-1.109-1.382-2.738-2.231-4.464-2.539
		C23.451,12.043,24.53,11.564,25.64,11.513z M18.019,16.262c0.016-2.496,3.3-2.068,4.68-1.687c1.358,0.374,2.694,1.108,3.463,2.334
		c1.621,2.582,0.278,5.571-2.664,5.78c-0.156-1.178-0.63-2.33-1.301-3.273c-0.951-1.338-2.616-2.405-4.331-2.828
		C17.956,16.522,18.018,16.417,18.019,16.262z M20.544,19.887c2.306,2.555,1.882,6.236-1.601,6.835
		c-0.081-0.793-0.295-1.583-0.563-2.265c-0.86-2.184-2.478-4.472-4.872-5.027C15.499,17.144,18.58,17.711,20.544,19.887z
		 M12.362,20.546c1.701-0.036,3.176,1.086,4.095,2.444c0.761,1.125,1.447,2.633,1.484,4.039c-0.194,0.22-0.225,0.547-0.064,0.8
		c-0.304,1.44-1.585,2.1-2.739,1.427c-0.977-2.998-3.087-5.618-5.866-7.143C10.386,21.629,10.923,20.576,12.362,20.546z
		 M5.934,22.226c0.081,0.094,0.18,0.177,0.322,0.228c5.373,1.933,8.392,7.273,7.507,12.848c-0.011,0.07,0.003,0.131,0.006,0.196
		c-1.607-0.203-3.209-0.438-4.794-0.749c-2.783-0.546-6.008-2.208-6.78-5.353C1.599,26.973,4.155,24.2,5.934,22.226z M47.407,36.714
		c-0.023,0.006-0.045,0.012-0.067,0.018c0.078-0.173-0.025-0.418-0.26-0.433c-2.382-0.146-4.958,0.461-7.327,0.751
		c-0.35,0.043-0.367,0.591,0,0.563c2.183-0.17,4.591-0.123,6.761-0.58c-0.062,0.115-0.036,0.269,0.059,0.345
		c-0.84,0.578-1.897,1.109-2.998,1.576c-0.848,0.05-1.632,0.054-2.457-0.235c-0.121-0.043-0.2,0.014-0.248,0.094
		c-1.728-0.151-3.564,0.111-5.217,0.395c-0.316,0.054-0.247,0.606,0.077,0.566c2.123-0.261,4.23-0.078,6.344-0.244
		c0.01-0.001,0.015-0.009,0.024-0.011c0.011,0.002,0.021,0.004,0.032,0.006c-2.284,0.844-4.437,1.39-4.934,1.5
		c-4.296,0.949-8.723,1.33-13.117,1.293c-6.451-0.054-20.519-0.069-22.253-8.236c2.272,2.227,6.236,2.564,9.392,3.028
		c7.175,1.055,14.486,1.19,21.693,0.369c4.911-0.56,10.275-1.19,14.052-4.599c0.032,0.031,0.051,0.067,0.089,0.095
		c0.565,0.41,0.911,0.815,1.11,1.214c-0.812-0.212-1.711-0.131-2.487,0.138c-0.221,0.076-0.133,0.41,0.097,0.353
		c0.919-0.229,1.714-0.105,2.58,0.131C48.409,35.475,48.049,36.115,47.407,36.714z"/>
</g>
<g>
</g>
<g>
</g>
<g>
</g>
<g>
</g>
<g>
</g>
<g>
</g>
<g>
</g>
<g>
</g>
<g>
</g>
<g>
</g>
<g>
</g>
<g>
</g>
<g>
</g>
<g>
</g>
<g>
</g>
</svg>
