<?xml version="1.0" encoding="iso-8859-1"?>
<!-- Generator: Adobe Illustrator 18.0.0, SVG Export Plug-In . SVG Version: 6.00 Build 0)  -->
<!DOCTYPE svg PUBLIC "-//W3C//DTD SVG 1.1//EN" "http://www.w3.org/Graphics/SVG/1.1/DTD/svg11.dtd">
<svg version="1.1" id="Capa_1" xmlns="http://www.w3.org/2000/svg" xmlns:xlink="http://www.w3.org/1999/xlink" x="0px" y="0px"
	 viewBox="0 0 60.535 60.535" style="enable-background:new 0 0 60.535 60.535;" xml:space="preserve">
<g>
	<path style="fill:#1D1D1B;" d="M60.498,52.824c-1.882-7.081-6.264-14.504-9.965-21.026c0.897-0.41,1.632-1.17,2.049-2.061
		c0.431-0.921,0.685-2.385,0.038-3.258c1.645-0.199,3.293-0.393,4.953-0.575c0.713-0.078,1.034-0.71,0.954-1.251
		c1.881-1.594,2.46-4.731,0.867-6.646c0.118-0.379-0.021-0.81-0.545-0.935C43.509,13.402,27.632,10.806,11.97,8.84
		c-0.489-0.895-1.156-1.666-2.082-2.22c-0.14-0.084-0.272-0.063-0.385-0.003c-2.952-0.58-5.829-0.791-8.641-2.009
		C0.208,4.323-0.365,5.212,0.287,5.59C0.422,5.668,0.563,5.741,0.7,5.817C0.681,5.9,0.661,5.982,0.67,6.081
		C1.607,16.42,2.238,26.136,1.407,36.525c-0.031,0.387,0.241,0.633,0.563,0.72c-0.315,0.466-0.054,1.319,0.632,1.266
		c2.506-0.194,5.01-0.427,7.502-0.755c0.687-0.09,0.998-0.715,0.951-1.252c0.022-0.052,0.054-0.091,0.068-0.154
		c0.159-0.69,0.306-1.383,0.449-2.077c0.064-0.004,0.123,0.004,0.193-0.016c11.198-3.103,22.261-5.234,33.568-6.829
		c-0.462,1.677,0.543,3.448,2.048,4.251c-0.881,3.67-1.549,7.388-2.418,11.061c-0.854,3.611-2.193,7.178-2.602,10.865
		c-0.09,0.81,1.131,1.063,1.494,0.405c2.686-4.875,4.115-11.305,4.711-17.342c0.255,6.231,0.436,12.638,1.482,18.659
		c0.188,1.081,1.689,0.698,1.782-0.241c0.61-6.173-0.301-13.011-1.518-19.327c2.324,6.148,4.948,12.732,8.518,17.768
		C59.403,54.341,60.778,53.878,60.498,52.824z M11.049,20.083c-0.173,5.272-0.782,10.501-1.526,15.721
		c-2.223,0.304-4.437,0.67-6.644,1.076c0.021-0.048,0.051-0.089,0.062-0.147C4.738,27.133,5,16.415,2.717,6.826
		c2.129,0.933,4.429,1.492,6.733,1.186c0.5,2.054,1.372,3.903,1.579,6.103C11.213,16.091,11.114,18.105,11.049,20.083z
		 M57.152,23.848c-0.01,0.008-0.014,0.018-0.023,0.026c-0.885,0.012-1.773,0.037-2.662,0.069c0.038-0.347,0.054-0.694,0.073-1.042
		c1.129,0.019,2.257,0.036,3.386,0.056C57.734,23.278,57.496,23.584,57.152,23.848z M58.188,22.393
		c-1.205-0.056-2.413-0.094-3.619-0.14c0.012-0.623-0.015-1.246-0.073-1.866c1.254,0.04,2.508,0.078,3.761,0.124
		C58.388,21.147,58.387,21.794,58.188,22.393z M57.365,18.475c0,0.001,0,0.001,0.001,0.002c0.289,0.414,0.531,0.877,0.704,1.358
		c-1.219-0.053-2.438-0.099-3.658-0.147c-0.081-0.575-0.187-1.146-0.343-1.71C55.168,18.144,56.267,18.316,57.365,18.475z
		 M43.62,24.845c-0.015-0.003-0.021-0.016-0.037-0.017c-7.164-0.221-14.334-0.326-21.502-0.362c-0.239-0.001-0.238,0.362,0,0.37
		c6.185,0.206,12.375,0.344,18.564,0.416c-3.416,0.506-6.826,1.136-10.204,1.885c-0.032-0.027-0.068-0.052-0.114-0.056
		c-1.67-0.135-3.376,0.01-5.047,0.094c-0.952,0.048-3.69,0.641-4.52,0.197c0.056,0.03,0.124-0.048,0.071-0.092
		c-0.171-0.143-0.294-0.091-0.437,0.081c-0.061,0.073-0.083,0.195,0,0.266c0.824,0.708,2.733,0.24,3.722,0.213
		c1.229-0.033,2.474-0.042,3.712-0.104c-5.44,1.309-10.782,2.9-15.912,4.742c0.921-5.026,1.404-10.135,1.377-15.248
		c-0.012-2.154-0.006-4.788-0.728-7c6.493,1.392,13.035,2.715,19.594,3.957c-2.276-0.186-4.585-0.16-6.825-0.062
		c-0.27,0.012-0.273,0.428,0,0.422c3.728-0.08,7.307,0.405,11,0.791c0.191,0.02,0.268-0.174,0.228-0.33
		c3.499,0.64,7.001,1.261,10.505,1.84c-6.141-0.431-12.368-0.542-18.483-0.134c-0.179,0.012-0.183,0.277,0,0.281
		c7.355,0.177,14.663,0.33,22.01,0.782c0.209,0.013,0.311-0.138,0.312-0.297c0.468,0.074,0.935,0.159,1.403,0.231
		c-0.083,0.173-0.129,0.371-0.082,0.606c0.085,0.432,0.145,0.86,0.209,1.29c-8.53-0.311-17.073-0.469-25.602-0.29
		c-0.244,0.005-0.245,0.374,0,0.38c8.572,0.215,17.143,0.367,25.713,0.624c0.076,0.619,0.133,1.237,0.163,1.859
		c-9.951-0.345-19.945-0.377-29.877-0.022c-0.159,0.006-0.161,0.246,0,0.248c9.968,0.148,19.934,0.295,29.9,0.464
		c0.006,0.383,0.01,0.767-0.006,1.155C49.703,24.182,46.662,24.463,43.62,24.845z M49.461,30.04
		c-0.262-0.174-0.634-0.124-0.867,0.07c-0.161-0.091-0.35-0.132-0.527-0.078c-0.981-0.422-1.59-1.685-1.61-2.76
		c1.481-0.204,2.969-0.397,4.46-0.584c-0.125,0.664,0.148,1.306-0.126,1.983C50.55,29.265,50.067,29.809,49.461,30.04z"/>
</g>
<g>
</g>
<g>
</g>
<g>
</g>
<g>
</g>
<g>
</g>
<g>
</g>
<g>
</g>
<g>
</g>
<g>
</g>
<g>
</g>
<g>
</g>
<g>
</g>
<g>
</g>
<g>
</g>
<g>
</g>
</svg>
