<?xml version="1.0" encoding="iso-8859-1"?>
<!-- Generator: Adobe Illustrator 18.0.0, SVG Export Plug-In . SVG Version: 6.00 Build 0)  -->
<!DOCTYPE svg PUBLIC "-//W3C//DTD SVG 1.1//EN" "http://www.w3.org/Graphics/SVG/1.1/DTD/svg11.dtd">
<svg version="1.1" id="Capa_1" xmlns="http://www.w3.org/2000/svg" xmlns:xlink="http://www.w3.org/1999/xlink" x="0px" y="0px"
	 viewBox="0 0 50.071 50.071" style="enable-background:new 0 0 50.071 50.071;" xml:space="preserve">
<g>
	<path style="fill:#1D1D1B;" d="M42.074,40.007c0.007-0.118,0.015-0.233,0.023-0.354c0.267-3.875-0.249-7.999-0.378-11.886
		c-0.285-8.581-0.515-17.178-0.934-25.753c-0.019-0.382-0.27-0.601-0.556-0.665c-0.083-0.073-0.187-0.136-0.314-0.182
		C33.607-1.131,25.729,0.079,20.15,3.789c-0.435-0.303-1.142,0.035-1.023,0.706c1.581,8.967,4.401,18.058,7.936,26.465
		c-4.672-1.956-10.702-2.1-14.595,0.346c-3.046,1.914-4.874,5.333-4.723,8.688c-1.642,1.157-2.679,2.694-2.378,4.818
		c0.265,1.868,1.553,3.53,3.42,3.949c0.143,0.032,0.283,0.01,0.408-0.044c1.66,0.973,4.103,0.987,6,1.143
		c6.834,0.564,13.79-0.137,20.613-0.607c3.047-0.21,7.406-0.362,8.672-3.814C45.341,43.092,44.085,41.097,42.074,40.007z
		 M41.339,43.236c0.042,0.724-0.013,1.346-0.135,1.897c-0.809,0.063-1.613,0.203-2.414,0.33c-0.36,0.057-0.728,0.109-1.095,0.169
		c1.136-0.366,2.134-0.848,2.88-1.504C40.902,43.841,41.145,43.543,41.339,43.236z M38.658,2.634
		c-0.392,0.491-0.813,0.908-1.256,1.272c-2.428-0.194-4.978,0.019-7.386,0.093c-0.439,0.014-0.439,0.669,0,0.682
		c1.943,0.06,3.98,0.208,5.97,0.162c-1.997,1.04-4.357,1.258-6.928,1.242c-2.833-0.017-5.695-0.146-8.275-1.341
		C26.819,2.389,32.205,1.849,38.658,2.634z M16.36,31.603c4.147-0.997,10.842,0.31,14.476,2.752
		c0.409,0.274,0.871-0.341,0.522-0.676c-0.831-0.799-1.83-1.499-2.94-2.086c0.049-0.109,0.073-0.231,0.038-0.364
		c-2.16-8.234-4.563-16.577-7.252-24.685c2.715,1.679,7.094,1.632,9.876,1.502c3.047-0.143,6.673-1.086,8.31-3.688
		c0.016,0.89,0.041,1.78,0.063,2.67c-0.266-0.003-0.531,0.047-0.802,0.041c-0.437-0.01-0.848-0.109-1.253-0.272
		c-0.275-0.111-0.456,0.338-0.201,0.475c0.584,0.315,1.557,0.67,2.272,0.452c0.021,0.861,0.039,1.721,0.061,2.582
		c-1.179-0.002-2.429,0.271-3.583,0.457c-0.293,0.047-0.225,0.535,0.07,0.518c1.147-0.067,2.396-0.077,3.529-0.319
		c0.023,0.877,0.037,1.755,0.062,2.632c-2.203-0.329-4.744-0.023-6.925,0.076c-0.434,0.02-0.435,0.655,0,0.675
		c2.191,0.099,4.743,0.407,6.95,0.072c0.069,2.409,0.141,4.818,0.217,7.226c-2.175-0.521-4.693-0.285-6.85-0.024
		c-0.279,0.034-0.296,0.465,0,0.45c2.324-0.114,4.579,0.269,6.873,0.323c0.035,1.08,0.066,2.16,0.101,3.239
		c-0.386-0.019-0.781,0.028-1.164,0.045c-0.598,0.027-1.199,0.038-1.795,0.092c-0.307,0.028-0.308,0.45,0,0.478
		c0.596,0.054,1.197,0.065,1.795,0.091c0.392,0.017,0.794,0.068,1.188,0.045c0.035,1.061,0.067,2.123,0.102,3.184
		c-1.698-0.2-3.552,0.119-5.171,0.431c-0.307,0.059-0.241,0.592,0.075,0.552c1.71-0.216,3.422-0.092,5.123-0.169
		c0.042,1.288,0.085,2.576,0.127,3.864c-0.29,0.058-0.581,0.125-0.875,0.152c-0.565,0.052-1.127,0.032-1.69-0.034
		c-0.305-0.036-0.376,0.481-0.073,0.539c0.791,0.151,1.79,0.285,2.664,0.129c0.007,0.22,0.015,0.441,0.022,0.661
		c0.029,0.913,0.026,1.792-0.051,2.622c-1.811-0.218-3.756,0.023-5.567,0.111c-0.321,0.015-0.322,0.484,0,0.499
		c1.78,0.086,3.688,0.317,5.472,0.118c-0.2,1.233-0.616,2.336-1.453,3.232c-2.525-0.184-5.174,0.086-7.685,0.196
		c-0.262,0.012-0.263,0.396,0,0.408c2.173,0.095,4.453,0.31,6.665,0.248c-0.337,0.221-0.713,0.423-1.139,0.603
		c-2.33,0.984-6.159,0.777-8.72,0.969c-4.981,0.373-12.103,1.44-16.931-0.608C8.362,39.021,10.435,33.027,16.36,31.603z
		 M36.788,47.748c-1.307,0.118-2.615,0.232-3.924,0.343c-2.615,0.194-5.24,0.336-7.862,0.388c-3.768,0.075-12.455,0.937-16.219-1.46
		c-1.532-1.694-2.337-4.023-0.93-6.017c0.247,1.472,0.886,2.902,2.013,4.15c0.28,0.31,0.649,0.268,0.904,0.062
		c3.253,2.829,9.592,1.752,13.449,1.598c2.932-0.117,7.957,0.091,11.925-0.761c-0.137,0.057-0.277,0.105-0.407,0.178
		c-0.075,0.042-0.034,0.143,0.041,0.15c0.079,0.008,0.159,0.015,0.238,0.023c0.032,0.003,0.049-0.022,0.055-0.048
		c0.041,0.084,0.098,0.14,0.188,0.139c0.321,0.017,0.642,0.01,0.962-0.023c0.562-0.032,1.125-0.099,1.684-0.161
		c0.661-0.074,1.326-0.144,1.984-0.249C40.231,47.372,38.873,47.944,36.788,47.748z"/>
	<path style="fill:#1D1D1B;" d="M39.441,18.342c-1.167-0.231-2.574-0.02-3.758,0.051c-0.362,0.022-0.362,0.541,0,0.563
		c1.185,0.071,2.592,0.282,3.758,0.051C39.77,18.941,39.77,18.407,39.441,18.342z"/>
</g>
<g>
</g>
<g>
</g>
<g>
</g>
<g>
</g>
<g>
</g>
<g>
</g>
<g>
</g>
<g>
</g>
<g>
</g>
<g>
</g>
<g>
</g>
<g>
</g>
<g>
</g>
<g>
</g>
<g>
</g>
</svg>
