<?xml version="1.0" encoding="iso-8859-1"?>
<!-- Generator: Adobe Illustrator 18.0.0, SVG Export Plug-In . SVG Version: 6.00 Build 0)  -->
<!DOCTYPE svg PUBLIC "-//W3C//DTD SVG 1.1//EN" "http://www.w3.org/Graphics/SVG/1.1/DTD/svg11.dtd">
<svg version="1.1" id="Capa_1" xmlns="http://www.w3.org/2000/svg" xmlns:xlink="http://www.w3.org/1999/xlink" x="0px" y="0px"
	 viewBox="0 0 65.669 65.669" style="enable-background:new 0 0 65.669 65.669;" xml:space="preserve">
<g>
	<path style="fill:#1D1D1B;" d="M50.266,53.872c-0.034-0.056-0.083-0.102-0.158-0.118c-0.044-0.009-0.089-0.01-0.133-0.018
		c0.239-0.405,0.061-1.038-0.56-1.056c-8.839-0.264-6.063-19.801-8.069-25.129c-1.28-3.399-3.799-5.81-7.042-6.429
		c0.762-5.291,0.82-11.097,0.445-16.407c-0.146-2.066-0.542-4.502-3.007-4.7c-7.445-0.598-3.25,17.104-1.971,21.363
		c-15.017,3.828-5.332,25.107-14.301,33.088c-0.26,0.231-0.182,0.581,0.024,0.792c-0.407,0.124-0.582,0.799-0.129,1.05
		c3.356,1.86,8.501,3.706,13.891,4.617c-0.524,2.333,1.441,4.52,3.779,4.727c2.528,0.223,5.041-1.787,5.479-4.267
		c4.171-0.388,7.9-1.76,10.414-4.565c0.084-0.04,0.177-0.069,0.256-0.116c0.095-0.057,0.126-0.181,0.101-0.286
		c0.452-0.556,0.875-1.147,1.23-1.812C50.665,54.324,50.503,54.009,50.266,53.872z M29.476,11.472
		c-0.079-1.462-0.145-2.95-0.127-4.415c-0.038-0.857,0.005-1.71,0.129-2.557c-0.163-1.84,1.031-2.323,3.581-1.447
		c0.37,0.57,0.503,1.555,0.52,2.685c-1.156-0.135-2.39,0.002-3.546,0.027c-0.339,0.008-0.34,0.52,0,0.527
		c1.156,0.025,2.389,0.162,3.544,0.027c-0.02,1.111-0.127,2.312-0.236,3.395c-0.911-0.163-1.881,0.003-2.734,0.325
		c-0.307,0.116-0.19,0.594,0.138,0.502c0.858-0.24,1.675-0.241,2.535-0.227c-0.08,0.785-0.149,1.476-0.164,1.969
		c-0.014,0.484-0.037,0.968-0.058,1.453c-0.815,0.001-1.637,0.162-2.44,0.276c-0.303,0.043-0.235,0.568,0.073,0.539
		c0.778-0.073,1.58-0.108,2.346-0.278c-0.041,0.923-0.085,1.846-0.121,2.77c-0.517,0.021-1.035,0.064-1.548,0.091
		c-0.294,0.015-0.294,0.442,0,0.457c0.506,0.026,1.017,0.069,1.528,0.09c-0.037,1.099-0.06,2.198-0.031,3.295
		c-0.683-0.017-1.389,0.031-2.12,0.171c-0.074,0.014-0.138,0.035-0.212,0.05C30.088,17.965,29.653,14.731,29.476,11.472z
		 M34.107,63.821c-1.846,0.475-3.628-0.884-3.834-2.734c2.222,0.324,4.466,0.478,6.631,0.401
		C36.202,62.523,35.37,63.497,34.107,63.821z M47.282,56.331c-0.224,0.027-0.447,0.05-0.671,0.059
		c-1.073,0.042-2.134-0.017-3.195-0.187c-0.34-0.055-0.496,0.446-0.146,0.529c0.774,0.182,1.736,0.382,2.705,0.465
		c-8.323,4.896-21.837,1.201-29.881-1.823c0.019-0.01,0.038-0.011,0.056-0.024c4.131-2.846,4.939-7.288,5.046-12.058
		c0.096-4.297-0.091-8.43,1.483-12.544c1.734-4.532,6.369-9.202,11.787-7.808c1.273,0.327,2.282,0.926,3.101,1.715
		c-0.502-0.02-1.012,0.018-1.51,0.031c-0.898,0.023-1.795,0.046-2.692,0.083c-0.335,0.014-0.335,0.507,0,0.52
		c0.897,0.037,1.795,0.06,2.692,0.083c0.707,0.018,1.433,0.091,2.128-0.041c0.625,0.777,1.118,1.684,1.501,2.694
		c-1.834-0.229-3.814,0.007-5.655,0.066c-0.348,0.011-0.349,0.53,0,0.541c1.876,0.06,3.896,0.309,5.757,0.058
		c0.052-0.007,0.082-0.044,0.118-0.074c0.282,0.859,0.503,1.774,0.672,2.73c-0.777-0.217-1.684,0.044-2.373,0.401
		c-0.274,0.142-0.079,0.631,0.214,0.508c0.375-0.157,0.754-0.265,1.163-0.287c0.373-0.021,0.735,0.062,1.106,0.057
		c0.114,0.75,0.207,1.516,0.281,2.293c-1.678-0.233-3.625,0.004-5.27,0.103c-0.353,0.021-0.353,0.527,0,0.548
		c1.668,0.101,3.644,0.341,5.335,0.093c0.073,0.892,0.131,1.789,0.184,2.679c-0.457-0.072-0.927-0.024-1.39-0.007
		c-0.598,0.023-1.197,0.046-1.795,0.069c-0.289,0.011-0.29,0.439,0,0.45c0.598,0.023,1.197,0.046,1.795,0.069
		c0.475,0.018,0.955,0.068,1.424-0.012c0.042,0.717,0.083,1.429,0.13,2.121c-1.723-0.294-3.609-0.06-5.348-0.021
		c-0.366,0.008-0.367,0.561,0,0.57c1.752,0.039,3.654,0.279,5.386-0.025c0.091,1.211,0.206,2.367,0.388,3.418
		c-0.326-0.016-0.661,0.011-0.979,0.018c-0.598,0.012-1.197,0.023-1.795,0.035c-0.348,0.007-0.349,0.535,0,0.541
		c0.598,0.012,1.197,0.023,1.795,0.035c0.36,0.007,0.737,0.044,1.099,0.01c0.097,0.465,0.21,0.907,0.342,1.32
		c0.146,0.454,0.311,0.928,0.488,1.406c-0.022-0.008-0.036-0.026-0.061-0.029c-1.479-0.187-3.183,0.237-4.662,0.407
		c-0.32,0.037-0.337,0.53,0,0.513c1.507-0.076,3.288,0.062,4.736-0.375c0.071-0.021,0.114-0.062,0.147-0.107
		c0.392,1.008,0.854,2.022,1.436,2.923c-0.458-0.023-0.927,0.053-1.387,0.051c-0.749-0.004-1.49-0.091-2.225-0.235
		c-0.29-0.057-0.414,0.366-0.123,0.448c1.169,0.327,2.89,0.739,4.07,0.247c0.669,0.907,1.475,1.653,2.467,2.085
		c-0.118,0.004-0.236,0.01-0.353,0.013c-1.256,0.03-2.515,0.033-3.769,0.109c-0.312,0.019-0.312,0.466,0,0.485
		c1.254,0.076,2.513,0.079,3.769,0.109c0.825,0.019,1.662,0.092,2.485,0.034C48.671,55.132,48.009,55.781,47.282,56.331z"/>
</g>
<g>
</g>
<g>
</g>
<g>
</g>
<g>
</g>
<g>
</g>
<g>
</g>
<g>
</g>
<g>
</g>
<g>
</g>
<g>
</g>
<g>
</g>
<g>
</g>
<g>
</g>
<g>
</g>
<g>
</g>
</svg>
