<?xml version="1.0" encoding="iso-8859-1"?>
<!-- Generator: Adobe Illustrator 18.0.0, SVG Export Plug-In . SVG Version: 6.00 Build 0)  -->
<!DOCTYPE svg PUBLIC "-//W3C//DTD SVG 1.1//EN" "http://www.w3.org/Graphics/SVG/1.1/DTD/svg11.dtd">
<svg version="1.1" id="Capa_1" xmlns="http://www.w3.org/2000/svg" xmlns:xlink="http://www.w3.org/1999/xlink" x="0px" y="0px"
	 viewBox="0 0 58.837 58.837" style="enable-background:new 0 0 58.837 58.837;" xml:space="preserve">
<g>
	<path style="fill:#1D1D1B;" d="M54.572,15.691c-0.336-3.79-1.416-4.388-5.092-5.012C43.422,9.65,37.312,8.88,31.216,8.108
		c-0.196-0.025-0.353,0.041-0.473,0.151c-0.22-1.35-1.538-2.175-2.904-2.462c0.009-0.021,0.016-0.043,0.026-0.065
		c0.18-0.398,0.399-0.77,0.63-1.136c1.116-0.812,1.627-2.152,0.285-3.246c-1.863-1.518-5.265-1.677-7.432-0.873
		c-0.486,0.18-0.484,0.711-0.189,0.961c-0.381,0.681-0.198,1.829,0.453,2.488c0.133,0.135,0.283,0.249,0.429,0.367
		c0.201,0.388,0.383,0.785,0.534,1.206c0.08,0.225,0.137,0.458,0.189,0.693c-1.538,0.268-2.991,1.028-2.91,2.699
		C14.732,8.704,9.617,8.363,4.543,7.632C4.016,7.556,3.493,7.84,3.49,8.434C3.405,24.076,3.284,39.715,3.432,55.358
		c0.006,0.579,0.455,0.941,0.996,0.996c16.594,1.686,33.356,2.408,50.032,2.483c0.526,0.002,0.975-0.448,0.974-0.974
		C55.408,43.939,55.801,29.559,54.572,15.691z M22.611,1.801c0.249-0.032,0.397-0.235,0.399-0.435
		c0.741-0.083,1.481-0.108,2.247,0.026c0.803,0.141,3.41,0.647,2.296,1.806c-0.608,0.633-2.092,0.606-2.867,0.466
		c-0.512-0.092-0.987-0.253-1.43-0.535C23.07,3.011,21.774,1.908,22.611,1.801z M26.087,7.796c-0.664,0.344-1.476,0.34-1.979-0.271
		c-0.001-0.001-0.002,0-0.003-0.001c0.087-0.783-0.207-1.655-0.512-2.372c0.958,0.331,2.008,0.398,3.005,0.21
		c-0.065,0.128-0.119,0.261-0.174,0.394c-0.142,0.1-0.217,0.286-0.159,0.44C26.11,6.691,26.026,7.2,26.064,7.7
		C26.066,7.736,26.079,7.763,26.087,7.796z M22.944,7.019c0.073,0.314,0.156,0.623,0.298,0.907c0.129,0.26,0.462,0.273,0.67,0.121
		c0.636,0.766,1.867,1.011,2.605,0.243c0.02-0.02,0.015-0.044,0.028-0.066c0.232,0.026,0.482-0.093,0.589-0.379
		c0.129-0.342,0.232-0.689,0.339-1.035c0.534,0.223,1.052,0.477,1.414,0.913c1.471,1.772-0.86,2.471-2.39,2.73
		c-0.155-0.128-0.404-0.141-0.512,0.075c0,0,0,0.001,0,0.001c-0.118,0.015-0.227,0.028-0.317,0.037
		C24.539,10.68,23,10.86,22.092,10.011c-0.247-0.231-0.389-0.459-0.482-0.683c0.01-0.102-0.019-0.203-0.091-0.276
		C21.374,8.23,22.103,7.497,22.944,7.019z M25.558,12.201c-0.031,0.179-0.064,0.357-0.107,0.531
		c-0.141,0.566-0.323,1.115-0.525,1.658c-0.312-0.673-0.497-1.383-0.577-2.132C24.761,12.262,25.168,12.246,25.558,12.201z
		 M53.423,54.987c-0.501,2.115-0.873,1.639-2.818,1.901c-3.371,0.455-7.201-0.07-10.6-0.154c-6.419-0.16-12.847-0.399-19.252-0.869
		c-3.527-0.259-7.048-0.617-10.569-0.947c-4.609-0.432-4.79-0.935-4.858-5.426C5.124,36.131,4.993,22.76,5.146,9.397
		c4.993,0.768,9.874,0.975,14.896,0.426c0.545,1.578,2.002,2.23,3.561,2.392c0.018,1.05,0.244,2.05,0.667,3.006
		c-0.114,0.035-0.227,0.088-0.333,0.162c-0.586,0.408-0.545,1.331,0.084,1.671c1.177,0.637,2.823-1.161,1.85-2.143
		c0.246-0.557,0.463-1.125,0.606-1.721c0.085-0.352,0.171-0.751,0.222-1.152c1.68-0.296,3.516-0.931,3.971-2.663
		c0.086,0.097,0.193,0.175,0.347,0.2c5.771,0.929,11.552,1.795,17.348,2.556c2.63,0.345,4.143,0.49,4.909,3.16
		c-3.054-0.34-6.36,0.105-9.347,0.461c-0.308,0.037-0.32,0.519,0,0.492c3.165-0.266,6.358-0.007,9.51-0.193
		c0.114,0.791,0.05,1.719-0.031,2.622c-0.576-0.033-1.161,0.032-1.742,0.018c-1.003-0.025-1.992-0.132-2.98-0.301
		c-0.418-0.071-0.603,0.56-0.177,0.644c1.405,0.277,3.314,0.697,4.833,0.431c-0.028,0.357-0.05,0.703-0.048,1.018
		c0.011,2.306,0.025,4.613,0.038,6.919c-2.119-0.047-4.282,0.243-6.394,0.377c-0.413,0.026-0.418,0.668,0,0.647
		c2.115-0.108,4.294-0.077,6.398-0.357c0.006,0.986,0.01,1.972,0.016,2.957c0.001,0.147,0,0.294,0.001,0.441
		c-3.384,0.36-6.665,0.78-10.084,0.643c-0.314-0.013-0.309,0.464,0,0.485c3.332,0.228,6.819,0.223,10.085-0.585
		c0.004,1.303,0.005,2.605,0.005,3.908c-0.799,0.162-1.523,0.346-2.364,0.222c-0.267-0.039-0.389,0.363-0.114,0.414
		c0.789,0.145,1.714,0.157,2.478-0.168c0,1.223,0.005,2.447,0.005,3.67c-0.81,0.007-1.621,0.155-2.432,0.18
		c-0.894,0.028-1.78-0.021-2.669-0.119c-0.324-0.035-0.403,0.528-0.077,0.573c1.615,0.224,3.566,0.444,5.18-0.022
		c-0.001,1.061,0.005,2.122,0.004,3.182c-3.802-0.002-7.624,0.297-11.432,0.263c-0.283-0.002-0.278,0.418,0,0.436
		c3.727,0.24,7.677,0.464,11.432,0.057c-0.002,1.863-0.006,3.725,0,5.588c0.002,0.494,0.046,1.029,0.092,1.574
		c-4.217-0.201-8.679,0.375-12.856,0.746c-0.301,0.027-0.313,0.481,0,0.478c4.206-0.039,8.718,0.092,12.912-0.519
		C53.575,53.355,53.602,54.233,53.423,54.987z"/>
	<path style="fill:#1D1D1B;" d="M52.928,48.093c-2.568,0.034-5.075,0.464-7.663,0.362c-0.296-0.012-0.291,0.437,0,0.457
		c2.479,0.171,5.313,0.353,7.732-0.315C53.273,48.521,53.221,48.089,52.928,48.093z"/>
	<path style="fill:#1D1D1B;" d="M52.607,23.092c-2.326,0.145-4.681,0.586-7.009,0.82c-0.348,0.035-0.357,0.524,0,0.548
		c2.237,0.156,4.966,0.029,7.094-0.74C53.01,23.606,52.991,23.068,52.607,23.092z"/>
</g>
<g>
</g>
<g>
</g>
<g>
</g>
<g>
</g>
<g>
</g>
<g>
</g>
<g>
</g>
<g>
</g>
<g>
</g>
<g>
</g>
<g>
</g>
<g>
</g>
<g>
</g>
<g>
</g>
<g>
</g>
</svg>
