<?xml version="1.0" encoding="iso-8859-1"?>
<!-- Generator: Adobe Illustrator 18.0.0, SVG Export Plug-In . SVG Version: 6.00 Build 0)  -->
<!DOCTYPE svg PUBLIC "-//W3C//DTD SVG 1.1//EN" "http://www.w3.org/Graphics/SVG/1.1/DTD/svg11.dtd">
<svg version="1.1" id="Capa_1" xmlns="http://www.w3.org/2000/svg" xmlns:xlink="http://www.w3.org/1999/xlink" x="0px" y="0px"
	 viewBox="0 0 51.889 51.889" style="enable-background:new 0 0 51.889 51.889;" xml:space="preserve">
<g>
	<path style="fill:#1D1D1B;" d="M50.154,24.609c0.076-0.173,0.12-0.365,0.079-0.59C47.987,11.698,37.351,2.035,24.676,3.032
		c-0.071-0.248-0.124-0.501-0.141-0.761c-0.032-0.487,0.081-0.956,0.082-1.439c0.002-0.992-1.386-1.132-1.685-0.228
		c-0.267,0.808-0.103,1.759,0.224,2.597c-0.132,0.019-0.263,0.032-0.396,0.053C11.44,5.09-0.734,18.144,2.008,30.074
		c0.067,0.294,0.363,0.399,0.62,0.352c0.139,0.343,0.631,0.511,0.845,0.089c1.646-3.243,11.585-7.931,13.419-1.24
		c0.165,0.604,0.936,0.641,1.262,0.165c1.726-2.525,3.917-4.956,6.853-6.023c0.086,6.441,0.392,13.883,2.148,20.222
		c-0.291,3.308,0.998,7.861,4.745,8.225c4.349,0.422,5.718-4.57,4.511-7.866c-0.515-1.405-2.777-0.806-2.265,0.624
		c0.388,1.083,0.646,2.253,0.203,3.365c-0.443,1.111-1.732,2.032-2.924,1.363c-1.079-0.605-1.816-1.926-2.288-3.325
		c0.189-0.141,0.325-0.358,0.324-0.67c-0.029-7.299-1.77-15.134-2.905-22.361c3.859-0.641,7.822,1.583,8.821,5.476
		c0.155,0.602,1.06,0.924,1.49,0.393c3.007-3.717,7.598-4.936,12.037-2.988C49.792,26.264,50.577,25.231,50.154,24.609z
		 M44.474,15.098c-2.811-0.095-5.684,0.182-8.485,0.288c-0.225,0.009-0.227,0.356,0,0.352c2.886-0.061,5.861,0.058,8.74-0.234
		c0.526,0.839,1.013,1.707,1.446,2.61c-3.782-0.323-7.593-0.46-11.403-0.494c-0.584-1.302-1.285-2.561-2.063-3.781
		c3.551-0.131,7.103-0.205,10.67-0.274C43.759,14.062,44.129,14.57,44.474,15.098z M43.004,13.087
		c-3.536-0.094-7.09,0.008-10.635,0.243c-0.366-0.552-0.765-1.085-1.16-1.619c3.435-0.066,6.877-0.119,10.306-0.298
		C42.034,11.947,42.534,12.503,43.004,13.087z M41.007,10.908c-3.348,0.084-6.7,0.279-10.045,0.459
		c-0.381-0.504-0.778-0.995-1.179-1.482c3.041-0.243,6.08-0.501,9.112-0.781C39.632,9.662,40.34,10.262,41.007,10.908z
		 M36.187,7.375c0.72,0.392,1.424,0.811,2.094,1.281c-2.96,0.113-5.944,0.363-8.909,0.737c-0.5-0.59-1.022-1.153-1.544-1.716
		c2.68-0.332,5.502-0.031,8.16-0.109C36.123,7.564,36.186,7.471,36.187,7.375z M27.564,7.384c-0.388-0.413-0.78-0.82-1.174-1.219
		c2.318-0.117,4.623-0.1,6.946-0.08c0.819,0.297,1.614,0.643,2.382,1.037C33.182,6.822,30.163,6.866,27.564,7.384z M31.469,5.516
		c-1.822-0.01-3.65,0.107-5.459,0.276c-0.306-0.304-0.613-0.609-0.923-0.901C27.33,4.763,29.462,4.997,31.469,5.516z M16.446,25.42
		c-3.509-2.608-11.129,0.145-13.461,3.952C2.132,18.664,12.109,7.242,22.589,5.196C18.609,11.127,16.647,18.301,16.446,25.42z
		 M28.279,21.185c-4.361-0.019-7.956,2.736-10.389,6.141c-0.152-0.407-0.361-0.753-0.595-1.069
		c0.727-7.386,3.003-13.797,6.471-20.384c1.1,1.289,2.202,2.557,3.27,3.83c-1.195,0.177-2.386,0.364-3.561,0.577
		c-0.057,0.01-0.044,0.106,0.014,0.101c1.283-0.099,2.569-0.203,3.854-0.304c0.938,1.128,1.852,2.261,2.705,3.424
		c-2.197,0.179-4.389,0.398-6.566,0.651c-0.132,0.015-0.137,0.222,0,0.211c2.298-0.19,4.591-0.317,6.884-0.422
		c0.849,1.186,1.644,2.399,2.34,3.67c-2.243,0-4.485,0.026-6.717,0.067c-0.184,0.003-0.184,0.285,0,0.286
		c2.323,0.008,4.642,0.063,6.961,0.13c0.226,0.432,0.456,0.862,0.66,1.307c-4.406,0.116-8.806,0.445-13.13,0.96
		c-0.149,0.018-0.157,0.248,0,0.239c4.505-0.268,8.976-0.413,13.448-0.469c0.234,0.556,0.438,1.132,0.634,1.713
		c-0.856,0.044-1.711,0.09-2.566,0.138C30.861,21.478,29.607,21.191,28.279,21.185z M32.628,22.296
		c0.695-0.01,1.391-0.02,2.087-0.033c0.228,0.717,0.425,1.454,0.584,2.215C34.561,23.582,33.65,22.849,32.628,22.296z
		 M35.493,19.373c-0.148-0.412-0.33-0.812-0.501-1.216c3.79,0.126,7.577,0.278,11.371,0.387c0.182,0.397,0.365,0.794,0.528,1.202
		C43.124,19.44,39.31,19.327,35.493,19.373z M36.209,21.764c-0.13-0.552-0.277-1.1-0.45-1.64c3.752-0.028,7.507-0.008,11.289,0.062
		c0.149,0.391,0.279,0.791,0.412,1.189C43.711,21.45,39.958,21.585,36.209,21.764z M46.824,23.376
		c0.318-0.058,0.636-0.114,0.951-0.182c0.173-0.037,0.138-0.331-0.042-0.313c-1.025,0.101-2.042,0.2-3.058,0.294
		c-0.639-0.002-1.27,0.057-1.894,0.162c-2.004,0.159-4.01,0.271-6.048,0.256c-0.176-0.001-0.174,0.263,0,0.272
		c1.254,0.066,2.525,0.096,3.798,0.079c-1.38,0.547-2.673,1.371-3.813,2.471c0.002-0.022,0.012-0.038,0.012-0.062
		c0.015-1.407-0.146-2.78-0.429-4.124c3.774-0.082,7.55-0.208,11.316-0.396c0.192,0.609,0.366,1.225,0.513,1.852
		C47.696,23.552,47.26,23.458,46.824,23.376z"/>
</g>
<g>
</g>
<g>
</g>
<g>
</g>
<g>
</g>
<g>
</g>
<g>
</g>
<g>
</g>
<g>
</g>
<g>
</g>
<g>
</g>
<g>
</g>
<g>
</g>
<g>
</g>
<g>
</g>
<g>
</g>
</svg>
