<?xml version="1.0" encoding="iso-8859-1"?>
<!-- Generator: Adobe Illustrator 18.0.0, SVG Export Plug-In . SVG Version: 6.00 Build 0)  -->
<!DOCTYPE svg PUBLIC "-//W3C//DTD SVG 1.1//EN" "http://www.w3.org/Graphics/SVG/1.1/DTD/svg11.dtd">
<svg version="1.1" id="Capa_1" xmlns="http://www.w3.org/2000/svg" xmlns:xlink="http://www.w3.org/1999/xlink" x="0px" y="0px"
	 viewBox="0 0 51.942 51.942" style="enable-background:new 0 0 51.942 51.942;" xml:space="preserve">
<g>
	<path style="fill:#1D1D1B;" d="M50.868,1.237c-0.087-0.45-0.532-0.614-0.928-0.548c-0.004,0-0.006-0.003-0.01-0.003
		C33.967-1.226,17.994,3.423,1.947,2.059c-0.061-0.802-1.201-0.771-1.277,0.03C0.193,7.143,0.067,12.355,0.15,17.431
		c0.016,0.978-0.091,2.405,0.904,2.605c0.258,0.679,0.855,0.887,1.825,1.103c4.378,0.973,10.481-0.291,14.942-0.513
		c10.795-0.536,21.642-0.877,32.414-1.769c0.8-0.066,1.083-0.882,0.835-1.433C52.584,12.261,51.868,6.423,50.868,1.237z
		 M25.679,18.16c-3.929,0.212-7.859,0.411-11.787,0.658c-1.278,0.08-11.449,1.54-11.944,0.358c-0.084-0.201-0.276-0.318-0.472-0.349
		C1.267,16.3,1.85,5.95,1.943,2.862c15.588,2.693,31.749-0.488,47.481-0.194c0.154,1.534,0.226,3.067,0.269,4.599
		c-4.038,0.065-8.078,0.314-12.111,0.518c-0.35,0.018-0.355,0.551,0,0.549c4.042-0.03,8.095-0.016,12.134-0.187
		c0.017,0.814,0.03,1.629,0.041,2.443c-0.032-0.031-0.055-0.07-0.1-0.088c-2.272-0.885-5.155-0.542-7.491-0.076
		c-0.343,0.068-0.19,0.564,0.142,0.515c1.287-0.189,2.566-0.259,3.866-0.191c1.144,0.06,2.258,0.345,3.396,0.393
		c0.085,0.004,0.145-0.027,0.195-0.065c0.009,0.645,0.016,1.291,0.03,1.936c-4.601-0.107-9.301,0.482-13.875,0.801
		c-0.393,0.027-0.401,0.635,0,0.619c4.586-0.185,9.324-0.123,13.893-0.73c0.028,1.076,0.07,2.152,0.145,3.229
		C41.861,17.128,33.763,17.725,25.679,18.16z"/>
	<path style="fill:#1D1D1B;" d="M48.571,31.371c-7.36-1.673-15.231-0.761-22.677-0.176c-8.148,0.641-16.173,1.117-24.334,0.426
		c-0.142-0.012-0.252,0.044-0.33,0.13c-0.27,0.04-0.521,0.2-0.578,0.486c-1.039,5.234-0.631,11.523-0.181,16.82
		c-0.624,0.134-0.575,1.047,0.108,1.117c15.484,1.588,31.444,1.28,47.003,1.549c0.246,0.004,0.429-0.083,0.573-0.205
		c0.307-0.091,0.557-0.341,0.551-0.763c-0.086-5.952,0.087-12.034-0.528-17.958c0.067,0.002,0.132,0.003,0.199,0.005
		C49.192,32.833,49.378,31.554,48.571,31.371z M1.293,49.006c0.714-5.145,1.412-11.162,0.76-16.342
		c7.257,1.425,14.618,1.048,21.959,0.505c7.683-0.569,15.119-0.639,22.773-0.405c-0.086,1.415-0.119,2.838-0.128,4.264
		c-0.026-0.006-0.049-0.016-0.078-0.016c-4.218,0.022-8.44,0.428-12.663,0.492c-0.34,0.005-0.339,0.518,0,0.527
		c4.217,0.122,8.555,0.245,12.745-0.32c0,0.908-0.001,1.815,0.018,2.724c-0.034-0.016-0.06-0.044-0.101-0.045
		c-2.753-0.105-5.573,0.246-8.33,0.332c-0.326,0.01-0.326,0.496,0,0.506c2.752,0.091,5.689,0.239,8.411-0.237
		c0.014-0.003,0.017-0.015,0.029-0.019c0.022,0.889,0.05,1.779,0.082,2.668c-4.713-0.251-9.468-0.298-14.185-0.296
		c-0.401,0-0.395,0.596,0,0.619c4.722,0.268,9.485,0.49,14.216,0.503c0.026,0.692,0.051,1.384,0.079,2.075
		c-4.677-0.731-9.611-0.535-14.308-0.153c-0.236,0.019-0.243,0.377,0,0.373c4.803-0.085,9.542,0.333,14.331,0.458
		c0.001,0,0.002-0.001,0.004-0.001c0.035,0.882,0.069,1.762,0.098,2.64C31.881,49.334,16.413,48.282,1.293,49.006z"/>
	<path style="fill:#1D1D1B;" d="M45.644,34.215c-1.716-0.566-4.056-0.049-5.787,0.312c-0.253,0.053-0.14,0.415,0.105,0.38
		c1.067-0.155,2.134-0.242,3.212-0.238c0.826,0.003,1.654,0.134,2.47,0.001C45.891,34.629,45.845,34.281,45.644,34.215z"/>
	<path style="fill:#1D1D1B;" d="M48.917,5.001c-2.196-0.157-4.465,0.052-6.667,0.102c-0.412,0.009-0.412,0.631,0,0.64
		c2.201,0.049,4.47,0.259,6.667,0.102C49.459,5.806,49.46,5.04,48.917,5.001z"/>
</g>
<g>
</g>
<g>
</g>
<g>
</g>
<g>
</g>
<g>
</g>
<g>
</g>
<g>
</g>
<g>
</g>
<g>
</g>
<g>
</g>
<g>
</g>
<g>
</g>
<g>
</g>
<g>
</g>
<g>
</g>
</svg>
