<?xml version="1.0" encoding="iso-8859-1"?>
<!-- Generator: Adobe Illustrator 18.0.0, SVG Export Plug-In . SVG Version: 6.00 Build 0)  -->
<!DOCTYPE svg PUBLIC "-//W3C//DTD SVG 1.1//EN" "http://www.w3.org/Graphics/SVG/1.1/DTD/svg11.dtd">
<svg version="1.1" id="Capa_1" xmlns="http://www.w3.org/2000/svg" xmlns:xlink="http://www.w3.org/1999/xlink" x="0px" y="0px"
	 viewBox="0 0 55.469 55.469" style="enable-background:new 0 0 55.469 55.469;" xml:space="preserve">
<g>
	<path style="fill:#1D1D1B;" d="M54.431,49.566c-4.673,3.659-10.294,2.755-12.418-3.065c-0.645-1.767-0.621-3.729-0.897-5.57
		c-0.352-2.343-0.668-4.627-1.99-6.664c-2.264-3.49-6.259-4.85-10.165-4.08c2.41-3.951,2.369-9.417,0.135-13.821
		c-3.56-7.02-11.907-13.699-20.114-13.7c0.35-0.259,0.17-0.836-0.33-0.746c-18.983,3.412-3.268,37.826,13.986,33.004
		c2.336-0.653,4.132-1.908,5.448-3.511c0.058,0.009,0.118,0.015,0.184,0.004c13.772-2.272,8.322,12.744,13.894,19.116
		c3.54,4.048,9.74,4.048,13.137-0.097C55.81,49.815,55.053,49.079,54.431,49.566z M5.902,4.569c0.065,0.017,0.126,0.039,0.2,0.039
		c3.175-0.014,6.158,0.657,8.909,1.864c-1.064,3.212-2.707,5.864-4.847,8.042c-0.903-1.596-1.809-3.188-2.752-4.763
		C6.59,8.379,5.836,6.903,4.869,5.615C5.184,5.249,5.521,4.895,5.902,4.569z M3.923,6.914c0.701,1.214,1.561,2.355,2.33,3.515
		c1.058,1.595,2.147,3.165,3.244,4.731c-1.728,1.602-3.741,2.933-6.052,3.984C1.956,14.82,1.871,10.305,3.923,6.914z M28.502,25.07
		c-1.993-0.022-4.031,0.234-6.011,0.36c-0.291,0.018-0.296,0.468,0,0.457c1.961-0.073,3.988-0.033,5.95-0.241
		c-0.15,1.063-0.467,2.079-0.997,3.002c-1.978,0.01-4.006,0.37-5.964,0.586c-0.37,0.041-0.385,0.615,0,0.591
		c1.783-0.111,3.639-0.126,5.428-0.363c-0.838,1.099-2.024,2.031-3.635,2.706c-7.964,3.34-16.183-3.779-19.456-12.003
		c6.062-1.614,11.164-6.9,12.877-12.87C18.082,8.04,19.4,8.933,20.648,9.94c-1.136-0.025-2.264-0.085-3.407-0.276
		c-0.409-0.069-0.59,0.551-0.174,0.63c1.456,0.277,2.962,0.458,4.45,0.396c0.814,0.713,1.607,1.459,2.353,2.271
		c-1.572,0.001-3.149,0.073-4.714,0.099c-0.312,0.005-0.313,0.48,0,0.485c1.76,0.029,3.536,0.116,5.302,0.094
		c0.594,0.731,1.148,1.547,1.651,2.416c-1.318-0.001-2.638,0.058-3.953,0.086c-0.208,0.004-0.208,0.319,0,0.323
		c1.407,0.03,2.819,0.092,4.227,0.082c0.36,0.665,0.698,1.347,0.981,2.056c-2.715-0.168-5.513,0.05-8.208,0.085
		c-0.362,0.005-0.363,0.558,0,0.563c2.786,0.037,5.685,0.272,8.486,0.071c0.269,0.765,0.487,1.545,0.638,2.325
		c-1.928-0.015-3.877,0.107-5.791,0.136c-0.24,0.004-0.24,0.369,0,0.373c1.95,0.03,3.936,0.154,5.9,0.133
		C28.529,23.228,28.577,24.164,28.502,25.07z"/>
</g>
<g>
</g>
<g>
</g>
<g>
</g>
<g>
</g>
<g>
</g>
<g>
</g>
<g>
</g>
<g>
</g>
<g>
</g>
<g>
</g>
<g>
</g>
<g>
</g>
<g>
</g>
<g>
</g>
<g>
</g>
</svg>
