<?xml version="1.0" encoding="iso-8859-1"?>
<!-- Generator: Adobe Illustrator 18.0.0, SVG Export Plug-In . SVG Version: 6.00 Build 0)  -->
<!DOCTYPE svg PUBLIC "-//W3C//DTD SVG 1.1//EN" "http://www.w3.org/Graphics/SVG/1.1/DTD/svg11.dtd">
<svg version="1.1" id="Capa_1" xmlns="http://www.w3.org/2000/svg" xmlns:xlink="http://www.w3.org/1999/xlink" x="0px" y="0px"
	 viewBox="0 0 60.294 60.294" style="enable-background:new 0 0 60.294 60.294;" xml:space="preserve">
<g>
	<path style="fill:#1D1D1B;" d="M52.373,14.143c-1.983-1.437-4.148-1.489-6.284-0.96c2.729-3.441,3.038-8.581-0.939-11.582
		c-2.961-2.234-6.834-1.327-8.789,1.16c-1.468-1.937-4.085-3.172-6.434-2.634C27.32,0.722,25.409,3.25,25.13,5.79
		c-3.834-3.084-10.612-1.229-12.453,3.845c-1.183,3.262-0.066,7.044,2.498,9.338c0.96,0.858,2.171,1.504,3.403,1.745
		c-3.613,2.906-5.954,7.566-2.571,11.611c3.56,4.257,9.022,3.331,12.359-0.042c-0.902,4.129-1.596,8.743-1.361,13.148
		c-6.127-7.249-17.956-1.295-22.123,5.893c-0.384,0.663,0.336,1.439,0.955,1.285c6.377,4.534,19.569,5.669,21.529-3.963
		c0.794,4.564,2.859,8.689,7.105,11.51c0.805,0.535,1.699-0.662,1.022-1.325c-7.288-7.147-7.096-16.179-6.197-25.52
		c1.11,4.398,4.818,7.854,9.947,5.571c4.35-1.936,6.92-6.932,5.427-11.033c4.436,1.175,9.464-0.826,10.668-5.961
		C56.016,18.991,54.774,15.884,52.373,14.143z M25.859,46.755c-1.152,0.335-2.297,0.633-3.441,0.925
		c-0.115-0.105-0.263-0.168-0.412-0.177c-0.006-0.112-0.05-0.23-0.146-0.342c-0.596-0.698-1.506-1.153-2.265-1.657
		c-0.674-0.447-1.351-0.888-2.03-1.328C20.634,43.754,23.626,44.604,25.859,46.755z M15.242,44.72
		c0.458-0.161,0.918-0.289,1.378-0.392c0.014,0.019,0.024,0.039,0.044,0.056c0.764,0.649,1.534,1.29,2.308,1.928
		c0.698,0.575,1.399,1.316,2.232,1.683c-1.658,0.405-3.315,0.773-4.979,1.114c-0.093-0.081-0.211-0.123-0.339-0.118
		c-0.008-0.043-0.018-0.087-0.046-0.127c-0.461-0.664-1.317-0.977-2.026-1.331c-0.698-0.348-1.385-0.66-2.117-0.896
		C12.753,45.851,13.912,45.187,15.242,44.72z M11.097,47.099c0.656,0.575,1.363,1.015,2.118,1.46
		c0.481,0.283,0.995,0.642,1.539,0.841c-2.343,0.455-4.701,0.874-7.121,1.246C8.708,49.359,9.828,48.139,11.097,47.099z
		 M12.356,53.731c-1.952-0.416-3.857-1.092-5.692-1.904c0.19-0.236,0.382-0.468,0.573-0.701c0.051,0.089,0.125,0.164,0.242,0.166
		c2.193,0.037,4.434-0.109,6.673-0.401c-0.053,0.089-0.108,0.182-0.161,0.265c-0.547,0.853-1.087,1.709-1.63,2.564
		C12.358,53.724,12.359,53.727,12.356,53.731z M18.345,54.075c-1.574,0.178-3.132,0.119-4.665-0.109
		c0.467-0.66,0.933-1.319,1.4-1.979c0.3-0.424,0.707-0.894,0.999-1.39c1.562-0.264,3.114-0.604,4.644-0.999
		c-0.229,0.553-0.458,1.106-0.724,1.643c-0.474,0.959-1.03,1.873-1.532,2.815C18.425,54.061,18.388,54.07,18.345,54.075z
		 M19.749,53.806c0.406-0.561,0.789-1.136,1.137-1.735c0.54-0.93,1.06-1.9,1.431-2.917c1.249-0.363,2.484-0.753,3.68-1.196
		C23.953,50.335,23.049,52.897,19.749,53.806z M53.17,17.756c-3.049-0.021-6.102,0.028-9.153,0.134
		c-0.016-0.767-0.122-1.528-0.305-2.271c2.487-0.003,4.972-0.052,7.435-0.231C52.036,15.984,52.727,16.81,53.17,17.756z
		 M50.103,14.839c-1.428-0.032-2.859-0.03-4.293,0.002C47.247,14.472,48.719,14.321,50.103,14.839z M43.11,13.814
		c-0.31-0.7-0.696-1.364-1.141-1.984c0.767-0.09,1.531-0.196,2.29-0.325c0.234-0.04,0.183-0.447-0.057-0.419
		c-0.864,0.1-1.725,0.198-2.585,0.291c-0.64-0.801-1.391-1.504-2.221-2.088c2.241-0.11,4.471-0.292,6.611-0.709
		c0.197-0.038,0.139-0.326-0.046-0.336c-2.536-0.133-5.146,0.065-7.747,0.328c-0.392-0.2-0.794-0.38-1.213-0.523
		c0.192-0.385,0.32-0.773,0.402-1.16c3.06-0.099,6.12-0.244,9.157-0.493C47.215,9.253,45.535,12.014,43.11,13.814z M32.2,18.882
		c3.278-0.152,6.553-0.259,9.827-0.338c-0.062,0.705-0.218,1.392-0.454,2.051c-3.054,0.091-6.104,0.246-9.115,0.408
		c-0.161,0.009-0.164,0.253,0,0.253c2.928,0.002,5.877,0.032,8.827,0.039c-0.263,0.573-0.583,1.12-0.957,1.629
		c-3.957-0.219-7.922-0.322-11.875-0.364c-0.212-0.002-0.211,0.322,0,0.328c3.821,0.116,7.629,0.329,11.434,0.581
		c-0.615,0.721-1.325,1.363-2.119,1.872c-3.104-0.125-6.216-0.133-9.296-0.09c-3.265-2.123-4.997-6.187-3.566-10.162
		c1.552-4.31,5.121-5.835,9.127-6.446c0.254,0.084,0.502,0.192,0.753,0.29c-0.949,0.099-1.893,0.194-2.825,0.267
		c-0.25,0.02-0.254,0.41,0,0.394c1.299-0.081,2.623-0.126,3.956-0.17c1.201,0.58,2.332,1.304,3.283,2.196
		c-1.492,0.135-2.987,0.242-4.495,0.286c-0.238,0.007-0.239,0.375,0,0.37c1.641-0.032,3.292-0.096,4.937-0.221
		c0.806,0.849,1.464,1.819,1.883,2.922c-1.777,0.072-3.553,0.147-5.319,0.193c-0.283,0.008-0.285,0.443,0,0.441
		c1.835-0.017,3.682-0.005,5.531,0.003c0.201,0.704,0.319,1.452,0.32,2.252c0,0.034-0.004,0.067-0.005,0.1
		c-3.29,0.141-6.577,0.342-9.853,0.608C32.004,18.588,31.999,18.891,32.2,18.882z M42.964,27.213
		c0.298,0.704,0.454,1.439,0.49,2.178c-3.044-0.342-6.117-0.544-9.198-0.637c2.148-0.232,4.173-1.159,5.819-2.547
		c0.452,0.024,0.904,0.05,1.357,0.072C41.922,26.635,42.429,26.957,42.964,27.213z M45.635,4.284
		c0.341,0.511,0.585,1.026,0.759,1.539c-2.961,0.056-5.934,0.211-8.903,0.411c0.046-0.753-0.092-1.493-0.385-2.184
		c0.044-0.07,0.098-0.132,0.146-0.199c2.403-0.064,4.804-0.209,7.204-0.443c0.128-0.013,0.212-0.085,0.263-0.176
		C45.057,3.53,45.366,3.88,45.635,4.284z M44.113,2.779c-2.114,0.223-4.228,0.375-6.342,0.473
		C39.368,1.725,42.082,1.461,44.113,2.779z M26.751,5.287c0.357-1.914,1.842-3.281,3.742-3.617c1.704-0.301,3.396,0.264,4.438,1.673
		c-1.904,0.04-3.81,0.047-5.722-0.008c-0.264-0.008-0.261,0.393,0,0.408c2.021,0.113,4.041,0.144,6.059,0.13
		c0.081,0.151,0.153,0.302,0.214,0.453c-0.237,0.638-0.359,1.333-0.355,2.069c-1.225,0.089-2.449,0.182-3.668,0.274
		c-0.244,0.018-0.25,0.39,0,0.384c1.23-0.03,2.465-0.06,3.701-0.093c0.017,0.171,0.027,0.34,0.06,0.516
		c-2.804-0.171-5.509,0.29-7.724,1.494C26.883,7.841,26.499,6.637,26.751,5.287z M14.75,9.674c2.358-4.868,7.739-4.569,10.844-1.061
		c0.191,0.385,0.445,0.746,0.757,1.08c-1.979,1.45-3.418,3.638-3.912,6.725c-0.114,0.71-0.14,1.414-0.102,2.107
		c-0.539,0.206-1.081,0.462-1.615,0.755C16.293,20.131,12.918,13.456,14.75,9.674z M29.122,28.691
		c-3.233,0.017-6.463,0.129-9.664,0.302c-0.185,0.01-0.188,0.294,0,0.291c3.133-0.053,6.254-0.015,9.373,0.05
		c-0.464,0.547-0.984,1.071-1.559,1.544c-2.275-0.045-4.552,0.074-6.815,0.29c-0.216,0.021-0.221,0.36,0,0.342
		c2.105-0.166,4.208-0.217,6.315-0.242c-3.264,2.416-7.697,3.182-9.906-1.423c-2.188-4.563,2.587-7.277,5.675-9.741
		c0.759,3.511,3.347,6.514,6.713,7.897C29.198,28.228,29.163,28.46,29.122,28.691z M29.194,25.678
		c2.444,0.089,4.886,0.205,7.327,0.34c-1.39,0.61-2.926,0.863-4.472,0.614C31.024,26.467,30.065,26.138,29.194,25.678z
		 M38.436,36.973c-2.703,1.116-5.264,0.119-6.761-2.378c-0.414-0.691-0.672-1.404-0.832-2.13c3.975,0.105,8.047,0.324,12.012,0.068
		C42.053,34.455,40.492,36.124,38.436,36.973z M43.024,32.124c-4.039-0.275-8.189-0.046-12.241,0.06
		c-0.171-0.92-0.193-1.861-0.156-2.814c4.272,0.109,8.543,0.272,12.828,0.413C43.447,30.575,43.291,31.365,43.024,32.124z
		 M47.108,26.378c0.035-0.094,0.013-0.208-0.104-0.226c-0.917-0.135-1.839-0.248-2.764-0.349c-0.434-0.166-0.859-0.36-1.265-0.594
		c-0.286-0.285-0.603-0.558-0.952-0.816c-0.059-0.044-0.12-0.062-0.179-0.069c0.166-0.22,0.306-0.458,0.456-0.689
		c3.267,0.23,6.533,0.477,9.805,0.72C50.822,25.774,49.002,26.422,47.108,26.378z M53.523,21.787
		c-0.264,0.907-0.672,1.655-1.169,2.283c-0.03-0.039-0.073-0.068-0.132-0.076c-3.172-0.412-6.362-0.707-9.559-0.923
		c0.321-0.566,0.587-1.162,0.802-1.778c3.175-0.01,6.347-0.062,9.492-0.242c0.226-0.013,0.226-0.338,0-0.351
		c-3.061-0.186-6.163-0.211-9.269-0.155c0.131-0.493,0.238-0.994,0.291-1.509c0.019-0.179,0.021-0.358,0.029-0.537
		c3.135-0.065,6.27-0.105,9.411-0.123C53.785,19.463,53.854,20.651,53.523,21.787z"/>
	<path style="fill:#1D1D1B;" d="M40.956,34.408c-2.244,0.033-4.518,0.283-6.751,0.499c-0.189,0.018-0.196,0.309,0,0.3
		c2.241-0.105,4.526-0.184,6.751-0.471C41.158,34.71,41.174,34.404,40.956,34.408z"/>
</g>
<g>
</g>
<g>
</g>
<g>
</g>
<g>
</g>
<g>
</g>
<g>
</g>
<g>
</g>
<g>
</g>
<g>
</g>
<g>
</g>
<g>
</g>
<g>
</g>
<g>
</g>
<g>
</g>
<g>
</g>
</svg>
