<?xml version="1.0" encoding="iso-8859-1"?>
<!-- Generator: Adobe Illustrator 18.0.0, SVG Export Plug-In . SVG Version: 6.00 Build 0)  -->
<!DOCTYPE svg PUBLIC "-//W3C//DTD SVG 1.1//EN" "http://www.w3.org/Graphics/SVG/1.1/DTD/svg11.dtd">
<svg version="1.1" id="Capa_1" xmlns="http://www.w3.org/2000/svg" xmlns:xlink="http://www.w3.org/1999/xlink" x="0px" y="0px"
	 viewBox="0 0 64.902 64.902" style="enable-background:new 0 0 64.902 64.902;" xml:space="preserve">
<g>
	<path style="fill:#1D1D1B;" d="M57.479,49.648c-3.463-1.448-7.261-1.558-10.958-1.525c-2.653,0.024-5.552,0.344-8.178-0.215
		c-4.736-1.009-6.105-4.838-6.218-9.076c1.215-1.057,2.235-2.337,2.992-3.773c0.257-0.487,0.067-1.271-0.561-1.379
		c-1.118-0.191-2.467-0.608-3.726-0.719C43.771,20.176,25.562-7.867,8.741,2.84C0.456,8.114-2.539,20.624,2.376,29.029
		c5.484,9.377,16.247,9.167,25.326,6.177c-0.259,1.553-0.069,3.363-0.06,4.825c0.004,0.753,0.76,1.061,1.377,0.79
		c0.685-0.3,1.333-0.666,1.945-1.083c-0.461,5.233,1.459,9.21,7.522,10.212c3.808,0.63,7.694-0.035,11.528,0.19
		c6.641,0.39,16.056,4.642,11.852,12.909c-0.55,1.082,0.96,1.968,1.627,0.951C67.202,58.35,63.029,51.969,57.479,49.648z
		 M27.62,33.122c-0.011,0.008-0.017,0.018-0.027,0.026c-2.556,0.37-5.111,0.743-7.67,1.099c-0.093,0.013-0.072,0.177,0.022,0.166
		c2.439-0.289,4.878-0.562,7.318-0.837c-0.074,0.189-0.088,0.391-0.048,0.583c-7.09,1.327-15.453,2.111-20.852-3.456
		c-6.472-6.673-5.05-17.63,1.066-24.031c3.936-4.119,8.463-4.838,12.624-3.487c-1.7-0.044-3.404-0.008-5.094,0.09
		c-0.233,0.014-0.237,0.372,0,0.366c2.167-0.055,4.32,0,6.479,0.078c0.954,0.422,1.884,0.944,2.773,1.561
		c-3.206-0.378-6.622-0.173-9.755,0.235c-0.191,0.025-0.204,0.32,0,0.309c3.571-0.19,7.055,0.01,10.607,0.075
		c0.69,0.539,1.356,1.125,1.984,1.762c-3.781-0.08-7.573,0.081-11.342,0.354c-0.179,0.013-0.182,0.291,0,0.281
		c3.954-0.203,7.89-0.179,11.842-0.111c1.151,1.246,2.179,2.641,3.034,4.133c-0.031-0.03-0.069-0.055-0.125-0.057
		c-5.909-0.265-11.835-0.215-17.748-0.471c-0.145-0.006-0.143,0.215,0,0.225c5.884,0.4,11.849,0.819,17.748,0.63
		c0.164-0.005,0.208-0.162,0.156-0.274c0.55,0.966,1.034,1.968,1.43,2.996c-7.262-0.462-14.567-0.562-21.839-0.761
		c-0.185-0.005-0.183,0.277,0,0.286c7.328,0.38,14.68,0.865,22.019,0.972c0.195,0.546,0.373,1.096,0.52,1.651
		c-2.179,0.126-4.337,0.291-6.536,0.249c-0.2-0.004-0.197,0.297,0,0.309c2.184,0.137,4.464,0.192,6.665-0.042
		c0.157,0.67,0.283,1.343,0.363,2.016c-4.177,0.087-8.347,0.344-12.53,0.363c-0.238,0.001-0.238,0.365,0,0.37
		c4.167,0.093,8.421,0.144,12.581-0.237c0.064,0.721,0.089,1.44,0.056,2.153c-7.285,0.04-14.61,0.531-21.883,0.933
		c-0.123,0.007-0.125,0.194,0,0.192c7.275-0.134,14.608-0.185,21.868-0.68c-0.066,0.858-0.206,1.705-0.427,2.534
		c-4.804,0.149-9.662,0.623-14.431,1.105c-0.097,0.01-0.101,0.158,0,0.155c4.734-0.149,9.552-0.321,14.28-0.793
		c-0.221,0.719-0.489,1.426-0.84,2.107c-6.066,0.071-12.139,0.427-18.199,0.67c-0.135,0.005-0.136,0.214,0,0.211
		c5.981-0.124,11.981-0.142,17.958-0.428c-0.359,0.633-0.777,1.245-1.261,1.833c-5.151,0.476-10.272,1.071-15.448,1.319
		c-0.147,0.007-0.149,0.234,0,0.23c4.974-0.133,10.018-0.329,14.964-0.994C29.261,31.814,28.5,32.495,27.62,33.122z M29.449,38.487
		c-0.01-1.261-0.043-2.6-0.363-3.76c0.003-0.001,0.007-0.002,0.01-0.004c0.105-0.038,0.175-0.101,0.226-0.172
		c0.949,0.501,2.245,0.649,3.433,0.776c-0.141,0.204-0.297,0.392-0.449,0.585c-0.853,0.309-1.643,0.581-2.597,0.574
		c-0.263-0.002-0.261,0.396,0,0.408c0.644,0.028,1.324-0.044,1.957-0.242C31.008,37.349,30.274,37.967,29.449,38.487z"/>
	<path style="fill:#1D1D1B;" d="M28.459,9.955c-5.396-0.156-10.853,0.183-16.25,0.342c-0.168,0.005-0.17,0.263,0,0.262
		c5.398-0.027,10.862,0.122,16.25-0.22C28.704,10.324,28.708,9.963,28.459,9.955z"/>
</g>
<g>
</g>
<g>
</g>
<g>
</g>
<g>
</g>
<g>
</g>
<g>
</g>
<g>
</g>
<g>
</g>
<g>
</g>
<g>
</g>
<g>
</g>
<g>
</g>
<g>
</g>
<g>
</g>
<g>
</g>
</svg>
