<?xml version="1.0" encoding="iso-8859-1"?>
<!-- Generator: Adobe Illustrator 18.0.0, SVG Export Plug-In . SVG Version: 6.00 Build 0)  -->
<!DOCTYPE svg PUBLIC "-//W3C//DTD SVG 1.1//EN" "http://www.w3.org/Graphics/SVG/1.1/DTD/svg11.dtd">
<svg version="1.1" id="Capa_1" xmlns="http://www.w3.org/2000/svg" xmlns:xlink="http://www.w3.org/1999/xlink" x="0px" y="0px"
	 viewBox="0 0 68.135 68.135" style="enable-background:new 0 0 68.135 68.135;" xml:space="preserve">
<g>
	<path style="fill:#1D1D1B;" d="M66.548,50.868c-0.414-4.043-4.577-5.475-8.09-5.03c0.92-4.231-1.137-8.233-3.705-12.213
		c-5.073-7.862-14.611-22.772-25.563-22.718c1.713-4.028-0.291-9.66-4.73-10.759c-3.374-0.836-6.588,1.978-6.278,5.194
		c-1.994-2.759-5.83-5.462-8.809-2.781c-2.556,2.301-1.627,5.548,0.161,8.014c-4.137-1.007-9.525-0.102-7.545,4.804
		c1.914,4.743,7.572,7.009,12.278,5.515c-1.667,4.343-1.461,9.553,0.907,13.912c3.342,6.153,8.264,12.337,13.15,17.34
		c3.957,4.052,8.964,7.194,14.853,6.499c0.504-0.06,1.003-0.153,1.499-0.263c-1.66,2.867-1.114,6.833,1.784,8.802
		c1.707,1.16,3.847,1.375,5.479-0.023c1.39-1.19,1.935-2.956,1.998-4.734c1.61,3.059,5.961,4.129,8.82,1.597
		c1.723-1.526,2.432-3.878,1.669-6.077c-0.307-0.885-0.871-1.776-1.595-2.477C64.959,55.299,66.788,53.214,66.548,50.868z
		 M5.281,16.82c-1.748-1.849-2.531-4.364,0.628-5.253c1.604-0.451,3.111-0.318,4.573,0.163c0.377,0.407,0.768,0.78,1.157,1.099
		c0.349,0.286,0.735,0.07,0.804-0.254c0.009,0.005,0.019,0.009,0.029,0.014c0.309,0.165,0.686-0.262,0.392-0.508
		c-0.315-0.263-0.699-0.504-1.131-0.721c-1.614-2.093-3.448-4.837-1.716-7.338c2.723-3.93,6.454,1.064,8.246,2.99
		c0.167,0.18,0.387,0.151,0.536,0.028c0.419,0.219,1.104-0.181,0.921-0.731c-1.212-3.633,2.966-5.878,5.887-4.053
		c0.476,0.297,0.865,0.622,1.184,0.97c-2.033,0.216-4.074,0.619-6.081,0.933c-0.178,0.028-0.138,0.339,0.043,0.318
		c2.122-0.245,4.304-0.406,6.417-0.78c0.338,0.477,0.568,0.988,0.712,1.524c-2.559,0.115-5.201,0.656-7.662,1.249
		c-0.181,0.044-0.103,0.307,0.076,0.276c2.549-0.454,5.125-0.702,7.676-1.106c0.097,0.519,0.134,1.056,0.119,1.606
		c-1.545,0.179-3.086,0.486-4.62,0.734c-0.173,0.028-0.134,0.332,0.042,0.308c1.514-0.203,3.051-0.354,4.557-0.621
		c-0.037,0.555-0.111,1.119-0.202,1.683c-1.204,0.198-2.373,0.533-3.604,0.643c-0.186,0.017-0.192,0.304,0,0.295
		c1.143-0.053,2.416-0.146,3.534-0.518c-0.074,0.425-0.152,0.849-0.227,1.268c-1.045,0.148-2.099,0.425-3.164,0.876
		c-0.008,0.003-0.011,0.01-0.019,0.014c-0.726-1.136-1.078-2.433-1.106-3.796c-0.011-0.548-0.886-0.716-0.994-0.135
		c-0.308,1.65,0.119,3.184,1.09,4.481c-1.361,0.365-2.599,0.913-3.701,1.621c-1.398-1.008-2.527-2.268-3.373-3.781
		c-0.375-0.671-1.304-0.082-1.008,0.589c0.71,1.61,1.881,2.967,3.347,3.92c-0.737,0.584-1.4,1.245-1.993,1.963
		c-1.57-0.756-3.276-1.006-5.036-0.702c-0.632,0.109-0.486,1.152,0.152,1.119c1.452-0.077,2.856,0.07,4.225,0.468
		c-0.359,0.513-0.698,1.041-0.99,1.598c-0.009,0.002-0.016,0-0.025,0.003C11.567,20.376,7.765,19.447,5.281,16.82z M40.284,56.999
		c-9.4-0.898-16.558-12.721-21.374-19.741c-2.93-4.271-5.196-8.865-3.635-14.113c1.418-4.767,5.141-8.193,9.665-9.943
		c0.003-0.001,0.006,0,0.009-0.001c2.607-0.94,5.154-0.806,7.599,0.018c-2.281-0.002-4.603,0.338-6.818,0.796
		c-0.147,0.031-0.082,0.243,0.061,0.222c2.564-0.391,5.1-0.491,7.679-0.677c0.748,0.309,1.489,0.668,2.215,1.093
		c-3.722,0.138-7.478,0.658-11.175,0.98c-0.274,0.024-0.278,0.452,0,0.431c3.943-0.302,7.981-0.417,11.906-0.965
		c0.804,0.515,1.593,1.092,2.364,1.717c-4.34,0.099-8.842,0.681-12.996,1.68c-0.254,0.061-0.143,0.47,0.108,0.392
		c0.427-0.17,0.87-0.267,1.327-0.301c0.455-0.006,0.986-0.026,1.009-0.029c1.523-0.232,3.049-0.446,4.58-0.615
		c2.227-0.246,4.46-0.362,6.692-0.525c0.848,0.731,1.677,1.51,2.478,2.329c-4.492,0.456-8.982,0.988-13.46,1.57
		c-0.151,0.02-0.16,0.256,0,0.244c4.498-0.348,8.998-0.75,13.485-1.226c0.17-0.018,0.259-0.15,0.276-0.285
		c0.73,0.76,1.438,1.546,2.123,2.345c-4.898,0.446-9.814,1.379-14.664,2.156c-0.121,0.019-0.094,0.231,0.029,0.216
		c4.958-0.603,10.027-1.065,14.933-2.022c0.705,0.834,1.385,1.678,2.035,2.515c-6.228,0.478-12.469,1.372-18.518,2.937
		c-0.116,0.03-0.065,0.196,0.049,0.176c6.295-1.087,12.557-2.015,18.929-2.517c0.528,0.69,1.038,1.373,1.524,2.037
		c-4.262-0.002-8.797,1.064-12.987,1.666c-0.163,0.023-0.126,0.307,0.039,0.29c4.287-0.434,9.032-0.485,13.229-1.573
		c0.561,0.771,1.094,1.516,1.594,2.216c-5.778,0.324-11.582,1.127-17.324,1.821c-0.17,0.021-0.178,0.285,0,0.272
		c5.875-0.438,11.835-0.779,17.671-1.608c0.125,0.175,0.25,0.351,0.37,0.519c0.378,0.528,0.758,1.067,1.136,1.606
		c-5.392-0.155-11.186,0.934-16.448,2.021c-0.181,0.037-0.099,0.296,0.075,0.271c5.467-0.771,11.048-1.035,16.483-1.928
		c0.049-0.008,0.08-0.034,0.101-0.065c0.54,0.778,1.07,1.565,1.561,2.367c-3.823,0.445-7.609,1.163-11.453,1.507
		c-0.183,0.016-0.189,0.3,0,0.291c3.853-0.198,7.92-0.457,11.69-1.4c0.477,0.805,0.916,1.621,1.283,2.451
		c-5.166,0.127-10.482,1.115-15.49,2.237c-0.172,0.039-0.098,0.293,0.072,0.262c5.181-0.941,10.382-1.409,15.587-2.094
		c0.315,0.762,0.577,1.533,0.749,2.316c-6.109,0.124-12.426,1.516-18.212,3.299c-0.175,0.054-0.103,0.321,0.076,0.276
		c6.064-1.525,12.074-2.266,18.243-3.057c0.141,0.826,0.19,1.662,0.119,2.512c-5.057,0.494-10.12,1.48-15.156,2.166
		c-0.169,0.023-0.13,0.314,0.04,0.299c4.963-0.442,10.185-0.883,15.059-2.002c-0.077,0.569-0.195,1.141-0.388,1.721
		c-4.34,0.779-8.656,1.776-12.961,2.709c-0.181,0.039-0.103,0.309,0.076,0.276c4.224-0.781,8.482-1.511,12.682-2.432
		c-0.197,0.496-0.424,0.995-0.719,1.499c-0.25,0.429-0.533,0.844-0.829,1.253c-4.359,0.537-8.683,1.42-12.924,2.545
		c-0.181,0.048-0.105,0.323,0.077,0.28c4.128-0.958,8.268-1.68,12.45-2.304c-0.584,0.739-1.23,1.443-1.94,2.093
		c-3.147,0.698-6.271,1.673-9.349,2.625c-0.21,0.065-0.124,0.382,0.091,0.33c2.817-0.685,5.672-1.382,8.446-2.252
		C48.342,55.78,44.217,57.375,40.284,56.999z M64.621,52.354c-2.373,0.104-4.849,0.846-7.16,1.342
		c-0.251,0.054-0.141,0.42,0.105,0.38c2.237-0.365,4.691-0.587,6.866-1.286c-0.598,1.136-1.837,1.832-3.283,1.072
		c-0.386-0.203-0.726,0.028-0.834,0.337c-0.161-0.018-0.321-0.046-0.486-0.041c-0.619,0.019-0.873,0.855-0.319,1.179
		c0.544,0.319,1.073,0.599,1.554,0.918c-1.339,0.295-2.654,0.605-4.05,0.707c-0.214,0.016-0.219,0.346,0,0.338
		c1.496-0.06,3.09-0.218,4.545-0.68c0.541,0.439,0.991,0.977,1.275,1.771c0.248,0.692,0.289,1.402,0.165,2.081
		c-0.025-0.001-0.049-0.008-0.076,0.004c-1.217,0.53-2.382,1.041-3.687,1.32c-0.176,0.038-0.099,0.296,0.073,0.267
		c1.244-0.212,2.51-0.566,3.604-1.214c-0.194,0.686-0.561,1.329-1.091,1.868c-2.784,2.828-6.69,0.678-7.459-2.731
		c-0.125-0.555-0.981-0.467-1.038,0.064c-0.323-0.044-0.689,0.106-0.754,0.453c-0.291,1.558-0.196,3.311-1.138,4.665
		c-1.276,1.834-3.435,1.249-4.729-0.151c-1.738-1.88-2-4.897-0.587-7.014c0.712-0.227,1.405-0.518,2.088-0.836
		c-0.04,0.656-0.081,1.311-0.115,1.967c-0.045,0.869,1.395,0.87,1.35,0c-0.043-0.834-0.094-1.668-0.147-2.501
		c1.248-0.682,2.424-1.51,3.509-2.439c0.026,0.132,0.094,0.26,0.225,0.358c0.964,0.724,1.928,1.448,2.893,2.171
		c0.69,0.518,1.436-0.694,0.688-1.178c-1.007-0.651-2.014-1.302-3.021-1.952c-0.026-0.017-0.049-0.018-0.075-0.03
		c0.82-0.767,1.569-1.598,2.252-2.468c0.621,0.12,1.243,0.239,1.864,0.359c0.605,0.117,1.187,0.316,1.798,0.194
		c0.494-0.099,0.564-0.835,0.139-1.067c-0.539-0.295-1.17-0.269-1.773-0.336l-1.293-0.144c0.151-0.218,0.307-0.434,0.449-0.656
		c0.437-0.686,0.78-1.365,1.045-2.037c0.147,0.07,0.31,0.115,0.502,0.088c1.653-0.235,3.487-0.03,4.79,0.95
		c-1.77,0.115-3.56,0.534-5.306,0.818c-0.147,0.024-0.114,0.281,0.036,0.263c1.828-0.227,3.749-0.317,5.543-0.747
		c0.033-0.008,0.05-0.031,0.07-0.052c0.384,0.361,0.714,0.794,0.948,1.336c0.035,0.081,0.051,0.165,0.078,0.248
		c-1.403,0.213-2.82,0.579-4.18,0.928c-0.194,0.05-0.108,0.323,0.081,0.294c1.388-0.217,2.839-0.436,4.21-0.797
		C64.855,51.28,64.801,51.843,64.621,52.354z"/>
	<path style="fill:#1D1D1B;" d="M62.462,58.209c-1.342,0.349-2.547,0.871-3.946,1.038c-0.215,0.026-0.221,0.364,0,0.342
		c1.344-0.13,2.91-0.353,4.071-1.084C62.741,58.408,62.643,58.162,62.462,58.209z"/>
</g>
<g>
</g>
<g>
</g>
<g>
</g>
<g>
</g>
<g>
</g>
<g>
</g>
<g>
</g>
<g>
</g>
<g>
</g>
<g>
</g>
<g>
</g>
<g>
</g>
<g>
</g>
<g>
</g>
<g>
</g>
</svg>
