<?xml version="1.0" encoding="iso-8859-1"?>
<!-- Generator: Adobe Illustrator 18.0.0, SVG Export Plug-In . SVG Version: 6.00 Build 0)  -->
<!DOCTYPE svg PUBLIC "-//W3C//DTD SVG 1.1//EN" "http://www.w3.org/Graphics/SVG/1.1/DTD/svg11.dtd">
<svg version="1.1" id="Capa_1" xmlns="http://www.w3.org/2000/svg" xmlns:xlink="http://www.w3.org/1999/xlink" x="0px" y="0px"
	 viewBox="0 0 62.981 62.981" style="enable-background:new 0 0 62.981 62.981;" xml:space="preserve">
<g>
	<path style="fill:#1D1D1B;" d="M59.966,8.43c-3.083-3.775-7.134-0.777-10.352,1.32c-0.054-1.155-0.102-2.295-0.125-3.393
		c-0.015-0.733-0.73-0.99-1.248-0.782c-2.502-2.067-9.6-2.218-11.319-2.406c-7.338-0.803-16.621-1.344-23.193,2.724
		c-0.196-0.059-0.415-0.017-0.525,0.164c-0.455-0.032-0.718,0.531-0.391,0.899c0.009,0.157,0.052,0.307,0.135,0.438
		C12.871,7.89,12.801,8.393,12.736,8.9C9.813,6.731,5.295,4.521,2.213,7.712c-3.468,3.591-1.967,12.47-1.401,16.757
		c0.541,4.095,1.204,10.584,5.38,12.826c3.408,1.83,7.161-0.518,9.332-3.216c0.009,0.02,0.016,0.041,0.024,0.061
		c2.479,5.749,7.921,8.537,13.781,9.432c-0.564,0.972-0.701,2.139-0.951,3.242c-0.311,1.374-0.652,2.745-0.801,4.146
		c-2.528,0.062-9.841,0.067-8.958,4.492c0.369,1.85,2.214,2.361,3.732,2.831c3.403,1.052,7.347,1.488,10.901,1.8
		c3.171,0.278,13.437,1.378,13.647-3.703c0.163-3.965-5.595-4.886-8.797-4.937c-0.079-1.37-1.073-2.632-1.492-3.928
		c-0.396-1.225-0.528-2.494-0.777-3.742c5.184-0.561,9.733-3.058,11.944-8.114c2.573,2.513,6.5,5.759,9.93,3.665
		c4.392-2.681,5.009-10.199,5.2-14.725C63.107,19.894,63.12,12.292,59.966,8.43z M50.042,19.591
		c0.256-0.013,0.511-0.119,0.698-0.377c0.651-0.899,1.267-1.881,2.286-2.393c2.117-1.064,2.75,1.222,2.959,2.926
		c0.214,1.74-0.229,3.83-0.326,5.592c-0.029,0.524,0.076,1.297-0.096,1.801c-0.937,2.738-2.599,1.782-3.986,1.331
		c-0.446-0.145-0.912-0.4-1.388-0.392c-0.166-0.019-0.331-0.038-0.497-0.057C50.027,25.285,50.093,22.438,50.042,19.591z
		 M31.332,4.407c3.084,0.074,6.142,0.317,9.194,0.771c0.619,0.092,1.534,0.234,2.464,0.428c-2.781-0.008-5.599,0.256-8.313,0.589
		c-0.301,0.037-0.319,0.502,0,0.485c3.779-0.198,7.526-0.056,11.299-0.101c0.875,0.539,0.882,1.232-1.183,2.098
		c-0.038-0.012-0.076-0.024-0.122-0.026c-2.763-0.073-5.671,0.111-8.406,0.511c-0.331,0.049-0.228,0.544,0.076,0.559
		c1.778,0.092,3.618,0.073,5.437-0.035c-9.14,2.603-18.09,1.187-26.66-2.76C19.951,4.241,25.912,4.277,31.332,4.407z M13.469,27.559
		c-0.705,0.518-1.479,0.916-2.324,1.186c-1.677,0.555-2.528,0.112-2.553-1.327c-0.598-1.055-0.676-3.304-0.775-4.356
		c-0.11-1.17-0.143-2.346-0.119-3.521c0.017-0.783,0.062-1.565,0.135-2.344c1.92-2.13,3.343-2.242,4.268-0.335
		c0.056,0.075,0.125,0.12,0.191,0.172C12.341,20.579,12.71,24.165,13.469,27.559z M13.217,34.296
		c-2.823,1.62-7.137,0.163-8.643-2.654c-1.269-2.374-1.698-5.697-2.103-8.32c-0.453-2.931-0.629-5.944-0.487-8.908
		c0.173-3.62,2.23-7.439,6.746-5.916c1.228,0.414,2.336,1.311,3.399,2.019c0.143,0.095,0.279,0.128,0.409,0.134
		c-0.116,1.199-0.18,2.425-0.22,3.66c-1.182-1.216-2.687-2.081-4.448-1.308c-2.676,1.176-2.275,6.021-2.19,8.3
		c0.088,2.359,0.072,7.815,2.311,9.301c1.707,1.133,4.218-0.21,5.851-1.586c0.36,1.376,0.765,2.726,1.261,4.008
		C14.492,33.476,13.878,33.917,13.217,34.296z M35.87,51.044c-0.844-0.008-1.698,0.06-2.534,0.083c-0.289,0.008-0.29,0.442,0,0.45
		c0.988,0.028,2,0.112,2.991,0.064c0.084,0.09,0.166,0.182,0.259,0.26c-0.253,0.505-0.002,1.253,0.751,1.317
		c1.041,0.088,2.636,0.029,3.676,0.417c-2.101-0.179-4.28-0.082-6.349-0.11c-0.423-0.006-0.417,0.63,0,0.654
		c2.54,0.146,5.239,0.502,7.782,0.267c0.447,0.293,0.807,0.561,1.073,0.802c-2.934-0.124-5.954,0.054-8.849,0.197
		c-0.307,0.015-0.308,0.463,0,0.478c3.107,0.154,6.36,0.347,9.494,0.161c0.499,1.361-2.757,1.535-4.002,1.677
		c-3.404,0.389-6.77,0.152-10.156-0.357c-1.114-0.168-6.464-0.455-7.044-1.335c-1.554-2.356,3.12-3.393,4.783-4.087
		c0.429,0.432,1.364,0.345,1.565-0.374c0.387-1.389,0.517-2.835,0.696-4.263c0.149-1.183,0.481-2.467,0.248-3.65
		c0.743,0.088,1.489,0.153,2.236,0.184c0.627,0.026,1.247,0.02,1.864-0.004c-0.091,0.712-0.066,1.443,0.024,2.166
		c-0.459-0.001-0.918,0.008-1.376,0.014c-0.38,0.004-0.381,0.586,0,0.591c0.49,0.006,0.983,0.014,1.474,0.011
		c0.081,0.463,0.175,0.921,0.289,1.363c0.058,0.227,0.121,0.468,0.189,0.715c-0.762-0.026-1.523-0.007-2.285,0.008
		c-0.353,0.007-0.354,0.542,0,0.548c0.819,0.016,1.636,0.041,2.454,0.004C35.312,49.903,35.544,50.517,35.87,51.044z M43.669,19.539
		c0.838,0.031,1.675,0.063,2.513,0.095c0.594,0.022,1.205,0.093,1.799,0.037c-0.001,0.923-0.012,1.847-0.044,2.767
		c-1.872-0.278-4.061,0.216-5.93,0.376c-0.347,0.03-0.357,0.564,0,0.549c1.859-0.081,4.093,0.131,5.901-0.374
		c-0.054,1.255-0.136,2.501-0.275,3.715c-1.277-0.15-2.727-0.038-3.964,0.091c-0.289,0.03-0.289,0.42,0,0.45
		c1.211,0.126,2.627,0.235,3.883,0.099c-0.091,0.7-0.192,1.395-0.321,2.069c-1.966,0.093-3.918,0.35-5.896,0.378
		c-0.298,0.004-0.289,0.432,0,0.457c1.861,0.164,3.902,0.195,5.766-0.195c-0.169,0.79-0.364,1.562-0.597,2.303
		c-1.263-0.101-2.587-0.002-3.835,0.081c-0.321,0.021-0.321,0.478,0,0.499c1.177,0.078,2.423,0.171,3.62,0.098
		c-0.162,0.458-0.338,0.905-0.53,1.338c-2.387,0.128-4.679,0.634-7.102,0.556c-0.338-0.011-0.33,0.494,0,0.52
		c2.175,0.174,4.707,0.241,6.838-0.473c-0.492,1-1.074,1.922-1.766,2.743c-0.049-0.014-0.098-0.029-0.151-0.015
		c-0.398,0.103-0.743,0.29-1.161,0.32c-0.443,0.031-0.872-0.058-1.271-0.249c-0.262-0.125-0.472,0.162-0.355,0.362
		c-0.627,0.067-1.254,0.15-1.884,0.172c-1.177,0.041-2.322-0.082-3.485-0.266c-0.41-0.065-0.597,0.526-0.176,0.637
		c2.086,0.549,4.666,0.792,6.715-0.046c0.292,0.053,0.591,0.067,0.879,0.033c-2.187,2.06-5.265,3.28-9.588,3.217
		c-8.674-0.127-14.986-3.989-17.098-12.667c-1.709-7.021-1.952-14.137-2.041-21.306c5.691,3.816,12.854,5.452,19.651,5.144
		c2.886-0.131,10.764-0.762,13.973-3.4c0.021,0.862,0.05,1.758,0.08,2.674c-1.041-0.236-2.264,0.043-3.236,0.373
		c-0.374,0.127-0.224,0.702,0.165,0.597c0.556-0.151,1.113-0.252,1.69-0.284c0.469-0.026,0.936,0.021,1.403,0.003
		c0.025,0.75,0.05,1.504,0.072,2.276c-1.592-0.163-3.366,0.075-4.908,0.125c-0.344,0.011-0.344,0.523,0,0.534
		c1.551,0.051,3.333,0.291,4.93,0.123c0.025,0.979,0.045,1.965,0.049,2.959c-0.593-0.056-1.208,0.014-1.8,0.036
		c-0.838,0.031-1.675,0.063-2.513,0.095C43.429,19.175,43.428,19.53,43.669,19.539z M60.935,24.596
		c-0.016,0.286-0.035,0.593-0.056,0.911c-0.033-0.042-0.075-0.078-0.136-0.093c-0.739-0.184-1.653-0.082-2.408-0.017
		c-0.37,0.032-0.371,0.545,0,0.577c0.756,0.065,1.668,0.167,2.408-0.017c0.049-0.012,0.078-0.045,0.109-0.075
		c-0.051,0.723-0.116,1.5-0.21,2.305c-0.875,0.18-1.737,0.278-2.635,0.176c-0.331-0.038-0.401,0.51-0.078,0.58
		c0.889,0.193,1.771,0.196,2.624-0.044c-0.118,0.857-0.269,1.722-0.472,2.551c-1.011,0.279-1.995,0.346-2.998-0.051
		c-0.305-0.121-0.524,0.394-0.225,0.533c0.964,0.45,2.036,0.595,3.028,0.27c-0.232,0.787-0.515,1.526-0.871,2.164
		c-1.896-0.127-3.785,0-5.687-0.253c-0.313-0.042-0.384,0.491-0.075,0.552c1.691,0.334,3.567,0.636,5.318,0.42
		c-2.925,3.999-7.073,1.608-10.347-0.574c0.547-1.546,0.947-3.169,1.227-4.846c0.626,0.313,1.4,0.457,2.024,0.697
		c1.266,0.488,2.578,0.963,3.919,0.409c2.969-1.226,2.333-5.732,2.427-8.229c0.004-0.094,0.01-0.195,0.016-0.294
		c0.046,0.034,0.091,0.071,0.163,0.073c0.538,0.014,1.077,0.028,1.615,0.041c0.454,0.011,0.929,0.067,1.372-0.041
		C60.987,23.081,60.978,23.841,60.935,24.596z M59.617,21.675c-0.538,0.013-1.077,0.028-1.615,0.041
		c-0.058,0.001-0.09,0.035-0.131,0.058c0.204-2.567,0.766-6.143-2.183-7.087c-2.418-0.775-4.309,0.775-5.709,2.563
		c-0.066-1.77-0.162-3.525-0.253-5.244c0.007-0.004,0.013-0.003,0.02-0.007c0.837-0.507,3.44-2.616,4.394-2.721
		c1.915-0.21,4.078,1.115,5.203,2.749c-0.959-0.152-2.072,0.018-3.007,0.047c-0.357,0.011-0.358,0.544,0,0.556
		c1.051,0.033,2.338,0.265,3.363-0.01c0.151,0.298,0.269,0.601,0.339,0.903c0.116,0.499,0.201,1.006,0.293,1.511
		c-0.765-0.066-1.576,0.028-2.328,0.051c-0.344,0.01-0.344,0.524,0,0.534c0.792,0.024,1.65,0.127,2.449,0.038
		c0.143,0.865,0.261,1.735,0.347,2.609c-0.19,0.07-0.381,0.137-0.583,0.177c-0.404,0.08-0.802,0.077-1.209,0.026
		c-0.221-0.028-0.266,0.337-0.052,0.387c0.576,0.135,1.284,0.189,1.899,0.029c0.077,0.943,0.134,1.887,0.145,2.832
		C60.553,21.608,60.072,21.664,59.617,21.675z"/>
</g>
<g>
</g>
<g>
</g>
<g>
</g>
<g>
</g>
<g>
</g>
<g>
</g>
<g>
</g>
<g>
</g>
<g>
</g>
<g>
</g>
<g>
</g>
<g>
</g>
<g>
</g>
<g>
</g>
<g>
</g>
</svg>
