<?xml version="1.0" encoding="iso-8859-1"?>
<!-- Generator: Adobe Illustrator 18.0.0, SVG Export Plug-In . SVG Version: 6.00 Build 0)  -->
<!DOCTYPE svg PUBLIC "-//W3C//DTD SVG 1.1//EN" "http://www.w3.org/Graphics/SVG/1.1/DTD/svg11.dtd">
<svg version="1.1" id="Capa_1" xmlns="http://www.w3.org/2000/svg" xmlns:xlink="http://www.w3.org/1999/xlink" x="0px" y="0px"
	 viewBox="0 0 53.61 53.61" style="enable-background:new 0 0 53.61 53.61;" xml:space="preserve">
<g>
	<path style="fill:#1D1D1B;" d="M28.801,14.31c-1.023-3.924-7.899-12.458-12.456-8.884c-5.614-0.237-8.794,6.817-8.189,11.792
		c0.728,5.99,6.671,10.561,12.689,9.468C26.352,25.686,30.219,19.748,28.801,14.31z M19.522,24.782
		c-4.215,0.23-8.273-2.826-9.213-6.926c-0.869-3.791,1.085-10.169,5.46-11.234c0.176,0.354,0.628,0.587,1.069,0.373
		c4.589-2.218,10.18,5.844,10.257,9.521C27.183,20.706,23.716,24.554,19.522,24.782z"/>
	<path style="fill:#1D1D1B;" d="M51.202,51.428c-0.03-0.118-0.069-0.23-0.101-0.347c0.026-0.231,0.036-0.479,0.026-0.747
		c-0.012-0.331-0.195-0.533-0.422-0.616C47.531,39.653,39.734,32.32,31.96,25.45c3.298-4.688,4.44-10.79,2.126-16.3
		c-3.634-8.652-13.83-11.367-21.857-7.292c-0.216,0.11-0.329,0.268-0.38,0.439c-0.001,0-0.001,0-0.001,0
		C4.16,6.283,0.033,15.658,3.796,23.867C7.155,31.196,16.83,35.071,24.27,31.82c0.495-0.216,0.975-0.459,1.445-0.718
		c5.623,7.023,11.371,15.087,18.169,20.9c2,1.71,5.753,2.466,6.9,0.178C51.073,52.091,51.302,51.82,51.202,51.428z M21.857,30.606
		c-6.635,1.801-14.605-2.101-16.833-8.712c-2.332-6.92,1.237-14.843,7.16-18.719c0.23,0.173,0.54,0.248,0.868,0.093
		c4.733-2.234,10.098-1.778,14.135,0.799c-1.552-0.006-3.108,0.068-4.656,0.113c-0.115,0.003-0.115,0.175,0,0.178
		c1.738,0.051,3.487,0.131,5.228,0.1c0.781,0.556,1.511,1.188,2.162,1.907c-1.13,0-2.263,0.036-3.391,0.064
		c-0.115,0.003-0.115,0.175,0,0.178c1.221,0.03,2.447,0.074,3.671,0.063c0.614,0.724,1.162,1.519,1.619,2.39
		c-1.178-0.03-2.369,0.047-3.539,0.069c-0.178,0.003-0.178,0.273,0,0.276c1.239,0.024,2.503,0.105,3.748,0.059
		c0.28,0.582,0.535,1.184,0.735,1.825c-1.245,0.037-2.514,0.213-3.734,0.325c-0.177,0.016-0.184,0.286,0,0.281
		c1.267-0.033,2.591-0.011,3.871-0.133c0.057,0.21,0.132,0.408,0.18,0.623c0.105,0.468,0.17,0.942,0.216,1.417
		c-1.087-0.012-2.191,0.08-3.266,0.108c-0.136,0.004-0.136,0.207,0,0.211c1.089,0.029,2.208,0.122,3.308,0.107
		c0.039,0.628,0.032,1.259-0.013,1.89c-0.933,0.068-1.865,0.171-2.794,0.264c-0.188,0.019-0.195,0.311,0,0.3
		c0.919-0.051,1.842-0.094,2.761-0.169c-0.07,0.708-0.174,1.416-0.345,2.114c-1.056,0.088-2.103,0.183-3.177,0.146
		c-0.168-0.006-0.163,0.244,0,0.258c1.003,0.083,2.048,0.127,3.068,0.032c-0.228,0.83-0.518,1.648-0.876,2.441
		c-1.144-0.02-2.321,0.087-3.432,0.107c-0.199,0.004-0.199,0.306,0,0.309c1.031,0.018,2.116,0.107,3.181,0.105
		c-0.424,0.861-0.909,1.696-1.47,2.479c-1.337,0.17-2.67,0.423-3.991,0.663c-0.139,0.025-0.109,0.266,0.034,0.249
		c1.209-0.15,2.432-0.291,3.639-0.492c-0.496,0.65-1.03,1.27-1.609,1.841c-1.185,0.131-2.369,0.34-3.544,0.503
		c-0.078,0.011-0.06,0.146,0.019,0.138c1.045-0.099,2.104-0.166,3.153-0.28C26.191,28.756,24.116,29.992,21.857,30.606z
		 M41.329,46.512c-1.712-1.907-3.424-3.813-5.151-5.707c-3.157-3.465-6.405-6.832-9.692-10.171c1.587-0.981,2.998-2.208,4.214-3.596
		c0.998,0.891,1.985,1.796,2.964,2.71c-1.13,0.125-2.258,0.272-3.383,0.408c-0.138,0.017-0.143,0.234,0,0.22
		c1.223-0.114,2.452-0.217,3.676-0.35c0.738,0.692,1.473,1.386,2.199,2.09c-1.646,0.013-3.287,0.231-4.898,0.563
		c-0.104,0.021-0.059,0.176,0.044,0.158c1.723-0.296,3.43-0.387,5.163-0.42c0.595,0.581,1.205,1.149,1.784,1.743
		c-1.988,0.097-3.975,0.269-5.958,0.4c-0.14,0.009-0.142,0.227,0,0.22c2.084-0.098,4.178-0.156,6.262-0.298
		c0.622,0.645,1.243,1.291,1.841,1.954c-1.538,0.06-3.076,0.156-4.611,0.256c-0.116,0.008-0.119,0.186,0,0.183
		c1.62-0.037,3.242-0.076,4.861-0.16c0.683,0.764,1.354,1.538,1.997,2.331c-1.614,0.189-3.225,0.349-4.858,0.402
		c-0.105,0.003-0.106,0.164,0,0.164c1.701-0.004,3.412-0.067,5.105-0.268c0.562,0.704,1.111,1.419,1.635,2.15
		c-1.082,0.129-2.163,0.295-3.238,0.431c-0.146,0.018-0.152,0.249,0,0.234c1.151-0.113,2.316-0.192,3.472-0.32
		c0.473,0.671,0.937,1.348,1.373,2.044c-1.111,0.126-2.218,0.25-3.348,0.288c-0.127,0.004-0.127,0.192,0,0.197
		c1.163,0.048,2.384,0.034,3.569-0.113c0.375,0.612,0.757,1.219,1.1,1.852c-1.302,0.157-2.592,0.312-3.919,0.3
		c-0.142-0.001-0.141,0.215,0,0.22c1.349,0.055,2.74,0.035,4.08-0.211c0.471,0.886,0.917,1.789,1.32,2.722
		c-1.305,0.137-2.591,0.215-3.911,0.081c-0.151-0.015-0.188,0.247-0.036,0.267c1.359,0.183,2.73,0.215,4.077-0.031
		c0.164,0.39,0.332,0.778,0.484,1.177C47.456,54.388,42.124,47.398,41.329,46.512z"/>
</g>
<g>
</g>
<g>
</g>
<g>
</g>
<g>
</g>
<g>
</g>
<g>
</g>
<g>
</g>
<g>
</g>
<g>
</g>
<g>
</g>
<g>
</g>
<g>
</g>
<g>
</g>
<g>
</g>
<g>
</g>
</svg>
