<?xml version="1.0" encoding="iso-8859-1"?>
<!-- Generator: Adobe Illustrator 18.0.0, SVG Export Plug-In . SVG Version: 6.00 Build 0)  -->
<!DOCTYPE svg PUBLIC "-//W3C//DTD SVG 1.1//EN" "http://www.w3.org/Graphics/SVG/1.1/DTD/svg11.dtd">
<svg version="1.1" id="Capa_1" xmlns="http://www.w3.org/2000/svg" xmlns:xlink="http://www.w3.org/1999/xlink" x="0px" y="0px"
	 viewBox="0 0 65.985 65.985" style="enable-background:new 0 0 65.985 65.985;" xml:space="preserve">
<g>
	<path style="fill:#1D1D1B;" d="M65.389,32.193c-0.132-6.845,0.54-14.32-0.858-21.041c-0.063-0.304-0.372-0.439-0.653-0.407
		c-0.133-0.24-0.366-0.428-0.726-0.443C52.69,9.871,42.198,9.926,31.728,9.8C26.42,9.736,21.112,9.67,15.804,9.608
		c-4.235-0.05-9.177-0.743-13.256,0.536c-0.385,0.121-0.376,0.648,0,0.773c3.787,1.257,8.305,0.75,12.261,0.798
		c5.64,0.069,11.28,0.113,16.919,0.169c10.469,0.105,20.956,0.391,31.424,0.191c0.05-0.001,0.085-0.021,0.131-0.028
		c-0.162,1.098-0.261,2.214-0.333,3.337c-7.536-1.076-15.189-1.414-22.794-1.293c-0.226,0.004-0.227,0.348,0,0.352
		c7.631,0.131,15.17,0.734,22.756,1.499c-0.019,0.362-0.024,0.727-0.037,1.091c-1.64-0.054-3.367,0.173-5.032,0.387
		c-0.012-0.093-0.019-0.187-0.031-0.28c-0.022-0.165-0.116-0.271-0.235-0.336c-0.019-0.27-0.205-0.526-0.542-0.521
		c-4.704,0.071-9.062,0.35-13.745-0.348c-2.993-0.446-5.633-0.801-8.68-0.492c-4.667,0.474-9.068,1.698-13.822,1.471
		c-4.417-0.211-8.698-1.061-13.138-0.753c-0.068,0.005-0.122,0.027-0.178,0.046c-0.146-0.535-0.973-0.513-0.998,0.111
		C6.039,27.283,6.317,38.349,6.679,49.316c0.027,0.819,0.978,1.02,1.439,0.598c8.125,1.18,16.367,1.259,24.569,1.181
		c8.743-0.083,17.801,0.375,26.484-0.694c0.477-0.059,0.697-0.455,0.656-0.811c0.313-0.111,0.566-0.395,0.592-0.781
		c1.102-0.003,2.205,0.001,3.307-0.003c0.054,1.243,0.108,2.485,0.179,3.726c-9.782-0.449-19.756-0.389-29.507,0.474
		c-0.204,0.018-0.212,0.327,0,0.324c9.853-0.145,19.677-0.352,29.532-0.326c0.019,0.325,0.03,0.651,0.051,0.976
		c-0.09-0.056-0.19-0.098-0.31-0.099c-10.325-0.101-20.66,0.734-30.997,0.673c-10.084-0.06-20.147-0.707-30.225-0.867
		c0.209-14.159,0.928-28.79-0.485-42.87c-0.073-0.731-1.066-0.733-1.139,0c-1.414,14.29-0.628,29.147-0.411,43.5
		c0.01,0.69,0.572,1.004,1.101,0.964c0.055,0.017,0.102,0.044,0.164,0.052c10.566,1.268,21.335,1.334,31.965,1.26
		c10.011-0.071,20.275-0.016,30.204-1.412c0.078-0.011,0.141-0.04,0.199-0.072c0.005,0.073,0.007,0.146,0.013,0.218
		c0.086,1.223,1.943,1.254,1.927,0C65.884,47.613,65.537,39.903,65.389,32.193z M62.906,32.148
		c-1.496-0.103-3.011-0.122-4.527-0.113c-0.02-0.254-0.048-0.507-0.065-0.761c-0.039-0.559-0.065-1.119-0.084-1.68
		c1.651,0.022,3.301,0.019,4.946-0.021c0.036,0.881,0.067,1.756,0.085,2.621c0.017,0.802,0.041,1.606,0.062,2.409
		c-1.57-0.004-3.143,0.021-4.718,0.08c-0.069-0.695-0.121-1.392-0.179-2.088c1.5,0.008,2.999-0.011,4.479-0.113
		C63.12,32.466,63.12,32.162,62.906,32.148z M62.617,22.943c-0.644,0.135-2.447,0.155-4.446,0.132
		c-0.008-0.768-0.028-1.534-0.06-2.299c1.514,0.073,3.029,0.165,4.549,0.289c0.081,0.007,0.136-0.024,0.182-0.063
		c0.009,0.465,0.012,0.93,0.027,1.396c-0.032-0.014-0.064-0.027-0.097-0.041c-0.136-0.057-0.285,0.063-0.325,0.184l-0.036,0.111
		C62.355,22.82,62.479,22.925,62.617,22.943z M62.889,22.999c0.03,0.851,0.064,1.702,0.103,2.551c-1.601,0-3.205,0.031-4.809,0.077
		c0-0.668,0-1.337-0.005-2.004C59.964,23.692,61.741,23.62,62.889,22.999z M63.015,26.048c0.047,1.007,0.095,2.012,0.138,3.008
		c-1.643-0.039-3.29-0.043-4.938-0.021c-0.025-0.96-0.03-1.923-0.032-2.886C59.795,26.121,61.405,26.093,63.015,26.048z
		 M62.858,17.529c-0.027,1.013-0.039,2.03-0.025,3.051c-0.045-0.044-0.097-0.085-0.174-0.092c-1.524-0.148-3.049-0.251-4.574-0.328
		c-0.039-0.739-0.103-1.473-0.183-2.206C59.559,17.901,61.266,17.832,62.858,17.529z M33.668,49.209
		c-8.43-0.128-16.883-0.535-25.302-0.043C8.371,38.598,8.287,27.942,7.57,17.392c0.028,0.005,0.049,0.018,0.08,0.02
		c4.394,0.266,8.744,1.099,13.138,1.298c4.043,0.184,7.738-0.636,11.698-1.276c8.083-1.306,16.107,2.102,24.146,0.085
		c-0.004,0.016-0.006,0.033-0.009,0.048c-0.072,0.008-0.146,0.018-0.217,0.025c-0.261,0.028-0.273,0.431,0,0.417
		c0.044-0.002,0.09-0.003,0.134-0.005c-0.147,0.683-0.287,1.371-0.393,2.076c-5.164-0.16-10.328,0.07-15.477,0.673
		c-0.226,0.026-0.234,0.382,0,0.361c5.15-0.465,10.264-0.59,15.393-0.422c-0.103,0.77-0.188,1.549-0.25,2.338
		c-2.244-0.052-4.25-0.124-4.634-0.113c-3.751,0.105-7.503,0.215-11.253,0.376c-0.198,0.009-0.2,0.31,0,0.309
		c4.617-0.017,9.233-0.111,13.849-0.197c0.57-0.011,1.256,0.027,1.997,0.075c-0.05,0.738-0.085,1.481-0.102,2.231
		c-2.01,0.086-4.019,0.199-6.021,0.343c-0.128,0.009-0.131,0.203,0,0.202c2.002-0.016,4.006-0.037,6.01-0.064
		c-0.013,0.955-0.002,1.918,0.033,2.886c-1.431,0.032-2.861,0.069-4.286,0.103c-0.169,0.004-0.169,0.259,0,0.263
		c1.432,0.034,2.867,0.071,4.304,0.103c0.036,0.84,0.083,1.682,0.15,2.526c-1.24,0.033-2.478,0.072-3.704,0.109
		c-0.169,0.005-0.169,0.257,0,0.262c1.237,0.037,2.487,0.077,3.738,0.11c0.065,0.745,0.14,1.491,0.226,2.235
		c-1.157,0.055-2.312,0.113-3.463,0.171c-0.195,0.01-0.197,0.305,0,0.305c1.168,0,2.34,0.001,3.513-0.002
		c0.106,0.876,0.226,1.749,0.357,2.617c-1.712,0.077-3.423,0.17-5.121,0.227c-0.262,0.009-0.263,0.414,0,0.408
		c1.728-0.039,3.471-0.041,5.214-0.061c0.1,0.632,0.196,1.265,0.307,1.889c-4.272,0.133-8.54,0.538-12.77,1.077
		c-0.185,0.024-0.19,0.316,0,0.295c4.294-0.459,8.578-0.674,12.873-0.81c0.144,0.787,0.293,1.57,0.452,2.341
		c-6.617,0.137-13.204,0.651-19.793,1.498c-0.105,0.014-0.109,0.18,0,0.169c6.614-0.691,13.239-1.091,19.879-1.255
		c0.177,0.847,0.359,1.686,0.549,2.506c-5.741,0.18-11.483,0.509-17.221,0.384c-0.191-0.004-0.189,0.285,0,0.295
		c5.723,0.298,11.553,0.102,17.327-0.216c0.134,0.57,0.271,1.135,0.409,1.689c-7.575-0.013-15.152,0.006-22.726,0.098
		c-0.19,0.002-0.19,0.293,0,0.295c7.614,0.092,15.231,0.111,22.847,0.098c0.016,0.061,0.031,0.125,0.046,0.186
		C50.466,48.613,42.02,49.336,33.668,49.209z M58.667,35.248c1.56-0.021,3.117-0.074,4.669-0.155
		c0.024,0.906,0.045,1.811,0.07,2.717c-1.48-0.068-2.97-0.051-4.462-0.011C58.844,36.95,58.755,36.099,58.667,35.248z M59.014,38.4
		c1.473-0.043,2.943-0.109,4.397-0.258c0.001,0,0.002-0.001,0.003-0.002c0.02,0.744,0.037,1.488,0.057,2.232
		c-1.41-0.062-2.822-0.083-4.235-0.073C59.155,39.668,59.089,39.033,59.014,38.4z M59.309,40.834
		c1.389-0.036,2.779-0.067,4.171-0.095c0.023,0.832,0.038,1.663,0.064,2.495c-1.305-0.02-2.609-0.022-3.911-0.012
		C59.52,42.427,59.414,41.631,59.309,40.834z M59.692,43.629c1.287-0.022,2.575-0.043,3.863-0.048
		c0.026,0.827,0.045,1.654,0.075,2.481c-1.193,0.004-2.385,0.024-3.578,0.052C59.927,45.287,59.81,44.458,59.692,43.629z
		 M60.383,48.32c-0.093-0.6-0.18-1.2-0.27-1.801c1.179-0.07,2.354-0.141,3.525-0.215c0.025,0.673,0.037,1.346,0.066,2.019
		C62.597,48.319,61.49,48.323,60.383,48.32z"/>
	<path style="fill:#1D1D1B;" d="M20.912,35.925c-0.688-0.275-1.465-0.383-2.263-0.426c1.674-2.097,2.513-5.023,0.701-7.132
		c-2.356-2.744-5.389,1.689-2.789,2.415c0.364,0.101,0.768-0.342,0.524-0.682c-0.14-0.202-0.116-0.399,0.072-0.59
		c0.76,0.067,1.128,0.431,1.102,1.091c0.141,0.597-0.111,1.349-0.323,1.905c-0.515,1.352-1.554,2.456-2.897,3.013
		c-1.197,0.497-1.129,2.314,0.32,2.362c1.77,0.059,3.854,0.466,5.554-0.084C21.879,37.484,21.782,36.273,20.912,35.925z"/>
	<path style="fill:#1D1D1B;" d="M28.058,31.646c-0.748-0.43-1.472-0.095-2.262,0.055c-0.185,0.035-0.369,0.059-0.554,0.081
		c-0.33-0.711-0.671-1.414-0.975-2.141c-0.209-0.501-0.936-0.327-0.827,0.228c0.127,0.652,0.221,1.306,0.319,1.959
		c-0.199-0.01-0.399-0.024-0.6-0.045c-1.124-0.117-1.397,1.81-0.269,1.989c0.343,0.054,0.765,0.112,1.22,0.153
		c0.12,0.753,0.265,1.508,0.841,2.023c0.463,0.414,1.255,0.273,1.422-0.375c0.151-0.588,0.02-1.13-0.189-1.664
		c1.007-0.136,1.893-0.514,2.236-1.373C28.546,32.218,28.336,31.805,28.058,31.646z"/>
	<path style="fill:#1D1D1B;" d="M34.303,33.216c-0.079-1.799-0.083-3.6-0.104-5.4c-0.015-1.32-1.879-1.262-2.011,0
		c-0.201,1.926-0.277,3.85-0.277,5.786c0,1.635-0.115,3.236,0.571,4.738c0.37,0.809,1.594,0.524,1.812-0.237
		C34.743,36.539,34.373,34.828,34.303,33.216z"/>
	<path style="fill:#1D1D1B;" d="M40.934,30.422c-1.012,0.108-2.016,0.366-3.013,0.566c-0.495,0.1-0.78,0.688-0.653,1.15
		c0.147,0.534,0.649,0.73,1.15,0.653c0.918-0.141,1.875-0.222,2.776-0.447C42.237,32.085,42.053,30.303,40.934,30.422z"/>
	<path style="fill:#1D1D1B;" d="M41.666,34.318c-0.603-0.607-1.38-0.412-2.139-0.259c-0.762,0.154-1.468,0.403-2.153,0.772
		c-0.554,0.299-0.178,1.231,0.433,1.028c0.615-0.204,1.266-0.359,1.919-0.329c0.659,0.03,1.175,0.284,1.793-0.075
		C41.923,35.22,41.994,34.648,41.666,34.318z"/>
	<path style="fill:#1D1D1B;" d="M49.453,30.679c0.67-1.225,0.681-2.761-0.456-3.849c-1.47-1.407-4.342-1.005-4.957,1.039
		c-0.184,0.612,0.553,0.899,0.975,0.568c0.544-0.427,1.37-0.976,2.116-0.639c1.072,0.484,1.082,2.179-0.143,2.53
		c-1.152,0.33-0.952,2.144,0.287,2.119c1.648-0.033,3.455,1.704,2.166,3.334c-0.915,1.157-2.127,0.73-3.344,0.58
		c-0.955-0.118-1.379,1.237-0.761,1.836c2.048,1.985,5.792,0.246,6.623-2.198C52.705,33.805,51.397,31.572,49.453,30.679z"/>
</g>
<g>
</g>
<g>
</g>
<g>
</g>
<g>
</g>
<g>
</g>
<g>
</g>
<g>
</g>
<g>
</g>
<g>
</g>
<g>
</g>
<g>
</g>
<g>
</g>
<g>
</g>
<g>
</g>
<g>
</g>
</svg>
