<?xml version="1.0" encoding="iso-8859-1"?>
<!-- Generator: Adobe Illustrator 18.0.0, SVG Export Plug-In . SVG Version: 6.00 Build 0)  -->
<!DOCTYPE svg PUBLIC "-//W3C//DTD SVG 1.1//EN" "http://www.w3.org/Graphics/SVG/1.1/DTD/svg11.dtd">
<svg version="1.1" id="Capa_1" xmlns="http://www.w3.org/2000/svg" xmlns:xlink="http://www.w3.org/1999/xlink" x="0px" y="0px"
	 viewBox="0 0 59.639 59.639" style="enable-background:new 0 0 59.639 59.639;" xml:space="preserve">
<g>
	<path style="fill:#1D1D1B;" d="M46.755,8.358c-0.455-0.679-1.019-1.203-1.708-1.532c0.126-0.125,0.229-0.271,0.271-0.45
		c0.829-3.523-4.181-5.93-6.905-4.256c-0.997,0.613-1.631,1.617-1.892,2.715c-0.141-0.005-0.283-0.004-0.424-0.009
		c0.125-0.925-0.348-2.061-0.902-2.682c-1.214-1.361-3.095-1.632-4.652-0.685c-1.352,0.823-1.951,2.041-2.001,3.312
		c-0.494,0.004-0.986,0.007-1.479,0.012c0.34-0.953,0.003-2.256-0.569-3.042c-0.998-1.37-2.76-1.855-4.313-1.14
		c-1.708,0.787-2.415,2.446-2.306,4.081c-0.084-0.007-0.172-0.014-0.258-0.021c0.596-1.461-0.485-3.236-1.731-4.027
		c-1.379-0.876-3.153-0.849-4.487,0.103c-1.373,0.979-1.84,2.574-1.557,3.984c-1.138,0.264-2.144,0.721-2.897,1.477
		C8.937,6.143,8.933,6.087,8.926,6.032c-0.044-0.348-0.505-0.352-0.545,0C6.943,18.619,8.14,32.272,9.54,44.843
		c0.248,2.222,0.575,4.669,2.136,6.322c-0.048,0.07-0.081,0.153-0.076,0.26c0.09,1.935,0.894,3.176,2.113,3.951
		c-0.001,0.007-0.008,0.01-0.009,0.017c-0.238,1.973,0.476,2.83,2.393,3.484c4.15,1.415,10.408,0.473,14.683,0.224
		c4.61-0.269,9.466-0.606,13.987-1.602c2.447-0.539,4.21-1.503,5.259-3.881c1.548-3.507,1.243-8.166,1.457-11.891
		c0.308-5.357,0.387-10.74,0.294-16.105C51.698,20.945,53.36,9.449,46.755,8.358z M50.306,19.683
		c-0.534-0.041-1.076-0.004-1.611,0.017c0-0.904-0.012-1.877-0.051-2.868c0.476-0.118,0.935-0.139,1.415-0.137
		C50.184,17.665,50.264,18.671,50.306,19.683z M49.947,15.905c-0.451-0.025-0.907,0.062-1.333,0.229
		c-0.101-1.887-0.322-3.803-0.806-5.429C48.95,11.791,49.592,13.704,49.947,15.905z M46.428,12.679
		c-0.383-0.03-0.752-0.125-1.11-0.26c-0.317-0.119-0.528,0.391-0.23,0.546c0.434,0.227,0.955,0.416,1.474,0.466
		c0.147,0.928,0.258,1.908,0.337,2.907c-0.326,0.004-0.653,0.02-0.979,0.026c-0.3,0.006-0.297,0.448,0,0.464
		c0.338,0.019,0.678,0.047,1.018,0.063c0.072,1.045,0.116,2.096,0.141,3.108c-0.615-0.006-1.263,0.085-1.827,0.11
		c-0.303,0.013-0.304,0.458,0,0.471c0.569,0.025,1.222,0.117,1.841,0.11c0.025,1.352,0.026,2.615,0.03,3.657
		c-0.406,0.013-0.811,0.036-1.204,0.043c-0.371,0.006-0.372,0.57,0,0.577c0.394,0.007,0.801,0.03,1.208,0.043
		c0.004,0.535,0.012,0.996,0.029,1.353c0.043,0.877,0.08,1.755,0.116,2.633c-0.45-0.001-0.901,0.017-1.353,0.026
		c-0.416,0.008-0.417,0.639,0,0.647c0.462,0.009,0.923,0.027,1.383,0.026c0.048,1.248,0.088,2.496,0.114,3.745
		c-0.422,0.067-0.843,0.157-1.251,0.223c-0.321,0.051-0.25,0.612,0.078,0.573c0.386-0.046,0.789-0.073,1.189-0.118
		c0.016,1.005,0.025,2.01,0.018,3.015c-0.732-0.005-1.467,0.029-2.198,0.049c-0.04,0.001-0.065,0.021-0.09,0.04
		c0.064-9.762-0.315-19.541-0.918-29.274C45.339,8.689,46.01,10.481,46.428,12.679z M39.67,4.27
		c0.687-0.424,1.543-0.267,2.197,0.148c0.378,0.24,0.623,0.54,0.815,0.873c-1.212-0.149-2.437-0.252-3.667-0.331
		C39.175,4.692,39.381,4.449,39.67,4.27z M42.402,6.866c0.03,0.472,0.05,0.945,0.077,1.418c-0.931-0.167-1.986-0.073-2.892-0.049
		c-0.049,0.001-0.091,0.014-0.129,0.028c-0.31-0.334-0.544-0.759-0.669-1.227C39.999,7.014,41.205,6.965,42.402,6.866z
		 M31.427,4.222c0.473-0.676,1.385-1.059,1.982-0.292c0.188,0.242,0.244,0.54,0.285,0.848c-0.848-0.01-1.695-0.015-2.544-0.014
		C31.216,4.582,31.302,4.401,31.427,4.222z M22.816,3.141c0.556-0.443,1.252-0.535,1.699,0.114c0.342,0.497,0.136,1.006,0.137,1.543
		c-0.878,0.004-1.755,0.007-2.625,0C21.981,4.218,22.181,3.647,22.816,3.141z M14.894,2.659c0.705-0.455,1.495-0.44,2.11,0.17
		c0.474,0.47,0.539,1.091,0.728,1.684c-1.216-0.087-2.478-0.143-3.684-0.08C13.955,3.78,14.183,3.119,14.894,2.659z M12.255,49.103
		c-2.099-3.367-1.455-10.013-1.708-13.948C9.95,25.88,10.112,16.449,9.055,7.217C9.196,7.283,9.363,7.288,9.53,7.167
		c0.798-0.573,1.865-0.81,3.016-0.879c0.595,0.767,1.509,1.301,2.71,1.338c0.613,0.019,0.906-0.918,0.324-1.196
		c-0.038-0.018-0.073-0.041-0.11-0.06c0.99,0.081,1.938,0.182,2.719,0.204c0.742,0.021,1.485,0.032,2.227,0.051
		c0.547,1.049,1.474,1.899,2.742,2.21c0.638,0.156,1.077-0.61,0.633-1.087c-0.287-0.308-0.615-0.672-0.91-1.067
		c1.289,0.029,2.578,0.066,3.868,0.088c0.722,0.012,1.447,0.033,2.174,0.056c0.522,1.289,1.534,2.435,2.832,3.035
		c0.827,0.383,1.862-0.672,1.054-1.367c-0.493-0.424-0.997-0.976-1.347-1.583c1.676,0.06,3.358,0.118,5.035,0.134
		c0.245,1.129,0.893,2.152,1.965,2.744c0.65,0.359,1.359-0.204,1.359-0.811c0.866,0.073,1.827,0.178,2.698,0.052
		c0.056,1.014,0.117,2.029,0.166,3.043c-0.009-0.004-0.012-0.013-0.022-0.016c-0.471-0.152-0.974-0.093-1.463-0.081
		c-0.539,0.013-1.077,0.039-1.615,0.066c-0.384,0.019-0.385,0.578,0,0.598c0.539,0.027,1.076,0.053,1.615,0.067
		c0.49,0.012,0.991,0.072,1.463-0.081c0.02-0.006,0.028-0.023,0.045-0.032c0.057,1.235,0.114,2.47,0.163,3.705
		c-0.885-0.249-1.87,0.179-2.497,0.833c-0.137,0.143,0.067,0.338,0.214,0.214c0.688-0.579,1.497-0.558,2.309-0.397
		c0.036,0.912,0.078,1.823,0.11,2.734c-0.997-0.169-2.055,0.234-2.885,0.769c-0.299,0.193-0.034,0.653,0.28,0.48
		c0.851-0.47,1.701-0.538,2.626-0.644c0.038,1.151,0.091,2.301,0.121,3.452c-0.835-0.097-1.733,0.028-2.564,0.065
		c-0.262,0.012-0.263,0.396,0,0.408c0.836,0.037,1.739,0.163,2.577,0.064c0.026,1.053,0.055,2.107,0.074,3.161
		c-0.87-0.13-1.777-0.03-2.651,0.003c-0.303,0.011-0.304,0.46,0,0.471c0.878,0.033,1.789,0.134,2.662,0.002
		c0.038,2.329,0.058,4.658,0.058,6.989c0,0.722-0.005,1.445-0.006,2.167c-0.244,0.025-0.488,0.072-0.735,0.109
		c-0.572,0.085-1.143,0.182-1.714,0.276c-0.306,0.05-0.238,0.579,0.074,0.545c0.575-0.062,1.151-0.121,1.725-0.191
		c0.217-0.027,0.434-0.046,0.648-0.077c-0.002,0.963,0,1.925-0.008,2.888c-0.001,0.148,0.007,0.32,0.01,0.479
		c-1.042-0.193-2.114,0.002-3.113,0.346c-0.267,0.092-0.16,0.502,0.118,0.427c0.998-0.271,1.988-0.271,3.005-0.296
		c0.044,1.129,0.148,2.453,0.139,3.721c-1.098-0.043-2.239,0.171-3.273,0.438c-0.356,0.092-0.205,0.627,0.152,0.549
		c1.048-0.23,2.06-0.243,3.098-0.274c-0.039,0.827-0.138,1.611-0.365,2.26c-0.549,0.05-1.093,0.178-1.639,0.257
		c-0.943,0.137-1.886,0.227-2.836,0.286c-0.255,0.016-0.26,0.404,0,0.401c1.282-0.017,2.819,0.026,4.149-0.279
		c-2.134,3.245-11.54,2.446-14.502,2.499C24.594,51.499,14.475,52.666,12.255,49.103z M12.881,52.119
		c3.737,2.198,10.426,1.058,14.408,0.998c4.26-0.064,10.792,0.776,14.773-1.043c2.748-1.256,2.85-3.989,2.943-6.689
		c0.09-2.637,0.135-5.276,0.155-7.917c0.025,0.02,0.051,0.04,0.092,0.041c0.73,0.02,1.465,0.053,2.197,0.049
		c-0.018,1.622-0.062,3.244-0.172,4.864c-0.545-0.03-1.087-0.103-1.643-0.261c-0.267-0.076-0.374,0.327-0.114,0.413
		c0.55,0.184,1.133,0.327,1.721,0.392c-0.008,0.113-0.013,0.227-0.022,0.34c-0.099,1.233-0.181,2.619-0.429,3.95
		c-0.395,0.076-0.795,0.125-1.205,0.13c-0.385,0.004-0.384,0.584,0,0.598c0.362,0.013,0.716-0.013,1.065-0.056
		c-0.204,0.852-0.493,1.665-0.93,2.378c-2.348,3.837-7.518,3.359-11.371,3.684C30.034,54.355,15.818,57.152,12.881,52.119z
		 M47.965,52.487c-0.351,0.007-0.702,0.028-1.046,0.036c-0.199,0.004-0.199,0.305,0,0.309c0.276,0.006,0.556,0.02,0.836,0.03
		c-0.828,1.347-2.092,2.432-4.079,3.154c-3.024,1.1-6.918,1.147-10.071,1.42c-2.716,0.235-17.889,2.155-19.17-1.675
		c3.689,1.644,10.035,0.167,13.268-0.042c6.32-0.409,17.122,1.64,20.117-5.736c0.143-0.353,0.258-0.714,0.366-1.076
		c0.04,0.013,0.082,0.026,0.13,0.006c0.268-0.112,0.533-0.177,0.8-0.221C48.895,50.081,48.567,51.37,47.965,52.487z M49.399,46.453
		c-0.052,0.563-0.11,1.113-0.182,1.648c-0.306,0.057-0.602,0.162-0.891,0.291c0.083-0.327,0.166-0.655,0.227-0.988
		c0.07-0.03,0.142-0.053,0.212-0.085c0.316-0.148,0.166-0.551-0.107-0.624c0.161-1.143,0.211-2.308,0.229-3.47
		c0.267-0.058,0.53-0.131,0.789-0.215C49.591,44.158,49.504,45.306,49.399,46.453z M49.726,42.383
		c-0.216,0.03-0.43,0.072-0.641,0.135c-0.039-0.051-0.091-0.09-0.169-0.089c-0.007,0-0.013,0-0.019,0
		c0.003-0.974-0.008-1.943-0.003-2.889c0.001-0.263,0.003-0.526,0.005-0.789c0.356,0.087,0.717,0.08,1.053-0.049
		C49.888,39.93,49.814,41.157,49.726,42.383z M49.979,38.115c-0.361,0.135-0.708,0.199-1.076,0.126
		c0.008-1.315,0.016-2.629,0.019-3.944c0.401,0.026,0.801,0.042,1.199,0.003C50.083,35.572,50.041,36.844,49.979,38.115z
		 M50.142,33.722c-0.406-0.042-0.813-0.024-1.221,0.002c0.002-1.24-0.006-2.479-0.02-3.719c0.37,0.023,0.742,0.034,1.098-0.036
		c0.116-0.023,0.172-0.116,0.195-0.219C50.187,31.074,50.178,32.398,50.142,33.722z M50.211,28.465
		c0.001,0.382-0.013,0.764-0.015,1.146c-0.021-0.105-0.079-0.201-0.197-0.225c-0.357-0.071-0.73-0.059-1.101-0.036
		c-0.021-1.44-0.059-2.879-0.121-4.32c0.531-0.01,1.047-0.119,1.537-0.376C50.27,26.214,50.207,27.559,50.211,28.465z
		 M50.328,24.022c-0.051-0.014-0.106-0.02-0.168-0.001c-0.466,0.139-0.934,0.251-1.409,0.308c-0.01-0.263-0.016-0.526-0.031-0.789
		c-0.044-0.793-0.03-1.92-0.026-3.219c0.543,0.021,1.094,0.059,1.636,0.014C50.366,21.605,50.355,22.862,50.328,24.022z"/>
	<path style="fill:#1D1D1B;" d="M34.918,12.798c-7.064-0.755-14.579-0.445-21.664,0.006c-0.374,0.024-0.372,0.553,0,0.58
		c7.075,0.521,14.597,0.908,21.664,0.223C35.439,13.556,35.436,12.854,34.918,12.798z"/>
	<path style="fill:#1D1D1B;" d="M34.252,17.422c-6.494-0.561-13.163-0.338-19.667-0.009c-0.339,0.017-0.34,0.51,0,0.527
		c6.504,0.329,13.172,0.552,19.667-0.009C34.579,17.904,34.58,17.451,34.252,17.422z"/>
	<path style="fill:#1D1D1B;" d="M35.571,21.363c-6.964-0.01-14.016,0.754-20.991,0.982c-0.296,0.01-0.292,0.437,0,0.457
		c6.883,0.466,14.302,0.72,21.122-0.472C36.258,22.233,36.113,21.364,35.571,21.363z"/>
	<path style="fill:#1D1D1B;" d="M37.582,27.439c-7.559,0.58-15.078,1.271-22.663,1.486c-0.136,0.004-0.136,0.207,0,0.211
		c7.539,0.228,15.158,0.215,22.663-0.625C38.254,28.436,38.279,27.386,37.582,27.439z"/>
	<path style="fill:#1D1D1B;" d="M36.251,33.399c-6.858-0.477-13.806-0.146-20.683-0.414c-0.344-0.013-0.332,0.495,0,0.527
		c6.802,0.659,13.85,1.447,20.683,0.941C36.928,34.403,36.931,33.446,36.251,33.399z"/>
	<path style="fill:#1D1D1B;" d="M36.071,39.445c-6.582-1.075-13.888-0.657-20.495,0.006c-0.485,0.049-0.508,0.77,0,0.773
		c6.741,0.041,13.624,0.591,20.343,0.343C36.53,40.545,36.736,39.554,36.071,39.445z"/>
	<path style="fill:#1D1D1B;" d="M36.249,43.78c-6.216-0.655-12.861,1.444-18.976,0.041c-0.431-0.099-0.603,0.526-0.182,0.661
		c2.891,0.925,6.004,0.599,9.002,0.592c3.41-0.008,6.907,0.164,10.282-0.362C36.945,44.624,36.736,43.832,36.249,43.78z"/>
	<path style="fill:#1D1D1B;" d="M42.877,32.501c-0.867,0.131-1.66,0.354-2.546,0.216c-0.345-0.054-0.503,0.457-0.148,0.536
		c0.94,0.209,2.053,0.248,2.875-0.321C43.286,32.773,43.14,32.461,42.877,32.501z"/>
</g>
<g>
</g>
<g>
</g>
<g>
</g>
<g>
</g>
<g>
</g>
<g>
</g>
<g>
</g>
<g>
</g>
<g>
</g>
<g>
</g>
<g>
</g>
<g>
</g>
<g>
</g>
<g>
</g>
<g>
</g>
</svg>
