<?xml version="1.0" encoding="iso-8859-1"?>
<!-- Generator: Adobe Illustrator 18.0.0, SVG Export Plug-In . SVG Version: 6.00 Build 0)  -->
<!DOCTYPE svg PUBLIC "-//W3C//DTD SVG 1.1//EN" "http://www.w3.org/Graphics/SVG/1.1/DTD/svg11.dtd">
<svg version="1.1" id="Capa_1" xmlns="http://www.w3.org/2000/svg" xmlns:xlink="http://www.w3.org/1999/xlink" x="0px" y="0px"
	 viewBox="0 0 53.604 53.604" style="enable-background:new 0 0 53.604 53.604;" xml:space="preserve">
<g>
	<path style="fill:#1D1D1B;" d="M49.652,49.659c-1.922-12.722-3.223-25.43-4.742-38.195c-0.041-0.341-0.246-0.564-0.493-0.676
		c0.095-0.018,0.193-0.035,0.288-0.054c0.651-0.125,0.507-1.198-0.157-1.16c-5.152,0.291-10.296,0.686-15.447,0.987
		c-0.098-2.874-1.55-5.737-3.244-8.096c0.343-0.287,0.484-0.797,0.059-1.211c-2.184-2.129-5.497-1.34-7.388,0.817
		c-2.152,2.455-1.713,5.883-0.703,8.824c-3.952,0.01-7.913,0.018-11.789,0.442c-0.65,0.071-0.945,1.126-0.17,1.257
		c4.545,0.767,9.358,1.026,14.235,0.938c0.32,3.123,1.434,6.222,3.031,8.77c-0.269,0.258-0.323,0.771-0.067,1.095
		c1.63,2.059,4.717,0.844,5.999-1.028c4.889,0.077,9.823-0.003,14.657-0.509c0.071,0.93,0.146,1.86,0.234,2.791
		c-8.14-0.038-16.313,0.399-24.432,0.899c-0.221,0.014-0.224,0.356,0,0.347c8.162-0.321,16.33-0.402,24.492-0.678
		c0.11,1.12,0.221,2.24,0.353,3.36c-5.364,0.068-10.734,0.253-16.095,0.436c-0.271,0.009-0.273,0.425,0,0.422
		c5.385-0.054,10.78-0.105,16.164-0.276c0.076,0.631,0.139,1.264,0.223,1.894c-8.118,0.17-16.285,0.265-24.387,0.795
		c-0.111,0.007-0.113,0.171,0,0.173c8.142,0.158,16.33-0.125,24.471-0.327c0.362,2.667,0.779,5.327,1.254,7.966
		c-3.967-0.202-8.017,0.042-11.975,0.103c-0.232,0.004-0.233,0.357,0,0.361c3.992,0.061,8.079,0.308,12.079,0.096
		c0.141,0.769,0.277,1.54,0.426,2.305c-8.42-0.196-16.85,0.033-25.254,0.569c-0.161,0.01-0.164,0.259,0,0.253
		c8.453-0.314,16.893-0.383,25.35-0.339c0.146,0.74,0.286,1.484,0.44,2.219c-8.008-0.408-16.071,0.019-24.044,0.802
		c-0.169,0.017-0.173,0.28,0,0.267c8.06-0.583,16.074-0.611,24.148-0.573c0.147,0.697,0.287,1.399,0.441,2.092
		c-11.774-0.81-23.631-0.512-35.336,1.019c-0.142,0.019-0.15,0.242,0,0.23c11.833-0.993,23.6-1.26,35.46-0.683
		c0.106,0.472,0.204,0.951,0.313,1.421c-0.13-0.088-0.28-0.149-0.467-0.136c-13.919,0.97-27.452,2.445-41.431,1.443
		C5.847,38.388,6.042,25.658,5.666,12.943c-0.022-0.757-1.114-0.744-1.167,0c-0.926,12.969-0.54,26.029,0.014,39.005
		c0.036,0.851,1.092,1.008,1.488,0.482c13.705,2.205,28.144,0.977,41.812-1.013c0.455-0.066,0.642-0.457,0.627-0.852
		C48.941,50.861,49.767,50.421,49.652,49.659z M21.114,6.05c-0.035,0.08-0.059,0.164-0.092,0.245
		c-0.062,0.104-0.103,0.216-0.125,0.332c-0.509,1.352-0.792,2.786-0.867,4.254c-0.27,0.002-0.539,0.007-0.81,0.008
		C18.813,8.767,18.416,6.5,19.25,4.514c0.745-1.774,3.108-3.393,4.967-2.377c0.896,1.59,1.538,3.261,2.064,5.024
		c0.343,1.15,0.503,2.339,0.717,3.513c-0.557,0.029-1.113,0.065-1.67,0.091c-0.097,0.005-0.194,0.004-0.291,0.008
		c-0.065-0.228-0.129-0.456-0.189-0.682c-0.337-1.267-0.525-3.415-1.743-4.243c-0.487-0.331-1.067-0.296-1.515-0.067
		C21.396,5.767,21.205,5.842,21.114,6.05z M22.084,7.212c0.535,0.112,0.829,0.422,0.853,0.952c0.112,0.514,0.224,1.029,0.336,1.543
		c0.081,0.37,0.163,0.739,0.244,1.108c-0.571,0.015-1.139,0.039-1.712,0.048C21.873,9.649,21.997,8.436,22.084,7.212z
		 M24.386,22.352c-0.015-0.032-0.029-0.065-0.044-0.097c0.613,0.018,1.227,0.036,1.843,0.052
		C25.707,22.487,25.124,22.527,24.386,22.352z M28.092,17.826c-1.691,0.055-3.382,0.101-5.073,0.123
		c-0.286,0.004-0.287,0.443,0,0.445c1.672,0.016,3.352,0.033,5.036,0.042c-0.112,1.451-0.417,2.728-1.159,3.437
		c-0.9,0.022-1.8,0.052-2.701,0.06c-1.162-2.541-2.054-5.23-2.348-8.019c-0.015-0.143-0.02-0.285-0.031-0.428
		c0.753-0.026,1.507-0.067,2.261-0.107c0.246,1.15,0.514,2.301,1.013,3.355c0.269,0.568,1.186,0.281,1.166-0.316
		c-0.034-1.042-0.245-2.096-0.514-3.141c0.722-0.049,1.444-0.096,2.166-0.158c0.039,0.016,0.081,0.01,0.121,0.02
		C28.045,14.531,28.159,16.246,28.092,17.826z M43.501,10.958c-0.104,0.124-0.179,0.285-0.18,0.506
		c-0.005,0.984,0.008,1.972,0.033,2.962c-4.198,0.103-8.381,0.311-12.584,0.321c-0.239,0.001-0.237,0.359,0,0.37
		c4.173,0.199,8.438,0.257,12.604-0.119c0.023,0.793,0.049,1.587,0.085,2.382c-4.489,0.025-8.985,0.218-13.48,0.38
		c-0.162-1.581-0.615-3.188-0.855-4.754C34.047,12.536,38.91,11.81,43.501,10.958z M29.382,21.816
		c0.549-1.087,0.696-2.221,0.647-3.375c4.499,0.001,9.012-0.1,13.46-0.508c0.053,1.089,0.1,2.178,0.179,3.27
		C38.903,21.357,34.147,21.643,29.382,21.816z"/>
	<path style="fill:#1D1D1B;" d="M45.271,37.153c-8.797-0.624-17.718-0.343-26.502,0.35c-0.22,0.017-0.225,0.359,0,0.347
		c8.86-0.47,17.639-0.363,26.502-0.172C45.612,37.685,45.605,37.176,45.271,37.153z"/>
	<path style="fill:#1D1D1B;" d="M43.77,33.971c-5.474-0.243-11.064,0.227-16.498,0.874c-0.146,0.017-0.153,0.246,0,0.234
		c5.505-0.42,10.987-0.471,16.498-0.677C44.047,34.392,44.047,33.984,43.77,33.971z"/>
</g>
<g>
</g>
<g>
</g>
<g>
</g>
<g>
</g>
<g>
</g>
<g>
</g>
<g>
</g>
<g>
</g>
<g>
</g>
<g>
</g>
<g>
</g>
<g>
</g>
<g>
</g>
<g>
</g>
<g>
</g>
</svg>
