<?xml version="1.0" encoding="iso-8859-1"?>
<!-- Generator: Adobe Illustrator 18.0.0, SVG Export Plug-In . SVG Version: 6.00 Build 0)  -->
<!DOCTYPE svg PUBLIC "-//W3C//DTD SVG 1.1//EN" "http://www.w3.org/Graphics/SVG/1.1/DTD/svg11.dtd">
<svg version="1.1" id="Capa_1" xmlns="http://www.w3.org/2000/svg" xmlns:xlink="http://www.w3.org/1999/xlink" x="0px" y="0px"
	 viewBox="0 0 59.694 59.694" style="enable-background:new 0 0 59.694 59.694;" xml:space="preserve">
<path style="fill:#1D1D1B;" d="M56.033,58.14c-1.908-1.45-3.79-2.902-5.64-4.379c1.776-2.683,2.832-5.577,3.308-8.554
	c0.272-0.021,0.546-0.037,0.816-0.066c0.386-0.042,0.392-0.568,0-0.605c-0.236-0.023-0.475-0.037-0.712-0.055
	c1.171-9.183-3.081-19.066-9.059-26.02c-4.584-5.332-10.379-8.579-17.087-10.528C19.782,5.642,11.585,4.739,4.577,0.135
	C3.905-0.306,3.18,0.419,3.317,1.103c3.021,15.099,0.724,33.312,11.783,45.623c8.146,9.069,21.911,13.052,33.301,8.342
	c2.239,1.655,4.513,3.176,6.798,4.498C56.146,60.114,56.855,58.765,56.033,58.14z M36.519,40.841
	c-5.83-6.668-10.044-14.078-14.751-21.506c-0.24-0.379-0.914-0.143-0.755,0.318c4.458,12.903,14.613,25.576,25.998,34.381
	c-12.403,2.582-26.114-1.122-33.294-12.216C6.29,30.342,7.489,15.668,5.312,2.582c3.199,1.823,6.655,2.996,10.189,3.965
	c-0.164-0.018-0.329-0.036-0.492-0.054c-1.061-0.117-2.16-0.315-3.219-0.138c-0.217,0.036-0.16,0.321,0,0.384
	c0.921,0.368,1.993,0.408,2.975,0.516c1.121,0.123,2.286,0.281,3.409,0.181c0.096-0.009,0.153-0.073,0.18-0.146
	c3.038,0.759,6.099,1.454,9.073,2.357c-2.851-0.372-5.703-0.655-8.572-0.892c-0.418-0.034-0.413,0.613,0,0.65
	c3.108,0.28,6.204,0.516,9.322,0.626c0.07,0.002,0.111-0.049,0.13-0.107c2.001,0.641,3.96,1.385,5.838,2.329
	c-2.849-0.487-5.81-0.514-8.64-0.292c-0.448,0.035-0.462,0.715,0,0.709c3.657-0.05,7.194,0.373,10.798,0.776
	c0.612,0.374,1.214,0.773,1.803,1.202c0.825,0.601,1.622,1.276,2.406,1.981c-2.094-0.265-4.263-0.224-6.33-0.138
	c-0.435,0.018-0.439,0.686,0,0.679c2.504-0.039,4.939,0.265,7.414,0.458c1.076,1.06,2.103,2.208,3.062,3.429
	c-3.101-0.696-6.324-1.002-9.475-1.197c-0.363-0.022-0.355,0.528,0,0.561c3.446,0.32,6.796,0.974,10.189,1.576
	c0.535,0.727,1.053,1.471,1.538,2.24c-0.271,0.042-0.533,0.114-0.773,0.205c-0.773-0.143-1.593-0.121-2.368-0.164
	c-1.196-0.067-2.39-0.129-3.588-0.16c-0.482-0.013-0.466,0.696,0,0.738c1.195,0.107,2.39,0.185,3.588,0.257
	c1.04,0.062,2.12,0.247,3.136-0.018c0.188-0.049,0.197-0.247,0.095-0.366c0.073,0.003,0.146,0.016,0.218,0.027
	c0.692,1.138,1.337,2.309,1.903,3.516c-3.348-0.581-7.279-0.635-10.606-0.397c-0.274,0.02-0.371,0.443-0.069,0.507
	c3.425,0.731,7.573,1.255,11.062,1.067c0.045-0.002,0.084-0.019,0.125-0.031c0.381,0.892,0.727,1.797,1.03,2.712
	c-2.112-0.412-4.361-0.433-6.489-0.61c-0.478-0.04-0.463,0.685,0,0.738c2.207,0.252,4.514,0.713,6.743,0.672
	c0.358,1.183,0.653,2.378,0.862,3.579c-0.067-0.063-0.152-0.111-0.266-0.12c-3.441-0.268-6.886-0.401-10.333-0.557
	c-0.422-0.019-0.411,0.615,0,0.65c3.443,0.29,6.882,0.601,10.333,0.778c0.174,0.009,0.287-0.071,0.353-0.181
	c0.169,1.098,0.283,2.199,0.314,3.295c-1.877-0.176-3.793-0.155-5.667-0.221c-0.45-0.016-0.441,0.661,0,0.694
	c1.869,0.141,3.775,0.382,5.66,0.407c-0.008,1.045-0.061,2.087-0.209,3.114c-3.139-0.126-6.327-0.007-9.449-0.139
	c-0.317-0.013-0.307,0.459,0,0.487c3.012,0.278,6.199,0.629,9.293,0.578c-0.173,0.917-0.399,1.825-0.696,2.715
	c-1.852-0.111-3.728-0.003-5.585-0.249c-0.351-0.047-0.438,0.569-0.084,0.624c1.688,0.263,3.609,0.564,5.391,0.414
	c-0.494,1.298-1.124,2.561-1.912,3.773C44.52,48.983,40.329,45.199,36.519,40.841z"/>
<g>
</g>
<g>
</g>
<g>
</g>
<g>
</g>
<g>
</g>
<g>
</g>
<g>
</g>
<g>
</g>
<g>
</g>
<g>
</g>
<g>
</g>
<g>
</g>
<g>
</g>
<g>
</g>
<g>
</g>
</svg>
