<?xml version="1.0" encoding="iso-8859-1"?>
<!-- Generator: Adobe Illustrator 18.0.0, SVG Export Plug-In . SVG Version: 6.00 Build 0)  -->
<!DOCTYPE svg PUBLIC "-//W3C//DTD SVG 1.1//EN" "http://www.w3.org/Graphics/SVG/1.1/DTD/svg11.dtd">
<svg version="1.1" id="Capa_1" xmlns="http://www.w3.org/2000/svg" xmlns:xlink="http://www.w3.org/1999/xlink" x="0px" y="0px"
	 viewBox="0 0 66.258 66.258" style="enable-background:new 0 0 66.258 66.258;" xml:space="preserve">
<g>
	<path style="fill:#1D1D1B;" d="M62.557,50.923c-0.073-0.042-0.142-0.053-0.213-0.072c-0.014-0.022-0.015-0.043-0.031-0.065
		c-6.705-8.824-16.274-15.889-24.895-22.731C28.16,20.71,19.004,13.337,10.145,5.513C9.941,5.333,9.712,5.32,9.52,5.396
		C6.872,3.997,4.184,3.009,1.186,2.481c-0.595-0.105-1.046,0.241-1.103,0.84c-0.329,3.452,0.328,6.757,1.967,9.795
		c0.011,0.105,0.047,0.212,0.138,0.31c0.065,0.07,0.131,0.139,0.196,0.209c0.003,0.003,0.005,0.007,0.008,0.009
		c16.074,17.253,33.372,34.431,52.166,48.731c-0.322,0.629,0.668,1.359,1.171,0.772c0.113-0.132,0.233-0.26,0.349-0.391
		c3.118,1.997,7.535,1.052,9.374-2.262C67.32,57.126,65.772,52.784,62.557,50.923z M63.219,53.654
		c-0.052,0.015-0.105,0.028-0.16,0.059c-0.792,0.457-1.543,1-2.264,1.598c0.613-0.791,1.111-1.654,1.46-2.581
		C62.609,53.006,62.94,53.308,63.219,53.654z M9.67,7.009C9.678,7.013,9.687,7.016,9.695,7.02c0.106,0.054,0.209,0.075,0.308,0.078
		c1.291,1.35,2.631,2.651,3.991,3.932c-1.008-0.112-2.018-0.211-3.028-0.31c-0.223-0.022-0.219,0.323,0,0.347
		c1.148,0.124,2.297,0.25,3.447,0.351c0.732,0.683,1.46,1.371,2.206,2.038c-0.879-0.127-1.759-0.247-2.637-0.368
		c-0.091-0.013-0.131,0.127-0.039,0.14c0.961,0.141,1.922,0.285,2.884,0.417c0.891,0.794,1.79,1.579,2.698,2.355
		c-0.851-0.105-1.703-0.205-2.556-0.305c-0.207-0.024-0.203,0.298,0,0.323c1.005,0.126,2.01,0.25,3.015,0.366
		c0.901,0.764,1.805,1.525,2.718,2.275c-1.079-0.116-2.159-0.225-3.238-0.338c-0.1-0.01-0.097,0.142,0,0.155
		c1.195,0.156,2.39,0.316,3.586,0.466c0.929,0.761,1.856,1.523,2.794,2.274c-1.207-0.107-2.415-0.207-3.622-0.31
		c-0.213-0.018-0.212,0.314,0,0.333c1.363,0.119,2.725,0.241,4.089,0.351c1.069,0.853,2.139,1.702,3.212,2.547
		c-1.352-0.105-2.712-0.17-4.052-0.222c-0.203-0.008-0.193,0.288,0,0.309c1.554,0.173,3.137,0.34,4.713,0.435
		c1.024,0.806,2.049,1.61,3.071,2.415c-1.676-0.222-3.371-0.356-5.048-0.518c-0.191-0.018-0.185,0.272,0,0.295
		c1.85,0.231,3.714,0.499,5.577,0.64c0.556,0.438,1.114,0.876,1.668,1.316c0.17,0.135,0.332,0.274,0.501,0.409
		c-1.57-0.254-3.191-0.301-4.735-0.252c-0.18,0.006-0.182,0.285,0,0.281c1.875-0.035,3.65,0.217,5.443,0.549
		c0.717,0.582,1.437,1.161,2.143,1.751c-1.523-0.209-3.053-0.383-4.578-0.572c-0.086-0.011-0.107,0.139-0.021,0.152
		c1.647,0.242,3.296,0.507,4.948,0.717c0.808,0.679,1.613,1.36,2.411,2.046c-1.696-0.168-3.396-0.29-5.096-0.418
		c-0.154-0.012-0.152,0.226,0,0.239c1.8,0.162,3.599,0.334,5.403,0.445c0.883,0.762,1.772,1.519,2.644,2.29
		c-1.681-0.161-3.37-0.257-5.053-0.393c-0.145-0.012-0.143,0.212,0,0.225c1.805,0.161,3.611,0.375,5.419,0.495
		c0.727,0.646,1.453,1.291,2.173,1.942c-1.448-0.152-2.899-0.278-4.347-0.41c-0.184-0.017-0.181,0.267,0,0.286
		c1.582,0.171,3.166,0.352,4.752,0.492c0.757,0.686,1.516,1.37,2.268,2.061c-1.827-0.21-3.669-0.233-5.511-0.124
		c-0.132,0.008-0.133,0.212,0,0.206c1.987-0.084,3.937,0.034,5.897,0.273c0.765,0.704,1.533,1.405,2.296,2.113
		c-1.398-0.057-2.797-0.093-4.193-0.143c-0.172-0.006-0.171,0.26,0,0.267c1.52,0.067,3.042,0.168,4.564,0.22
		c0.68,0.632,1.361,1.26,2.04,1.894c-1.865-0.09-3.742-0.083-5.604-0.123c-0.17-0.003-0.168,0.255,0,0.263
		c2.006,0.096,4.026,0.242,6.038,0.266c0.417,0.39,0.834,0.78,1.251,1.171c-1.516-0.021-3.019-0.035-4.542-0.202
		c-0.166-0.018-0.207,0.269-0.04,0.295c1.626,0.25,3.336,0.407,4.994,0.293c0.642,0.601,1.283,1.202,1.927,1.805
		c-1.725-0.005-3.475,0.167-5.154,0.406c-0.117,0.017-0.09,0.217,0.028,0.207c1.873-0.157,3.723-0.169,5.587-0.182
		c0.596,0.558,1.19,1.115,1.789,1.673c0.082,0.076,0.174,0.125,0.27,0.156c0.049,0.176,0.155,0.343,0.358,0.464
		c0.044,0.026,0.08,0.063,0.123,0.09c-1.051,1.019-2.063,1.998-3.104,2.913c-8.56-7.594-17.515-14.737-26.053-22.362
		c-8.635-7.712-16.878-15.836-25.444-23.62c0.493-0.037,0.986-0.073,1.479-0.11C8.942,9.239,9.11,9.12,9.176,8.914
		C9.381,8.278,9.546,7.653,9.67,7.009z M2.535,10.716C2.31,9.966,2.131,9.207,2,8.441c1.561-0.368,3.115-1.603,3.345-3.166
		c1.273,0.397,2.513,0.89,3.716,1.459C8.799,7.256,8.591,7.788,8.394,8.342c-0.577,0.03-1.154,0.059-1.73,0.089
		C6.436,8.442,6.266,8.576,6.192,8.789c-0.446,1.296-1.998,2.116-3.318,1.885C2.745,10.651,2.635,10.675,2.535,10.716z
		 M3.354,13.059c-0.003-0.083-0.02-0.169-0.058-0.256c-0.134-0.309-0.255-0.621-0.372-0.935c1.675,0.267,3.098-0.505,3.839-1.921
		C22.169,26.655,39.77,42.192,57.525,56.369c-1.329,1.066-2.744,2.025-4.386,2.821C35.791,44.529,19.869,28.652,3.354,13.059z
		 M55.453,61.158c-0.464-0.386-0.915-0.783-1.377-1.171c1.452-0.514,2.895-1.265,4.18-2.22
		C57.259,58.86,56.327,60.018,55.453,61.158z M63.654,59.931c-1.522,2.225-4.479,2.941-6.959,2.134
		c2.321-2.509,4.959-4.783,7.072-7.435c0.021-0.026,0.029-0.055,0.045-0.082C64.704,56.207,64.789,58.271,63.654,59.931z"/>
	<path style="fill:#1D1D1B;" d="M61.219,52.179c-1.661-0.115-3.292,0.008-4.956-0.221c-0.216-0.03-0.315,0.298-0.092,0.334
		c1.63,0.267,3.456,0.536,5.094,0.227C61.467,52.481,61.403,52.191,61.219,52.179z"/>
</g>
<g>
</g>
<g>
</g>
<g>
</g>
<g>
</g>
<g>
</g>
<g>
</g>
<g>
</g>
<g>
</g>
<g>
</g>
<g>
</g>
<g>
</g>
<g>
</g>
<g>
</g>
<g>
</g>
<g>
</g>
</svg>
