<?xml version="1.0" encoding="iso-8859-1"?>
<!-- Generator: Adobe Illustrator 18.0.0, SVG Export Plug-In . SVG Version: 6.00 Build 0)  -->
<!DOCTYPE svg PUBLIC "-//W3C//DTD SVG 1.1//EN" "http://www.w3.org/Graphics/SVG/1.1/DTD/svg11.dtd">
<svg version="1.1" id="Capa_1" xmlns="http://www.w3.org/2000/svg" xmlns:xlink="http://www.w3.org/1999/xlink" x="0px" y="0px"
	 viewBox="0 0 52.313 52.313" style="enable-background:new 0 0 52.313 52.313;" xml:space="preserve">
<g>
	<path style="fill:#1D1D1B;" d="M51.539,19.858C48.995,8.139,38.488-3.276,25.637,0.868c-0.093,0.03-0.162,0.079-0.23,0.127
		C15.277,0.534,6.17,7.646,2.38,16.938c-3.822,9.371-3.335,23.319,5.511,29.774c8.997,6.565,23.642,7.766,32.948,1.419
		C50.002,41.881,53.865,30.566,51.539,19.858z M48.909,18.887c-4.075,0.062-8.229,0.622-12.267,1.004
		c-0.242,0.023-0.25,0.397,0,0.384c4.098-0.203,8.338-0.249,12.425-0.785c0.21,0.835,0.396,1.674,0.53,2.514
		c-5.382-1.025-10.843-0.771-16.256-0.11c0.194-1.059,0.424-2.274,0.196-3.28c0.117,0.008,0.238-0.012,0.354-0.101
		c1.136-0.87,2.316-1.674,3.542-2.412c3.617,0.105,7.226,0.429,10.894,0.911C48.537,17.633,48.737,18.257,48.909,18.887z
		 M29.637,30.45c1.845-0.067,3.694-0.149,5.544-0.24c1.136,0.948,2.317,1.847,3.546,2.643c-4.197,0.068-8.391,0.359-12.562,0.869
		c-0.164,0.02-0.171,0.276,0,0.263c4.551-0.364,9.073-0.516,13.6-0.492c0.053,0.031,0.104,0.065,0.157,0.096
		c0.041,0.024,0.078,0.024,0.118,0.042c-0.245,0.899-0.489,1.938-0.594,2.964c-4.868-0.128-9.753,0.214-14.556,0.944
		c-0.145,0.022-0.112,0.272,0.035,0.258c4.868-0.464,9.659-0.582,14.473-0.461c-0.018,0.662,0.035,1.304,0.212,1.877
		c-2.395,0.716-4.794,1.303-7.209,1.802c-3.168-0.035-6.336-0.022-9.496,0.097c-0.151,0.006-0.151,0.228,0,0.234
		c2.192,0.092,4.385,0.162,6.578,0.225c-2.623,0.463-5.269,0.839-7.956,1.154c-0.041-1.992-1.521-4.118-2.775-5.664
		c1.266-1.074,1.981-3.004,2.739-4.448c0.82-1.562,1.55-3.167,2.148-4.827c2.777,1.022,5.992,0.964,8.192-0.623
		c0.024,0.039,0.043,0.079,0.08,0.114c0.824,0.78,1.682,1.556,2.558,2.314c-1.629,0.182-3.253,0.384-4.863,0.619
		C29.469,30.231,29.502,30.455,29.637,30.45z M31.393,16.147c1.129-0.05,2.255-0.079,3.377-0.081
		c-0.586,0.487-1.144,0.975-1.664,1.432c-0.024,0.021-0.033,0.048-0.053,0.072C32.635,17.013,32.014,16.558,31.393,16.147z
		 M41.98,13.091c1.62,0.958,3.532,1.553,5.429,1.559c0.248,0.554,0.463,1.122,0.673,1.692c-3.11-0.565-6.258-0.869-9.415-0.933
		c1.034-0.529,2.115-1.022,3.013-1.713C41.893,13.531,41.978,13.308,41.98,13.091z M31.937,12.314
		c-0.03-0.033-0.06-0.066-0.09-0.099c-0.063-0.07-0.181-0.063-0.245,0l-0.141,0.139c-0.068,0.066-0.077,0.199,0,0.264
		c0.946,0.803,3.454,0.137,4.582,0.082c1.576-0.077,3.165-0.117,4.751-0.192c0,0.001,0.001,0.001,0.001,0.001
		c-1.821,0.477-3.604,1.638-5.213,2.903c-1.623,0.041-3.243,0.147-4.859,0.295c-0.195-0.125-0.391-0.25-0.561-0.37
		c-1.94-1.362-3.879-2.724-5.819-4.086c-0.217-1.589-0.335-3.17-0.434-4.752c5.383-0.123,10.704-0.068,16.093,0.249
		c-0.018,0.528-0.014,1.059,0.022,1.591C36.453,8.038,32.456,8.9,29.124,9.404c-0.136,0.021-0.09,0.216,0.031,0.226
		c3.66,0.292,7.266-0.711,10.929-0.577c0.102,0.938,0.269,1.87,0.505,2.765c-0.861,0.064-1.721,0.132-2.578,0.188
		c-0.984,0.065-1.968,0.128-2.951,0.195c-0.361,0.024-2.58,0.409-3.202,0.379C31.962,12.549,32.035,12.422,31.937,12.314z
		 M25.345,2.239c0.172,0.164,0.412,0.257,0.719,0.175c4.555-1.209,8.636-0.488,12.085,1.454C34.404,3.59,30.634,3.613,26.897,3.99
		c-0.229,0.023-0.239,0.377,0,0.366c3.941-0.189,7.829-0.128,11.76,0.227c0.178,0.016,0.28-0.09,0.313-0.222
		c0.423,0.27,0.839,0.554,1.241,0.86c-0.059,0.086-0.102,0.19-0.119,0.317c-0.024,0.179-0.025,0.363-0.041,0.544
		C34.734,5.336,29.246,5.61,23.88,6.033c-0.069-1.151-0.134-2.303-0.219-3.462C24.218,2.451,24.774,2.329,25.345,2.239z
		 M24.748,26.136c0.581,0.281,1.129,0.174,1.52-0.124c0.416,0.266,0.868,0.464,1.34,0.599c-1.539,0.025-3.212-0.444-4.231-1.044
		c-0.393-0.231-0.719-0.491-1.02-0.763c0.259,0.117,0.529,0.214,0.807,0.298C23.634,25.501,24.16,25.852,24.748,26.136z
		 M22.104,2.951c-0.087,1.058-0.067,2.141,0.031,3.223c-0.41,0.034-0.822,0.067-1.23,0.101c-0.187,0.016-0.192,0.302,0,0.295
		c0.425-0.015,0.845-0.018,1.269-0.031c0.162,1.522,0.472,3.038,0.877,4.479c-0.144,0.084-0.276,0.188-0.362,0.322
		c-1.552,2.406-3.058,4.838-4.535,7.29c-2.745,0.384-5.456,0.147-8.236,0.111c-0.019,0-0.033,0.009-0.052,0.009
		c-0.456-0.608-0.911-1.215-1.377-1.816c-0.622-0.802-1.245-1.888-2.188-2.33c-0.048-0.022-0.099-0.033-0.149-0.045
		C9.647,8.855,15.3,4.789,22.104,2.951z M6.034,41.68c-2.539-3.471-3.589-7.961-3.689-12.325c0.102-0.006,0.204-0.022,0.3-0.065
		c1.583-0.713,2.907-2.717,3.987-4.063c1.2-1.495,2.365-3.02,3.553-4.524c2.521,0.543,5.072,0.164,7.494-0.635
		c0.079,0.146,0.199,0.271,0.354,0.346c-0.282,3.14,1.857,5.64,4.676,6.98c-1.147,1.429-2.168,2.939-3.109,4.511
		c-0.675,1.128-1.521,2.278-1.979,3.528c-2.75,0.352-5.722-0.146-8.177,1.339C7.775,37.782,6.105,39.65,6.034,41.68z M40.483,45.458
		c-0.028-0.011-0.045-0.034-0.082-0.034c-5.318-0.043-10.688,0.362-15.996,0.669c-0.224,0.013-0.228,0.355,0,0.352
		c5.111-0.084,10.283-0.093,15.384-0.48c-1.239,0.869-2.557,1.63-3.959,2.236c-4.404-0.036-8.778-0.009-13.181-0.342
		c-0.276-0.021-0.269,0.398,0,0.427c3.878,0.407,7.828,0.665,11.739,0.485c-2.408,0.845-5.01,1.285-7.744,1.227
		c-2.945-0.063-6.206-0.515-9.324-1.396c0.431-0.379,0.833-0.792,1.227-1.214c0.879-0.418,1.456-1.1,1.784-1.926
		c0.421-0.463,0.812-0.956,1.019-1.539c0.02,0.003,0.034,0.012,0.056,0.013c5.496,0.297,10.97-0.545,16.22-2.142
		c1.298,0.035,2.596,0.078,3.895,0.12c0.026,0.023,0.055,0.044,0.081,0.067c0.081,0.077,0.154,0.161,0.233,0.24
		c-0.267,0.749,0.073,1.314,0.606,1.596C41.822,44.404,41.162,44.943,40.483,45.458z M41.239,38.252
		c0.194,0.227,0.432,0.44,0.714,0.639c-0.06,0.222-0.112,0.455-0.155,0.69c-0.027-0.018-0.05-0.042-0.077-0.06
		c-0.058-0.264-0.222-0.484-0.463-0.592C41.266,38.703,41.256,38.478,41.239,38.252z M43.323,30.039
		c-0.926,0.542-1.842,1.092-2.749,1.665c-0.03,0.019-0.044,0.043-0.07,0.064c-0.805-0.587-1.627-1.152-2.453-1.711
		c1.942-0.106,3.883-0.221,5.823-0.346C43.688,29.821,43.504,29.933,43.323,30.039z M46.052,39.455
		c0.234-0.588,0.472-1.175,0.714-1.759c0.097,0.007,0.194,0.012,0.291,0.019C46.743,38.309,46.414,38.893,46.052,39.455z
		 M49.827,28.632c-0.445,0.007-0.892,0.025-1.338,0.036c-0.113-0.008-0.226-0.016-0.336-0.049c-0.13-0.038-0.25-0.003-0.344,0.067
		c-0.406,0.011-0.81,0.019-1.216,0.033c-0.061-0.003-0.12-0.014-0.182-0.009c-0.116-0.027-0.237-0.037-0.364-0.007
		c-0.035,0.008-0.068,0.025-0.103,0.034c-2.982,0.117-5.97,0.328-8.948,0.609c-1.47-0.981-2.948-1.953-4.386-2.975
		c-0.017-0.012-0.033-0.012-0.05-0.022c0.562-0.994,0.462-2.316,0.63-3.553c0.015-0.113,0.035-0.233,0.055-0.353
		c5.491-0.498,10.896-0.704,16.456,0.232c0.133,0.98,0.215,1.957,0.239,2.922c-4.656-0.538-9.633-0.123-14.283,0.29
		c-0.201,0.018-0.208,0.324,0,0.319c4.742-0.131,9.563,0.142,14.29-0.143c0.001,0.183,0.011,0.367,0.008,0.549
		C49.943,27.292,49.894,27.964,49.827,28.632z"/>
</g>
<g>
</g>
<g>
</g>
<g>
</g>
<g>
</g>
<g>
</g>
<g>
</g>
<g>
</g>
<g>
</g>
<g>
</g>
<g>
</g>
<g>
</g>
<g>
</g>
<g>
</g>
<g>
</g>
<g>
</g>
</svg>
