<?xml version="1.0" encoding="iso-8859-1"?>
<!-- Generator: Adobe Illustrator 18.0.0, SVG Export Plug-In . SVG Version: 6.00 Build 0)  -->
<!DOCTYPE svg PUBLIC "-//W3C//DTD SVG 1.1//EN" "http://www.w3.org/Graphics/SVG/1.1/DTD/svg11.dtd">
<svg version="1.1" id="Capa_1" xmlns="http://www.w3.org/2000/svg" xmlns:xlink="http://www.w3.org/1999/xlink" x="0px" y="0px"
	 viewBox="0 0 61.97 61.97" style="enable-background:new 0 0 61.97 61.97;" xml:space="preserve">
<g>
	<path style="fill:#1D1D1B;" d="M60.864,20.167c-4.02-13.615-19.329-14.193-26.888-3.358c-0.292-1.703-0.609-3.405-0.978-5.101
		c0.15-0.01,0.303-0.065,0.439-0.176c1.906-1.561,1.756-4.691,0.374-6.528c0.035-0.032,0.069-0.069,0.096-0.122
		c0.762-1.488,2.192-2.393,3.821-2.665c0.471-0.079,0.358-0.846-0.112-0.829c-1.929,0.072-3.568,1.252-4.376,2.988
		c-0.527-0.46-1.167-0.752-1.892-0.797c-0.236-1.38-0.901-2.577-2.054-3.464c-0.572-0.441-1.24,0.49-0.756,0.98
		c0.745,0.755,1.325,1.629,1.654,2.619c-0.143,0.041-0.287,0.086-0.434,0.147c-3.551,1.453-2.831,6.724,0.543,7.554
		c-0.487,0.854-0.9,1.746-1.256,2.663c-2.121-5.726-7.753-9.693-14.008-9.322C7.801,5.185,2.663,10.591,1.056,17.389
		c-1.446,6.116-1.762,14.341,2.563,19.43c3.399,3.999,9.38,5.331,14.656,4.325c-4.597,4.416-8.144,11.311-4.583,16.307
		c5.701,8.001,11.891-1.651,14.858-7.552c0.826,3.377,2.218,6.474,4.624,8.689c0.341,0.314,1.085,0.246,1.162-0.307
		c0.464-3.349,0.814-6.704,1.055-10.06c0.981,3.544,3.149,6.736,5.852,9.214c2.217,2.031,6.311,5.409,9.611,4.325
		c3.745-1.231,2.696-6.314,1.536-8.974c-1.295-2.97-3.437-6.174-5.985-8.587c4.253,0.937,8.734-0.776,11.61-4.382
		C62.204,34.564,62.712,26.425,60.864,20.167z M29.17,8.505c-0.43-1.198,0.081-2.498,1.276-3.01c1.232-0.529,2.35,0.433,2.661,1.612
		c0.35,1.322-0.383,2.278-0.74,3.435c-0.283-0.065-0.606,0.042-0.803,0.28c-0.03-0.035-0.043-0.078-0.088-0.103
		C30.527,10.182,29.56,9.59,29.17,8.505z M24.307,53.583c-1.577,2.491-1.815,2.837-5.08,3.113c-1.981,1.082-3.216,0.75-3.703-0.998
		c-0.994-1.281-1.232-2.761-0.714-4.441c0.927-4.775,4.752-8.139,7.899-11.627c0.504-0.263,0.994-0.543,1.452-0.86
		c0.348-0.241,0.258-0.716-0.059-0.855c0.053-0.282-0.134-0.631-0.471-0.49c-0.544,0.229-1.107,0.521-1.677,0.862
		c-5.533,1.164-12.061,1.937-16.304-2.581c-3.797-4.044-3.567-11.004-2.663-16.105c2.44-13.776,18.884-17.115,25.32-4.121
		c0.045,0.091,0.109,0.151,0.178,0.198c-1.971,6.424-1.413,13.953-1.244,20.374c0.088,3.337,0.156,7.306,0.764,11.126
		C26.7,49.272,25.627,51.498,24.307,53.583z M33.171,56.541c-1.939-2.357-3.019-5.43-3.637-8.704
		c0.054-0.12,0.109-0.241,0.158-0.352c0.222-0.5-0.034-0.942-0.404-1.113c-0.615-4.19-0.58-8.582-0.648-12.157
		c-0.14-7.321-0.893-15.948,2.419-22.694c0.067,0.003,0.127,0.017,0.195,0.017c0.061,0,0.104-0.034,0.153-0.056
		C34.263,26.384,35.128,41.475,33.171,56.541z M59.046,29.359c-2.263-0.226-4.616,0.057-6.844,0.401
		c-0.287,0.044-0.222,0.547,0.069,0.511c2.239-0.275,4.44-0.21,6.675-0.256c-0.121,0.811-0.267,1.621-0.461,2.418
		c-3.712-0.184-7.501,0.188-11.21,0.365c-0.328,0.016-0.332,0.517,0,0.513c3.659-0.039,7.408,0.1,11.052-0.278
		c-0.246,0.912-0.523,1.81-0.868,2.658c-1.495,0.004-3.185,0.34-4.557,0.652c-0.254,0.058-0.194,0.449,0.061,0.449
		c0.953,0.001,1.908-0.108,2.856-0.194c0.435-0.04,0.874-0.066,1.308-0.117c-0.52,1.135-1.137,2.178-1.85,3.079
		c-2.819-0.238-5.856,0.308-8.67,0.572c-0.292,0.028-0.302,0.478,0,0.464c2.688-0.124,5.612-0.035,8.271-0.562
		c-2.539,2.874-6.192,4.002-11.006,1.369c-0.639-0.35-1.207,0.179-1.23,0.731c-0.148,0.244-0.167,0.583,0.046,0.847
		c0.404,0.5,0.822,0.983,1.243,1.461c-1.552-0.037-3.107,0.007-4.658,0.022c-0.303,0.003-0.304,0.468,0,0.471
		c1.699,0.016,3.404,0.067,5.103,0.007c0.792,0.884,1.593,1.754,2.362,2.656c-1.287,0.101-2.58,0.347-3.852,0.527
		c-0.183,0.026-0.141,0.342,0.044,0.325c1.377-0.13,2.792-0.19,4.157-0.433c0.622,0.749,1.219,1.523,1.763,2.356
		c0.115,0.176,0.229,0.357,0.344,0.537c-2.212,0.211-4.283,0.331-6.529-0.091c-0.273-0.051-0.392,0.362-0.116,0.42
		c2.243,0.471,4.685,0.675,6.946,0.153c0.479,0.779,0.932,1.586,1.289,2.428c-1.861,0.177-3.711,0.446-5.563,0.697
		c-0.225,0.031-0.175,0.424,0.054,0.401c1.899-0.196,3.798-0.384,5.687-0.661c0.157,0.415,0.291,0.837,0.389,1.268
		c0.129,0.566,0.148,1.063,0.095,1.507c-1.267,0.206-2.526,0.212-3.82-0.045c-0.212-0.042-0.303,0.281-0.09,0.326
		c1.282,0.269,2.571,0.321,3.842,0.111c-0.525,2.092-3.086,2.55-5.301,1.333c-5.092-2.8-8.039-7.378-10.389-12.509
		c-0.039-0.086-0.096-0.134-0.158-0.162c0.533-9.339,0.137-18.68-1.341-27.937c0.394,0.202,0.937,0.177,1.277-0.268
		c4.382-5.736,11.214-7.75,16.48-5.336c-1.562,0.129-3.114,0.374-4.667,0.582c-0.354,0.047-0.369,0.608,0,0.57
		c1.87-0.194,3.75-0.342,5.598-0.689c1.746,1.017,3.279,2.561,4.428,4.678c-1.775-0.062-3.613,0.219-5.368,0.363
		c-0.352,0.029-0.361,0.57,0,0.555c1.854-0.075,3.821-0.009,5.661-0.335c0.377,0.775,0.712,1.611,0.986,2.526
		c0.116,0.388,0.211,0.802,0.297,1.228c-2.709-0.238-5.571,0.176-8.277,0.371c-0.33,0.024-0.339,0.525,0,0.52
		c2.747-0.04,5.668,0.122,8.379-0.36C59.324,24.587,59.346,26.96,59.046,29.359z"/>
	<path style="fill:#1D1D1B;" d="M58.61,26.097c-2.887,0.07-5.796,0.397-8.665,0.715c-0.342,0.038-0.36,0.566,0,0.548
		c2.882-0.137,5.804-0.275,8.665-0.659C58.982,26.652,59.012,26.087,58.61,26.097z"/>
	<path style="fill:#1D1D1B;" d="M54.954,14.892c-1.674,0.032-3.354,0.325-5.015,0.524c-0.334,0.04-0.347,0.565,0,0.534
		c1.69-0.151,3.417-0.214,5.086-0.533C55.323,15.36,55.252,14.886,54.954,14.892z"/>
</g>
<g>
</g>
<g>
</g>
<g>
</g>
<g>
</g>
<g>
</g>
<g>
</g>
<g>
</g>
<g>
</g>
<g>
</g>
<g>
</g>
<g>
</g>
<g>
</g>
<g>
</g>
<g>
</g>
<g>
</g>
</svg>
