<?xml version="1.0" encoding="iso-8859-1"?>
<!-- Generator: Adobe Illustrator 18.0.0, SVG Export Plug-In . SVG Version: 6.00 Build 0)  -->
<!DOCTYPE svg PUBLIC "-//W3C//DTD SVG 1.1//EN" "http://www.w3.org/Graphics/SVG/1.1/DTD/svg11.dtd">
<svg version="1.1" id="Capa_1" xmlns="http://www.w3.org/2000/svg" xmlns:xlink="http://www.w3.org/1999/xlink" x="0px" y="0px"
	 viewBox="0 0 61.91 61.91" style="enable-background:new 0 0 61.91 61.91;" xml:space="preserve">
<g>
	<path style="fill:#1D1D1B;" d="M54.339,5.111c-0.068-1.02-1.452-1.164-1.775-0.403c-0.101-0.066-0.217-0.119-0.368-0.13
		c-0.408-0.032-0.819-0.053-1.228-0.082c-0.058-0.475-0.178-0.942-0.381-1.382c-1.233-2.681-4.728-3.457-7.137-2.071
		c-0.617-0.592-1.374-1.016-2.237-1.041c-1.171-0.034-2.637,0.678-3.634,1.576c-1.761-1.22-4.308-1.188-6.016,0.179
		c-2.087-2.057-5.999-1.751-7.584,0.776c-0.308-0.381-0.665-0.721-1.091-0.982c-1.846-1.134-4.678-0.916-5.938,0.817
		c-0.373-0.467-0.823-0.884-1.379-1.208C12.939-0.377,8.405,1.02,7.901,4.296C7.775,5.109,8.743,5.566,9.237,4.86
		c1.123-1.606,3.014-2.883,5.024-1.905c0.605,0.294,1.051,0.788,1.354,1.361c-1.694,0.061-3.382,0.125-5.059,0.19
		c-0.259,0.01-0.442,0.121-0.565,0.272C9.798,4.67,9.546,4.655,9.361,4.831C6.942,7.13,7.124,10.439,6.987,13.57
		C6.742,19.196,6.71,24.83,6.891,30.458c0.255,7.904-0.486,19.388,5.044,25.891c5.235,6.157,16.026,5.44,23.27,5.546
		c6.578,0.097,14.822-0.132,18.284-6.743c0.149-0.284,0.125-0.553,0.017-0.777c0.737-1.473,0.917-3.319,1.034-5.286
		C55.409,34.48,55.31,19.713,54.339,5.111z M50.17,8.068c0.37-0.604,0.622-1.284,0.748-1.985c0.426-0.029,0.855-0.052,1.279-0.085
		c0.133-0.01,0.241-0.051,0.335-0.106c0.071,1.423,0.125,2.847,0.18,4.27c-1.549-0.042-3.1-0.057-4.653-0.059
		C48.945,9.664,49.746,8.76,50.17,8.068z M48.852,4.227c0.012,0.042,0.007,0.087,0.017,0.13c-1.255-0.072-2.514-0.134-3.776-0.185
		c-0.098-0.549-0.244-1.044-0.428-1.432c-0.058-0.123-0.127-0.246-0.196-0.368C46.143,1.782,48.346,2.375,48.852,4.227z
		 M45.201,6.398c1.162-0.047,2.322-0.102,3.478-0.167c-0.13,0.317-0.288,0.622-0.501,0.884c-0.654,0.808-1.77,0.884-2.31,1.747
		c-0.266,0.424-0.085,0.99,0.319,1.249c-0.995,0.005-1.989,0.008-2.984,0.018C44.491,9.596,45.081,8.032,45.201,6.398z M39.848,2.33
		c0.902-0.414,1.658-0.275,2.233,0.19c0.013,0.344,0.276,0.638,0.602,0.71c0.154,0.26,0.286,0.547,0.382,0.867
		c-1.242-0.039-2.485-0.072-3.731-0.094c-0.093-0.313-0.212-0.617-0.368-0.902c-0.057-0.105-0.139-0.185-0.203-0.283
		C39.121,2.671,39.476,2.501,39.848,2.33z M37.155,3.967c-1.456-0.015-2.913-0.023-4.371-0.018
		c-0.068-0.271-0.169-0.532-0.279-0.788C33.971,2.193,36.241,2.409,37.155,3.967z M24.846,3.612
		c1.366-1.584,4.259-2.148,5.644-0.221c0.127,0.177,0.214,0.372,0.294,0.569c-1.978,0.017-3.955,0.047-5.93,0.09
		c-0.043-0.112-0.101-0.216-0.151-0.325C24.752,3.693,24.801,3.664,24.846,3.612z M22.45,3.565c0.144,0.162,0.252,0.348,0.362,0.532
		c-1.635,0.042-3.267,0.09-4.893,0.143c-0.034-0.12-0.091-0.232-0.132-0.349C18.574,2.161,21.304,2.277,22.45,3.565z M32.565,60.025
		c-8.214-0.249-18.501-0.019-21.757-9.208C8.481,44.251,8.642,36.4,8.404,29.52C8.275,25.769,8.24,22.013,8.3,18.26
		c0.061-3.829-0.512-9.162,1.687-12.505c0.03,0.039,0.057,0.079,0.096,0.112c0,0.006-0.003,0.01-0.003,0.017
		c0.077,7.312,0.387,14.608,0.733,21.912c0.301,6.342,0.142,12.958,1.063,19.245c1.502,10.248,11.707,11.042,20.23,11.027
		c5.305-0.01,11.862,0.63,17.115-0.69C44.768,60.685,37.902,60.187,32.565,60.025z M48.741,32.821
		c1.438,0.028,2.97,0.169,4.43,0.068c-0.007,0.897,0,1.794-0.014,2.692c-1.628-0.177-3.288-0.177-4.922-0.243
		c-0.23-0.009-0.227,0.341,0,0.356c1.631,0.109,3.281,0.288,4.918,0.286c-0.008,0.461-0.003,0.922-0.013,1.384
		c-0.056,2.607-0.139,5.213-0.247,7.819c-0.001,0.015-0.001,0.03-0.002,0.045c-1.463-0.043-2.944-0.011-4.401,0.044
		c-0.181,0.007-0.181,0.274,0,0.281c1.452,0.055,2.928,0.086,4.386,0.044c-0.04,1.015-0.076,2.032-0.141,3.045
		c-1.674,0.256-3.221,0.455-4.969,0.199c-0.192-0.028-0.281,0.256-0.082,0.298c1.591,0.335,3.408,0.436,5.023,0.001
		c-0.12,1.614-0.109,2.454-0.524,3.16c-7.418-0.783-14.988-0.893-22.437-0.928c-0.067,0-0.066,0.1,0,0.103
		c7.385,0.351,14.783,0.944,22.172,1.19c-0.344,0.402-0.868,0.798-1.695,1.321c-7.443,0.954-15.546-0.456-22.978-0.767
		c-0.146-0.006-0.143,0.214,0,0.225c6.967,0.514,14.956,1.973,22.055,1.079c-4.578,2.447-11.157,1.686-16.296,1.714
		c-4.239,0.023-8.765,0.178-12.81-1.292c-6.8-2.471-6.674-9.055-6.969-15.198c-0.539-11.231-1.011-22.465-1.991-33.668
		c1.59,0.063,3.189,0.123,4.793,0.18c-0.044,0.662-0.252,1.31-0.677,1.834c-0.873,1.08,0.676,2.621,1.531,1.531
		c0.743-0.948,1.164-2.115,1.25-3.296c1.761,0.059,3.53,0.109,5.301,0.153c0.003,0.128,0.016,0.258,0.011,0.385
		c-0.044,1.166-0.653,2.242-0.611,3.39c0.026,0.705,0.954,1.198,1.476,0.611c0.936-1.05,1.125-2.837,1.037-4.341
		c1.767,0.038,3.537,0.063,5.306,0.08c-0.427,0.839-1.227,1.276-1.685,2.092c-0.325,0.579,0.099,1.167,0.704,1.227
		c1.624,0.163,2.756-1.846,3.1-3.192c0.009-0.037,0.014-0.075,0.023-0.112c1.497,0.005,2.993-0.002,4.487-0.017
		c-0.059,0.14-0.114,0.281-0.191,0.413c-0.473,0.803-1.371,1.165-1.455,2.156c-0.022,0.261,0.167,0.6,0.407,0.71
		c1.545,0.71,2.78-1.174,3.209-2.449c0.094-0.28,0.162-0.572,0.213-0.869c1.209-0.022,2.416-0.053,3.621-0.091
		c-0.066,0.242-0.151,0.48-0.259,0.707c-0.36,0.753-1.039,1.223-1.185,2.061c-0.055,0.314,0.051,0.685,0.289,0.9
		c-2.15,0.023-4.299,0.045-6.444,0.034c-0.14-0.001-0.138,0.208,0,0.216c5.704,0.313,11.537,0.58,17.243,0.221
		c0.078,2.116,0.146,4.233,0.2,6.35c-5.765-0.467-11.66-0.19-17.439-0.233c-0.181-0.001-0.181,0.276,0,0.281
		c5.781,0.166,11.668,0.657,17.451,0.397c0.024,0.939,0.055,1.877,0.075,2.816c-6.266-0.348-12.522-0.68-18.785-1.111
		c-0.163-0.011-0.154,0.228,0,0.248c6.205,0.83,12.534,1.325,18.797,1.362c0.013,0.66,0.037,1.32,0.048,1.98
		c-7.095-0.37-14.233-0.347-21.335-0.428c-0.109-0.001-0.108,0.164,0,0.169c7.102,0.301,14.235,0.708,21.345,0.72
		c0.012,0.748,0.039,1.496,0.047,2.244c-5.355-0.356-10.788-0.354-16.143-0.093c-0.138,0.007-0.14,0.214,0,0.216
		c5.389,0.061,10.763,0.224,16.148,0.372c0.008,0.835,0.023,1.67,0.026,2.505c-5.228,0.001-10.446,0.074-15.677-0.058
		c-0.14-0.003-0.137,0.207,0,0.216c5.199,0.341,10.464,0.534,15.678,0.327c0.003,1.18,0.015,2.36,0.007,3.541
		c-1.462-0.101-2.995,0.04-4.433,0.068C48.536,32.506,48.536,32.817,48.741,32.821z"/>
	<path style="fill:#1D1D1B;" d="M47.249,48.026c-0.367-4.516,0.254-9.254-0.363-13.699c-0.046-0.332-0.282-0.5-0.554-0.544
		c0.441-0.255,0.357-0.971-0.262-1.038c-8.158-0.878-16.784-0.497-24.998-0.078c-0.081-0.627-0.911-0.605-0.993,0.02
		c-0.004,0.034-0.007,0.067-0.011,0.101c-0.351,0.198-0.385,0.699-0.105,0.96c-0.455,4.333-0.25,8.677,0.181,13.014
		c0.055,0.557,0.479,0.855,0.918,0.917c-0.087,0.276-0.001,0.593,0.353,0.641c8.048,1.09,16.525,1.625,24.64,1.401
		c0.642-0.018,0.864-0.57,0.709-1.017C47.047,48.605,47.277,48.376,47.249,48.026z M22.023,47.241
		c0.065-0.133,0.106-0.286,0.089-0.479c-0.385-4.265-0.557-8.544-0.929-12.808c8.058,0.41,16.512,0.773,24.527-0.052
		c-0.161,0.096-0.292,0.237-0.344,0.425c-1.165,4.233-0.296,9.495,0.386,13.786C37.99,47.197,29.839,46.931,22.023,47.241z"/>
	<path style="fill:#1D1D1B;" d="M41.167,38.342c-5.067-0.432-10.231-0.001-15.326-0.315c-0.428-0.026-0.537,0.698-0.103,0.76
		c5.001,0.71,10.543,1.379,15.541,0.384C41.775,39.072,41.612,38.379,41.167,38.342z"/>
	<path style="fill:#1D1D1B;" d="M41.967,42.799c-4.832-1.15-10.587-0.729-15.488-0.237c-0.75,0.075-0.785,1.187,0,1.195
		c5.018,0.053,10.349,0.646,15.331,0.201C42.434,43.903,42.658,42.963,41.967,42.799z"/>
	<path style="fill:#1D1D1B;" d="M52.491,41.743c-1.333-0.049-2.667-0.011-4,0.012c-0.202,0.003-0.202,0.311,0,0.314
		c1.334,0.023,2.667,0.061,4,0.012C52.708,42.073,52.709,41.751,52.491,41.743z"/>
	<path style="fill:#1D1D1B;" d="M52.543,38.955c-1.308-0.233-2.721-0.236-4.047-0.276c-0.234-0.007-0.223,0.332,0,0.356
		c1.304,0.141,2.687,0.334,3.998,0.283C52.692,39.311,52.758,38.993,52.543,38.955z"/>
	<path style="fill:#1D1D1B;" d="M52.486,13.239C46,12.873,39.494,12.652,32.998,12.584c-0.146-0.002-0.144,0.217,0,0.225
		c6.494,0.351,12.991,0.68,19.487,0.993C52.848,13.819,52.846,13.26,52.486,13.239z"/>
</g>
<g>
</g>
<g>
</g>
<g>
</g>
<g>
</g>
<g>
</g>
<g>
</g>
<g>
</g>
<g>
</g>
<g>
</g>
<g>
</g>
<g>
</g>
<g>
</g>
<g>
</g>
<g>
</g>
<g>
</g>
</svg>
