<?xml version="1.0" encoding="iso-8859-1"?>
<!-- Generator: Adobe Illustrator 18.0.0, SVG Export Plug-In . SVG Version: 6.00 Build 0)  -->
<!DOCTYPE svg PUBLIC "-//W3C//DTD SVG 1.1//EN" "http://www.w3.org/Graphics/SVG/1.1/DTD/svg11.dtd">
<svg version="1.1" id="Capa_1" xmlns="http://www.w3.org/2000/svg" xmlns:xlink="http://www.w3.org/1999/xlink" x="0px" y="0px"
	 viewBox="0 0 66.692 66.692" style="enable-background:new 0 0 66.692 66.692;" xml:space="preserve">
<g>
	<path style="fill:#1D1D1B;" d="M66.526,62.419c-1.196-1.72-2.439-3.427-3.709-5.123c-0.011-0.063-0.048-0.115-0.107-0.145
		C51.567,42.288,37.68,28.51,21.897,18.932c0.982-4.213-0.675-8.993-4.013-11.762C13.649,3.657,7.949,4.785,2.911,3.63
		C2.464,3.245,1.953,2.9,1.349,2.613C0.326,2.127-0.575,3.65,0.455,4.143c4.664,2.235,2.941,7.811,3.649,11.871
		c0.471,2.703,1.901,5.041,4.154,6.627c2.508,1.765,5.519,2.109,8.176,1.244c3.498,21.714,26.201,37.362,46.942,40.281
		c0.788,0.111,1.132-0.959,0.336-1.221c-10.793-3.555-21.151-6.512-30.07-13.982c-3.582-3-6.642-6.378-9.175-10.09
		c4.177,1.142,9.06-1.107,10.981-4.966c0.859-0.003,1.72-0.011,2.584-0.017c1.178,1.057,2.345,2.123,3.497,3.202
		c-2.457-0.056-4.947,0.068-7.388,0.124c-0.199,0.005-0.199,0.305,0,0.309c2.629,0.061,5.315,0.199,7.954,0.104
		c0.874,0.826,1.755,1.644,2.613,2.485c-3.104-0.121-6.231,0-9.319,0.298c-0.233,0.022-0.241,0.384,0,0.37
		c3.285-0.185,6.547-0.204,9.835-0.158c0.824,0.813,1.644,1.631,2.454,2.459c-2.945-0.128-5.938,0.178-8.838,0.601
		c-0.245,0.036-0.139,0.403,0.102,0.371c3.087-0.419,6.121-0.449,9.215-0.471c0.984,1.013,1.965,2.029,2.929,3.064
		c-3.147,0.052-6.339,0.374-9.446,0.588c-0.149,0.01-0.152,0.237,0,0.234c3.278-0.055,6.655-0.017,9.952-0.277
		c0.622,0.673,1.255,1.332,1.868,2.016c-3.271,0.131-6.569,0.48-9.819,0.789c-0.168,0.016-0.174,0.275,0,0.267
		c3.38-0.159,6.817-0.283,10.188-0.646c0.607,0.681,1.23,1.341,1.828,2.033c-3.257,0.14-6.515,0.367-9.766,0.572
		c-0.206,0.013-0.21,0.331,0,0.323c3.387-0.122,6.784-0.221,10.169-0.42c0.657,0.765,1.313,1.531,1.959,2.312
		c-1.557,0.027-3.138,0.131-4.629,0.316c-0.161,0.02-0.17,0.249,0,0.258c1.636,0.086,3.375,0.072,5.065-0.037
		c0.683,0.832,1.367,1.663,2.038,2.512c-1.438,0.186-2.864,0.218-4.363,0.029c-0.177-0.022-0.219,0.281-0.042,0.313
		c1.553,0.281,3.171,0.32,4.743,0.089c0.556,0.709,1.119,1.409,1.666,2.131c-0.016-0.022-0.037-0.041-0.072-0.048
		c-1.477-0.292-3.11-0.078-4.568,0.239c-0.121,0.027-0.097,0.237,0.03,0.221c1.51-0.189,2.991-0.118,4.502-0.193
		c0.106-0.005,0.157-0.127,0.119-0.205c0.819,1.081,1.639,2.161,2.438,3.272C65.626,64.284,67.204,63.392,66.526,62.419z
		 M10.573,21.675c-4.098-1.916-4.707-5.662-4.854-9.693C5.632,9.621,5.407,7.23,4.321,5.336c2.684,0.585,5.475,0.518,8.29,1.225
		c0.596,0.15,1.148,0.355,1.679,0.583c-2.09-0.152-4.249-0.106-6.197,0.159C7.916,7.327,7.971,7.594,8.134,7.602
		c2.537,0.131,5.112,0.259,7.665,0.344c0.475,0.306,0.928,0.634,1.333,1.006c-3.22-0.293-6.55-0.095-9.746,0.204
		c-0.142,0.013-0.147,0.231,0,0.225c3.42-0.142,6.808,0.027,10.22,0.049c0.507,0.534,0.955,1.114,1.329,1.742
		c-2.918-0.126-5.876,0.033-8.792,0.073c-0.163,0.002-0.163,0.251,0,0.253c2.986,0.041,6.016,0.21,9.003,0.066
		c0.357,0.664,0.656,1.363,0.866,2.1c-3.241-0.272-6.629,0.014-9.869,0.06c-0.19,0.003-0.19,0.292,0,0.295
		c3.276,0.047,6.706,0.339,9.981,0.05c0.129,0.528,0.221,1.069,0.274,1.621c-2.787-0.253-5.721-0.037-8.506,0.038
		c-0.184,0.005-0.184,0.281,0,0.286c2.794,0.075,5.741,0.293,8.537,0.036c0.024,0.365,0.036,0.733,0.026,1.105
		c-0.023-0.007-0.035-0.027-0.063-0.027c-3.751-0.003-7.509,0.103-11.249,0.39c-0.152,0.012-0.156,0.244,0,0.239
		c3.752-0.114,7.495-0.19,11.249-0.156c0.023,0,0.032-0.017,0.051-0.022c-0.042,0.694-0.141,1.396-0.302,2.1l-0.001-0.001
		c-3.364-0.347-7.12,0.338-10.495,0.61c-0.166,0.014-0.171,0.268,0,0.263c3.363-0.103,7.152,0.152,10.447-0.548
		c0,0.013-0.001,0.026-0.002,0.039C17.361,22.259,13.932,23.246,10.573,21.675z M34.603,31.538
		c-0.268,0.644-0.593,1.242-0.956,1.801c-1.706,0.114-3.407,0.321-5.055,0.556c-0.163,0.023-0.126,0.307,0.039,0.29
		c1.543-0.16,3.072-0.218,4.599-0.248c-2.123,2.821-5.476,4.313-9.227,3.778c-0.105-0.015-0.194,0.003-0.274,0.032
		c-2.789-4.344-4.869-9.128-6.226-14.289c1.28-0.601,2.425-1.516,3.356-2.692c0.233-0.021,0.454-0.158,0.587-0.412
		c1.104,0.835,2.194,1.677,3.276,2.522c-1.276-0.009-2.564,0.065-3.83,0.083c-0.211,0.003-0.212,0.325,0,0.328
		c1.465,0.02,2.96,0.11,4.432,0.064c0.644,0.505,1.29,1.01,1.929,1.518c-1.951-0.021-3.918,0.081-5.861,0.109
		c-0.187,0.003-0.187,0.288,0,0.291c2.145,0.03,4.319,0.147,6.471,0.091c1.049,0.838,2.102,1.673,3.133,2.522
		c-2.847-0.177-5.796,0.025-8.605,0.307c-0.209,0.021-0.217,0.345,0,0.333c3.057-0.169,6.105-0.093,9.156-0.182
		c0.896,0.741,1.788,1.484,2.67,2.234c-2.85-0.081-5.756,0.088-8.575,0.161c-0.178,0.005-0.178,0.272,0,0.276
		c3.042,0.079,6.184,0.264,9.248,0.128c0.007,0.006,0.015,0.013,0.023,0.019C34.788,31.247,34.676,31.363,34.603,31.538z
		 M35.73,33.254c0.14-0.356,0.264-0.719,0.352-1.098c0.425,0.368,0.839,0.746,1.259,1.118C36.806,33.254,36.269,33.247,35.73,33.254
		z"/>
</g>
<g>
</g>
<g>
</g>
<g>
</g>
<g>
</g>
<g>
</g>
<g>
</g>
<g>
</g>
<g>
</g>
<g>
</g>
<g>
</g>
<g>
</g>
<g>
</g>
<g>
</g>
<g>
</g>
<g>
</g>
</svg>
