<?xml version="1.0" encoding="iso-8859-1"?>
<!-- Generator: Adobe Illustrator 18.0.0, SVG Export Plug-In . SVG Version: 6.00 Build 0)  -->
<!DOCTYPE svg PUBLIC "-//W3C//DTD SVG 1.1//EN" "http://www.w3.org/Graphics/SVG/1.1/DTD/svg11.dtd">
<svg version="1.1" id="Capa_1" xmlns="http://www.w3.org/2000/svg" xmlns:xlink="http://www.w3.org/1999/xlink" x="0px" y="0px"
	 viewBox="0 0 65.832 65.832" style="enable-background:new 0 0 65.832 65.832;" xml:space="preserve">
<g>
	<path style="fill:#1D1D1B;" d="M54.268,29.925C53.064,17.553,43.17,3.476,29.487,5.035c0.043-0.304-0.129-0.63-0.548-0.647
		C16.104,3.855,5.061,14.489,4.601,27.229c-0.482,13.353,9.811,24.539,23.115,25.292c7.437,0.421,13.939-3.044,19.866-7.218
		C52.971,41.509,54.901,36.437,54.268,29.925z M52.456,33.945c-7.762,0.152-15.542,0.459-23.293,0.894
		c-0.191,0.011-0.195,0.303,0,0.3c7.741-0.104,15.503-0.338,23.236-0.723c-0.102,0.708-0.257,1.376-0.453,2.014
		c-6.604-0.11-13.267,0.451-19.802,1.373c-0.168,0.024-0.131,0.316,0.041,0.299c6.542-0.648,13.057-0.964,19.619-1.243
		c-0.362,1.036-0.861,1.979-1.465,2.859c-0.034-0.055-0.084-0.099-0.172-0.097c-5.66,0.095-11.345,0.37-16.994,0.732
		c-0.17,0.011-0.174,0.269,0,0.267c5.63-0.067,11.29-0.223,16.911-0.554c-0.94,1.277-2.13,2.412-3.535,3.464
		c-0.031-0.027-0.069-0.047-0.118-0.045c-4.343,0.223-8.664,0.715-13.015,0.893c-0.228,0.009-0.23,0.356,0,0.356
		c4.155,0.006,8.448-0.099,12.561-0.79c-0.797,0.562-1.652,1.103-2.574,1.629c-0.42,0.24-0.841,0.472-1.262,0.699
		c0.001-0.131-0.076-0.267-0.229-0.257c-4.171,0.284-8.311,0.703-12.495,0.828c-0.172,0.005-0.172,0.264,0,0.267
		c4.063,0.071,8.208-0.002,12.24-0.579c-4.596,2.429-9.285,4.058-14.649,3.572C15.492,49.063,6.819,39.484,6.809,27.94
		C6.798,15.993,16.215,7.529,27.374,5.763c-0.053,0.358,0.182,0.781,0.619,0.785c3.588,0.029,6.886,0.74,9.827,2.008
		c-5.09-0.736-10.271-0.205-15.402,0.137c-0.259,0.017-0.264,0.417,0,0.408c5.519-0.201,11.226-0.902,16.702,0.066
		c1.343,0.681,2.597,1.491,3.765,2.404c-7.655,0.005-15.403-0.034-22.999,0.927c-0.166,0.021-0.174,0.281,0,0.267
		c7.839-0.634,15.713-0.495,23.568-0.734c0.78,0.65,1.511,1.357,2.202,2.105c-6.193-0.738-12.663-0.219-18.766,0.846
		c-0.141,0.025-0.111,0.27,0.034,0.253c6.418-0.757,12.674-0.72,19.098-0.699c0.617,0.699,1.18,1.45,1.717,2.222
		c-0.012-0.002-0.016-0.012-0.03-0.012c-8.354,0.048-16.76,0.224-25.072,1.115c-0.161,0.017-0.169,0.266,0,0.258
		c8.357-0.387,16.712-0.633,25.072-0.932c0.12-0.004,0.179-0.089,0.197-0.18c0.467,0.69,0.892,1.415,1.294,2.156
		c-5.942,0.308-11.941,0.564-17.81,1.607c-0.153,0.027-0.118,0.279,0.037,0.272c5.987-0.282,11.955-1.104,17.927-1.593
		c0.914,1.734,1.648,3.601,2.189,5.576c-8.448,0.867-16.891,1.228-25.377,1.432c-0.202,0.005-0.203,0.31,0,0.314
		c8.518,0.153,17.026-0.389,25.495-1.269c0.002,0,0.002-0.002,0.004-0.002c0.157,0.616,0.29,1.244,0.41,1.879
		c-7.838,0.161-15.696,1.141-23.422,2.434c-0.134,0.022-0.104,0.257,0.032,0.239c7.809-1.027,15.62-1.624,23.463-2.287
		c0.166,0.949,0.293,1.918,0.367,2.909c0.001,0.009,0,0.017,0.001,0.025c-0.025-0.024-0.056-0.045-0.1-0.046
		c-6.208-0.143-12.326,0.066-18.489,0.854c-0.173,0.022-0.178,0.295,0,0.277c6.137-0.647,12.318-0.994,18.489-0.816
		c0.049,0.001,0.084-0.017,0.11-0.044C52.593,32.003,52.561,33.002,52.456,33.945z"/>
	<path style="fill:#1D1D1B;" d="M61.187,28.544C60.036,11.485,43.52-1.072,26.958,0.072c-0.022-0.004-0.044-0.012-0.065-0.015
		c-0.131-0.016-0.251,0.006-0.367,0.041c-0.038,0.003-0.076,0.004-0.113,0.007c-0.683,0.059-0.933,0.738-0.734,1.212
		c0.006,0.074,0.021,0.143,0.043,0.213c0.035,0.675,0.227,1.231,0.844,1.639c0.778,0.514,1.571-0.593,0.995-1.247
		c0.032-0.037,0.061-0.076,0.086-0.119c15.156,0.524,30.175,10.423,31.262,26.739c1.132,16.981-14.254,26.239-29.103,27.9
		c-0.421-0.446-1.246-0.323-1.491,0.335c-0.566,0.421-0.635,1.284-0.159,1.731c-0.043,0.965-0.054,1.929,0.004,2.902
		c0.026,0.444,0.038,0.91,0.077,1.372c-1.795,0.046-3.556,0.194-5.2,0.555c-0.487,0.107-0.871,0.636-0.859,1.128l0.007,0.258
		c0.007,0.259,0.142,0.578,0.396,0.691c0.283,0.126,0.444,0.201,0.619,0.201c1.716,0.445,4.024,0.06,5.719,0.043
		c2.828-0.028,5.655-0.052,8.482-0.12c1.68-0.04,1.688-2.619,0-2.616c-2.139,0.005-4.446-0.116-6.754-0.148
		c-0.087-0.553-0.209-1.107-0.276-1.655c-0.096-0.789-0.161-1.582-0.215-2.376C46.157,57.962,62.356,45.876,61.187,28.544z"/>
	<path style="fill:#1D1D1B;" d="M50.162,21.643c-8.161,0.42-16.375,1.394-24.485,2.394c-0.152,0.019-0.159,0.255,0,0.244
		c8.16-0.593,16.418-1.236,24.517-2.407C50.323,21.854,50.292,21.636,50.162,21.643z"/>
</g>
<g>
</g>
<g>
</g>
<g>
</g>
<g>
</g>
<g>
</g>
<g>
</g>
<g>
</g>
<g>
</g>
<g>
</g>
<g>
</g>
<g>
</g>
<g>
</g>
<g>
</g>
<g>
</g>
<g>
</g>
</svg>
