<?xml version="1.0" encoding="iso-8859-1"?>
<!-- Generator: Adobe Illustrator 18.0.0, SVG Export Plug-In . SVG Version: 6.00 Build 0)  -->
<!DOCTYPE svg PUBLIC "-//W3C//DTD SVG 1.1//EN" "http://www.w3.org/Graphics/SVG/1.1/DTD/svg11.dtd">
<svg version="1.1" id="Capa_1" xmlns="http://www.w3.org/2000/svg" xmlns:xlink="http://www.w3.org/1999/xlink" x="0px" y="0px"
	 viewBox="0 0 61.514 61.514" style="enable-background:new 0 0 61.514 61.514;" xml:space="preserve">
<g>
	<path style="fill:#1D1D1B;" d="M50.769,10.93c-1.174-3.166-6.139-2.757-9.105-2.985c-0.015-0.216-0.059-0.426-0.202-0.623
		C41.38,7.21,41.28,7.14,41.174,7.092c0.042-0.194,0-0.396-0.151-0.569c-0.682-0.788-2.216-0.339-3.108-0.227
		c-0.03,0.004-0.052,0.018-0.08,0.024C39.401-2.8,22.933-1.4,25.035,6.376c-0.444-0.224-0.956-0.102-1.45-0.082
		c-0.63,0.026-1.256-0.016-1.875-0.135c-0.595-0.115-0.866,0.511-0.579,0.89c-0.164,0.018-0.296,0.124-0.382,0.285
		c-3.261-0.253-6.539-0.321-9.805-0.492c-0.409-0.021-0.765,0.366-0.762,0.762c0.068,8.311,0.238,16.623,0.416,24.933
		c0.093,4.321,0.209,8.642,0.33,12.963c0.106,3.794-0.354,8.237,0.378,11.965c0.796,4.054,3.397,3.465,7.223,3.67
		c8.16,0.436,16.337,0.496,24.503,0.187c5.307-0.201,7.307,0.469,7.634-4.924c0.471-7.754,0.564-15.549,0.592-23.315
		c0.014-3.887-0.006-7.775-0.086-11.661C51.113,18.521,51.773,13.636,50.769,10.93z M49.063,11.705
		c0.093,0.166,0.162,0.367,0.226,0.575c-1.101-0.08-2.211-0.001-3.314,0.042c0.011-0.246,0.015-0.492,0.027-0.738
		c0.018-0.4-0.287-0.714-0.638-0.838c-1.361-0.48-2.437-0.649-3.743-0.623c-0.013-0.238-0.014-0.478-0.011-0.717
		C43.916,9.7,47.947,9.705,49.063,11.705z M25.398,7.223c0.088-0.117,0.093-0.25,0.061-0.376c0.343,0.089,0.762-0.113,0.766-0.557
		c0.056-6.28,11.264-6.234,9.875,0.009c-0.181,0.814,0.714,1.275,1.271,0.989c0.1,0.171,0.275,0.31,0.545,0.344
		c0.597,0.075,1.478,0.294,2.202,0.198c-0.103,0.426-0.028,0.917,0.031,1.345c0.043,0.316,0.119,0.61,0.211,0.898
		c-5.845-0.817-12.118-0.577-18.069-0.505c-0.005-0.046-0.018-0.091-0.044-0.133c-0.24-0.392-0.333-0.831-0.372-1.28
		c0.191-0.181,0.167-0.517-0.063-0.674c-0.008-0.025-0.007-0.054-0.018-0.077C22.924,7.796,24.661,8.209,25.398,7.223z
		 M21.259,9.509c0.02,0.023,0.037,0.048,0.058,0.07c-0.133,0.001-0.269,0.004-0.402,0.005c-0.429,0.003-0.559,0.705-0.105,0.777
		c6.181,0.976,13.086,1.786,19.321,0.869c0.068,0.35,0.322,0.646,0.791,0.618c4.238-0.249,3.225,2.344,3.115,5.569
		c-0.088,2.593-0.16,5.186-0.215,7.78c-0.096,4.54-0.125,9.08-0.147,13.621c-0.014,3.079,1.571,12.849-0.92,14.694
		c-0.897,0.665-4.797,0.002-5.817-0.001c-2.585-0.008-5.17-0.025-7.756-0.053c-2.923-0.031-10.924,1.364-12.733-1.328
		c-0.811-1.207,0.052-6.148,0.068-7.663c0.028-2.555,0.06-5.109,0.098-7.663c0.066-4.47,0.147-8.94,0.243-13.41
		c0.055-2.554,0.11-5.108,0.155-7.662C17.078,12.103,17.213,9.951,21.259,9.509z M49.265,19.334
		c-0.248-0.017-0.501,0.005-0.752,0.012c-0.422,0.011-0.842,0.024-1.264,0.048c-0.303,0.017-0.303,0.454,0,0.471
		c0.421,0.024,0.842,0.037,1.264,0.048c0.238,0.006,0.481,0.026,0.72,0.013c-0.007,0.185-0.011,0.362-0.009,0.521
		c0.011,0.796,0.009,1.592,0.014,2.388c-1.02,0.036-2.063,0.329-3.056,0.541c-0.255,0.054-0.204,0.491,0.063,0.463
		c0.983-0.105,2.039-0.152,2.997-0.415c0.006,1.217,0.017,2.434,0.022,3.651c-0.004,0-0.006-0.004-0.011-0.004
		c-1.032,0.037-2.049,0.207-3.07,0.35c-0.303,0.042-0.235,0.568,0.073,0.539c1.008-0.097,2.017-0.173,3.011-0.369
		c0.004,1.159,0.021,2.319,0.021,3.478c-0.015-0.003-0.021-0.017-0.038-0.018c-0.999-0.05-2-0.001-3,0.021
		c-0.289,0.006-0.29,0.444,0,0.45c1,0.022,2.001,0.071,3,0.021c0.017-0.001,0.023-0.014,0.038-0.017
		c-0.001,1.272,0.004,2.544-0.004,3.815c-0.662-0.083-1.386,0.008-2.034,0.022c-0.344,0.008-0.344,0.527,0,0.534
		c0.648,0.014,1.37,0.105,2.032,0.022c-0.007,0.997,0,1.994-0.013,2.992c-0.006,0.431-0.019,0.861-0.027,1.292
		c-0.574,0.069-1.146,0.171-1.715,0.256c-0.268,0.04-0.208,0.503,0.065,0.476c0.544-0.053,1.094-0.092,1.639-0.159
		c-0.023,1.153-0.045,2.305-0.071,3.458c-0.999,0.109-1.987,0.274-2.98,0.436c-0.251,0.041-0.196,0.479,0.061,0.449
		c0.974-0.112,1.944-0.223,2.909-0.384c-0.022,0.973-0.034,1.946-0.06,2.919c-0.01,0.392,0,0.856,0.019,1.36
		c-0.949-0.043-1.914,0.024-2.858,0.056c-0.289,0.01-0.29,0.44,0,0.45c0.952,0.032,1.925,0.1,2.881,0.055
		c0.045,0.979,0.108,2.077,0.131,3.164c-0.206,0.015-0.412,0.03-0.62,0.018c-0.466-0.028-0.918-0.125-1.36-0.272
		c-0.219-0.073-0.377,0.286-0.16,0.379c0.631,0.271,1.415,0.491,2.143,0.437c0.006,0.946-0.024,1.866-0.141,2.656
		c-0.959-0.016-1.935,0.04-2.875,0.095c-0.312,0.018-0.313,0.467,0,0.485c0.897,0.053,1.826,0.104,2.744,0.095
		c-0.064,0.265-0.137,0.515-0.23,0.732c-0.141,0.33-0.334,0.609-0.565,0.851c-1.865-0.058-3.786,0.118-5.615,0.153
		c-0.335,0.006-0.335,0.514,0,0.52c1.411,0.027,2.878,0.136,4.331,0.16c-1.931,0.779-4.777,0.529-6.82,0.6
		c-3.266,0.113-6.535,0.158-9.804,0.142c-2.941-0.014-5.882-0.08-8.822-0.193c-1.431-0.055-3.572,0.177-4.896-0.233l-3.56-1.902
		c-0.018-0.665-0.036-1.329-0.055-1.994c-1.242-5.821-0.383-12.981-0.542-18.945c-0.168-6.316-0.341-12.631-0.486-18.948
		c-0.046-1.999-1.21-7.924,0.789-9.228c1.38-0.9,5.583-0.226,7.943-0.092c0.017,0.123,0.044,0.242,0.08,0.359
		c-1.576-0.225-2.895-0.013-4.546,0.67c-0.312,0.129-0.521,0.35-0.534,0.701c-0.557,14.68-0.765,29.37-0.874,44.06
		c-0.003,0.454,0.381,0.814,0.825,0.825c9.693,0.246,19.385,0.389,29.082,0.392c0.468,0,0.889-0.403,0.879-0.879
		c-0.3-13.831-0.223-27.627,0.379-41.446c1.161,0.045,2.33,0.13,3.488,0.029C49.732,14.792,49.389,17.455,49.265,19.334z"/>
	<path style="fill:#1D1D1B;" d="M49.302,16.437c-0.891-0.127-1.822-0.022-2.72,0.007c-0.24,0.008-0.24,0.365,0,0.373
		c0.897,0.029,1.829,0.134,2.72,0.007C49.494,16.796,49.494,16.464,49.302,16.437z"/>
</g>
<g>
</g>
<g>
</g>
<g>
</g>
<g>
</g>
<g>
</g>
<g>
</g>
<g>
</g>
<g>
</g>
<g>
</g>
<g>
</g>
<g>
</g>
<g>
</g>
<g>
</g>
<g>
</g>
<g>
</g>
</svg>
