<?xml version="1.0" encoding="iso-8859-1"?>
<!-- Generator: Adobe Illustrator 18.0.0, SVG Export Plug-In . SVG Version: 6.00 Build 0)  -->
<!DOCTYPE svg PUBLIC "-//W3C//DTD SVG 1.1//EN" "http://www.w3.org/Graphics/SVG/1.1/DTD/svg11.dtd">
<svg version="1.1" id="Capa_1" xmlns="http://www.w3.org/2000/svg" xmlns:xlink="http://www.w3.org/1999/xlink" x="0px" y="0px"
	 viewBox="0 0 59.373 59.373" style="enable-background:new 0 0 59.373 59.373;" xml:space="preserve">
<g>
	<path style="fill:#1D1D1B;" d="M24.43,19.946c-1.441-0.063-2.897,0.188-4.329,0.339c-0.147,0.016-0.241,0.11-0.282,0.221
		c-0.536-1.841-2.058-3.386-3.37-4.846c-1.953-2.173-4.84-5.711-7.829-6.323C8.369,9.286,8.15,9.54,8.283,9.776
		c0.01,0.018,0.024,0.034,0.034,0.052C7.331,9.607,6.28,9.576,5.483,10.221c-0.401,0.324-0.645,0.774-0.72,1.242
		c-0.068,0.096-0.093,0.224-0.032,0.349c0.003,0.006,0.007,0.012,0.01,0.019c0.018,0.44,0.188,0.873,0.555,1.213
		c0.051,0.048,0.108,0.08,0.165,0.104c1.555,2.637,3.667,4.98,5.875,7.066c2.022,1.91,4.491,3.947,7.432,3.677
		c0.319-0.029,0.529-0.3,0.563-0.573c0.27,0,0.525-0.146,0.596-0.501c0.138-0.686,0.116-1.331-0.014-1.944
		c0.049,0.035,0.108,0.058,0.189,0.052c1.463-0.108,2.966-0.122,4.4-0.447C24.809,20.408,24.725,19.959,24.43,19.946z
		 M18.575,22.658c-5.392-1.351-8.815-6.198-12.402-10.22c-0.009-0.018-0.01-0.036-0.021-0.054c-0.275-0.44,0.067-1.128,0.42-1.45
		c0.664-0.606,1.756-0.265,2.556-0.014c1.177,1.312,2.846,2.372,4.076,3.534c1.965,1.858,5.917,4.936,5.367,7.988
		C18.557,22.52,18.567,22.588,18.575,22.658z"/>
	<path style="fill:#1D1D1B;" d="M58.823,50.503c-0.006-0.15-0.06-0.303-0.204-0.438c-5.579-5.262-11.172-10.508-16.746-15.775
		C37.05,29.733,31.982,23.813,26.1,20.612c0.074-0.336,0.132-0.673,0.163-1.01c0.014-0.154-0.045-0.26-0.134-0.329
		c0.117-0.201,0.135-0.466-0.054-0.697C23.342,15.237,5.77-0.678,0.982,5.864C0.888,5.891,0.802,5.952,0.746,6.059
		c-0.19,0.359-0.328,0.72-0.443,1.081C0.302,7.143,0.301,7.145,0.3,7.147c0,0.001,0.001,0.002,0,0.003
		c-1.233,3.88,1.592,7.828,3.845,10.923c3.234,4.443,7.606,8.456,12.683,10.664c0.187,0.081,0.328-0.02,0.373-0.158
		c0.749,0.282,1.532,0.238,2.292,0.002c11.436,9.099,23.089,18.159,35.165,26.389c0.323,0.22,0.687,0.046,0.876-0.233
		c1.119,0.063,2.243-0.098,3.051-0.994C59.265,52.987,59.836,51.22,58.823,50.503z M17.169,27.529
		c-0.285-0.082-0.507,0.116-0.572,0.353C10.584,23.322-0.678,15.481,1.388,6.951c2.471-1.93,6.108-1,9.84,1.063
		c-0.93-0.009-1.811-0.009-2.746-0.275c-0.259-0.074-0.362,0.317-0.11,0.4c1.067,0.353,2.343,0.608,3.451,0.31
		c0.035-0.01,0.052-0.035,0.075-0.055c0.829,0.486,1.659,1.019,2.479,1.588c-0.679,0.043-1.353,0.191-1.996,0.415
		c-0.237,0.082-0.142,0.449,0.105,0.38c0.878-0.246,1.733-0.282,2.626-0.275c0.981,0.707,1.943,1.45,2.864,2.202
		c-1.067-0.036-2.143,0.023-3.208,0.044c-0.222,0.005-0.222,0.34,0,0.344c1.218,0.025,2.45,0.106,3.667,0.028
		c0.013-0.001,0.018-0.011,0.03-0.014c0.617,0.514,1.215,1.027,1.785,1.531c-1.066-0.122-2.212,0.099-3.206,0.407
		c-0.229,0.071-0.134,0.418,0.099,0.359c1.235-0.309,2.375-0.218,3.624-0.243c0.02-0.001,0.03-0.015,0.048-0.02
		c0.853,0.766,1.637,1.501,2.326,2.163c-1.234-0.052-2.47-0.005-3.705,0.015c-0.344,0.006-0.344,0.529,0,0.534
		c1.421,0.024,2.843,0.088,4.262-0.011c0.622,0.607,1.154,1.14,1.561,1.553c0.045,0.046,0.094,0.07,0.142,0.098
		c-0.693,1.897-1.359,3.586-2.761,5.094C21.418,25.899,19.124,28.092,17.169,27.529z M57.689,51.927
		c-0.069,0.342-0.314,0.613-0.592,0.804c-0.629,0.433-1.54,0.556-2.318,0.671c-11.105-8.841-22.822-17.094-34.526-25.121
		c1.012-0.484,1.945-1.251,2.649-1.974c1.269-1.304,2.38-3.015,2.962-4.819c0.834,1.173,1.782,2.293,2.797,3.376
		c-0.973,0.016-1.952,0.082-2.896,0.098c-0.375,0.006-0.376,0.577,0,0.584c1.19,0.02,2.439,0.127,3.658,0.098
		c0.872,0.886,1.777,1.754,2.716,2.596c-1.35-0.005-2.721,0.088-4.04,0.097c-0.321,0.002-0.322,0.497,0,0.499
		c1.569,0.011,3.213,0.142,4.806,0.08c1.075,0.943,2.168,1.866,3.256,2.775c-1.353-0.011-2.71,0.049-4.061,0.07
		c-0.204,0.003-0.204,0.313,0,0.316c1.529,0.023,3.065,0.098,4.595,0.06c0.984,0.822,1.959,1.638,2.897,2.449
		c-1.165-0.026-2.351,0.051-3.492,0.062c-0.348,0.003-0.349,0.538,0,0.542c1.379,0.013,2.821,0.119,4.214,0.024
		c0.111,0.098,0.229,0.197,0.34,0.295c0.519,0.464,1.032,0.936,1.548,1.403c-0.817,0.012-1.638,0.06-2.434,0.069
		c-0.348,0.004-0.349,0.537,0,0.541c1.041,0.013,2.125,0.096,3.185,0.07c0.735,0.669,1.474,1.333,2.208,2.002
		c-1.244-0.003-2.499,0.066-3.727,0.081c-0.312,0.004-0.313,0.481,0,0.485c1.459,0.018,2.957,0.118,4.43,0.072
		c0.632,0.576,1.269,1.145,1.9,1.722c-0.782,0.012-1.569,0.064-2.329,0.086c-0.271,0.008-0.272,0.414,0,0.422
		c0.97,0.028,1.988,0.114,2.979,0.088c0.876,0.804,1.754,1.605,2.629,2.411c-1.202-0.032-2.433,0.066-3.608,0.083
		c-0.267,0.004-0.267,0.411,0,0.415c1.37,0.02,2.812,0.142,4.199,0.046c0.785,0.724,1.574,1.445,2.359,2.171
		c-0.743,0.011-1.486,0.042-2.224,0.053c-0.244,0.004-0.245,0.376,0,0.38c0.912,0.014,1.834,0.058,2.752,0.056
		c0.845,0.783,1.695,1.56,2.539,2.345c-0.559,0.081-1.117,0.179-1.669,0.26c-0.202,0.029-0.156,0.385,0.049,0.359
		c0.669-0.085,1.351-0.148,2.025-0.245c0.048,0.045,0.097,0.089,0.145,0.134C57.622,51.328,57.751,51.621,57.689,51.927z"/>
	<path style="fill:#1D1D1B;" d="M8.488,7.066C6.814,6.761,5.117,6.623,3.426,6.443C3.208,6.42,3.154,6.798,3.374,6.83
		c1.682,0.249,3.36,0.541,5.056,0.664C8.672,7.512,8.731,7.11,8.488,7.066z"/>
</g>
<g>
</g>
<g>
</g>
<g>
</g>
<g>
</g>
<g>
</g>
<g>
</g>
<g>
</g>
<g>
</g>
<g>
</g>
<g>
</g>
<g>
</g>
<g>
</g>
<g>
</g>
<g>
</g>
<g>
</g>
</svg>
