<?xml version="1.0" encoding="iso-8859-1"?>
<!-- Generator: Adobe Illustrator 18.0.0, SVG Export Plug-In . SVG Version: 6.00 Build 0)  -->
<!DOCTYPE svg PUBLIC "-//W3C//DTD SVG 1.1//EN" "http://www.w3.org/Graphics/SVG/1.1/DTD/svg11.dtd">
<svg version="1.1" id="Capa_1" xmlns="http://www.w3.org/2000/svg" xmlns:xlink="http://www.w3.org/1999/xlink" x="0px" y="0px"
	 viewBox="0 0 63.024 63.024" style="enable-background:new 0 0 63.024 63.024;" xml:space="preserve">
<g>
	<path style="fill:#1D1D1B;" d="M41.727,44.075c0.841-8.464-14.324-5.33-18.85-5.17c-2.225,0.078-15.073,0.492-9.651,6.07
		c0.143,0.147,0.333,0.167,0.502,0.115c0.047,0.143,0.165,0.266,0.355,0.285c0.075,0.007,0.149,0.012,0.224,0.019
		c-0.118,3.02-1.215,7.292,1.256,9.736c2.821,2.791,8.876,1.458,12.395,1.457c2.953-0.001,5.914,0.068,8.866-0.006
		c1.159-0.029,2.597,0.133,3.556-0.723c2.266-2.024,0.92-7.993,0.896-10.546c-0.002-0.253-0.1-0.441-0.24-0.576
		C41.363,44.713,41.685,44.502,41.727,44.075z M14.044,44.344c-2.927-4.022,6.795-3.89,7.857-3.921
		c1.628-0.047,3.257-0.095,4.885-0.142c3.107-0.09,13.233-1.654,13.51,3.635c-8.688,0.838-17.448,0.915-26.17,0.672
		C14.122,44.507,14.103,44.425,14.044,44.344z M38.693,54.023c-1.663,1.727-7.37,0.844-9.748,0.846
		c-2.53,0.002-6.55,0.824-8.866,0.021c-3.157-1.094-4.438-2.978-4.7-5.981c-0.27-3.096,0.148-0.721-0.282-3.45
		c8.224,0.746,16.312,0.524,24.527-0.311c-0.011,0.055-0.034,0.1-0.034,0.162C39.565,47.807,40.451,52.198,38.693,54.023z"/>
	<path style="fill:#1D1D1B;" d="M55.521,14.058C51.866,5.327,40.05-5.622,31.107,3.345c-1.351-1.197-3.083-1.929-4.808-1.759
		c-0.325,0.032-0.638,0.103-0.945,0.19C22.358-0.318,17.452,0.6,14.838,2.8c-3.419,2.878-4.183,7.775-2.31,11.71
		c-1.922,1.7-3.571,3.715-4.78,6.075c-5.443,10.62-2.08,23.163-2.734,34.511c-0.004,0.074,0.007,0.138,0.028,0.192
		c-2.339,10.281,17.254,7.398,22.283,7.269c3.422-0.088,27.414,2.207,23.458-6.421c0.106-0.103,0.17-0.245,0.151-0.423
		c-0.478-4.486-0.384-9.111-0.373-13.733c5.566-6.732,1.002-19.934-1.939-26.816c-1.575-3.686-3.844-7.986-8.09-9.009
		c-2.739-0.659-5.266,0.151-6.904,2.297c-0.012-1.57-0.704-3.134-1.787-4.375c5.634-4.112,10.956-2.664,15.169,1.049
		c-1.028,0.135-2.051,0.334-3.07,0.51c-0.144,0.025-0.081,0.237,0.06,0.217c1.091-0.153,2.197-0.274,3.28-0.485
		c0.734,0.671,1.437,1.403,2.097,2.193c-0.972,0.06-1.944,0.149-2.911,0.225c-0.232,0.018-0.236,0.38,0,0.366
		c1.072-0.066,2.153-0.112,3.226-0.207c0.481,0.6,0.941,1.226,1.376,1.872c-1.116,0.056-2.239,0.217-3.348,0.328
		c-0.147,0.015-0.152,0.244,0,0.234c1.183-0.071,2.388-0.09,3.567-0.233c0.511,0.781,0.988,1.585,1.426,2.404
		c-1.091,0.044-2.2,0.163-3.278,0.309c-0.139,0.019-0.105,0.248,0.033,0.244c1.128-0.032,2.284-0.098,3.405-0.244
		c0.371,0.714,0.717,1.435,1.028,2.158c-1.146,0.049-2.286,0.141-3.437,0.13c-0.218-0.002-0.216,0.327,0,0.337
		c1.196,0.056,2.416,0.082,3.608-0.071c0.399,0.962,0.743,1.923,1.025,2.861c-1.21-0.179-2.464,0.061-3.532,0.663
		c-0.148,0.083-0.047,0.35,0.119,0.283c1.162-0.47,2.291-0.618,3.523-0.57c0.117,0.41,0.226,0.817,0.319,1.216
		c0.069,0.297,0.131,0.614,0.196,0.924c-0.919,0.058-1.837,0.173-2.753,0.264c-0.23,0.023-0.238,0.379,0,0.366
		c0.949-0.052,1.903-0.082,2.85-0.172c0.128,0.642,0.249,1.301,0.357,1.984c-1.067,0.033-2.154,0.208-3.207,0.309
		c-0.23,0.022-0.238,0.379,0,0.366c1.078-0.062,2.2-0.056,3.281-0.19c0.3,2.02,0.506,4.189,0.566,6.403
		c-0.035-0.021-0.078-0.033-0.13-0.023c-0.917,0.169-1.782,0.29-2.714,0.176c-0.192-0.023-0.239,0.311-0.046,0.341
		c0.944,0.145,1.947,0.157,2.855-0.174c0.021-0.008,0.027-0.025,0.042-0.036c0.017,0.795,0.022,1.593-0.002,2.393
		c-0.88,0.072-1.781,0.365-2.636,0.559c-0.199,0.045-0.113,0.338,0.083,0.303c0.828-0.148,1.735-0.226,2.545-0.48
		c-0.03,0.773-0.075,1.546-0.149,2.312c-1.003,0.069-2.017,0.312-3,0.513c-0.188,0.039-0.149,0.367,0.046,0.341
		c0.966-0.13,1.974-0.231,2.919-0.479c-0.08,0.754-0.179,1.502-0.307,2.238c-0.782-0.038-1.572-0.001-2.354,0.007
		c-0.139,0.002-0.139,0.214,0,0.216c0.767,0.008,1.542,0.042,2.309,0.008c-0.147,0.813-0.322,1.615-0.535,2.394
		c-0.921,0.101-1.833,0.152-2.773,0.075c-0.191-0.015-0.186,0.276,0,0.295c0.885,0.092,1.784,0.109,2.667,0
		c-0.2,0.693-0.419,1.375-0.676,2.03c-1.015,0.121-2.027,0.271-3.039,0.422c-0.196,0.029-0.152,0.376,0.047,0.35
		c0.947-0.123,1.893-0.246,2.836-0.391c-0.287,0.689-0.597,1.362-0.955,1.996c-0.862-0.009-1.716-0.03-2.589-0.176
		c-0.24-0.04-0.347,0.322-0.102,0.371c0.781,0.154,1.599,0.267,2.413,0.289c-0.724,1.183-1.572,2.261-2.593,3.172
		c-0.629,0.561,0.208,1.677,0.912,1.182c4.97-3.498,5.874-9.677,6.347-15.371C58.82,27.921,58.278,20.641,55.521,14.058z
		 M16.199,3.803c0.294-0.219,0.588-0.406,0.88-0.572c-0.015,0.086,0.025,0.177,0.138,0.168c1.847-0.157,3.711-0.255,5.546-0.515
		c0.211-0.03,0.162-0.385-0.051-0.373c-1.771,0.1-3.539,0.353-5.302,0.556c2.039-1.029,4.053-0.906,6.196-0.444
		c-0.541,0.388-1.001,0.873-1.382,1.411c-1.747,0.02-3.524,0.187-5.258,0.338c-0.168,0.015-0.175,0.27,0,0.267
		c1.649-0.024,3.338-0.04,4.991-0.176c-0.297,0.503-0.539,1.036-0.68,1.599c-1.302-0.384-2.88,0.624-3.629,1.6
		c-0.849,1.107-1.165,2.491-0.704,3.774c-1.151,0.622-2.26,1.318-3.291,2.115C12.357,10.133,13.179,6.044,16.199,3.803z
		 M21.568,9.475c-1.21,0.377-2.382,0.858-3.52,1.402c-0.113-0.853,0.18-1.705,0.778-2.374c0.326-0.365,0.747-0.69,1.203-0.875
		c0.356-0.144,0.716-0.147,1.079-0.167C21.122,8.14,21.261,8.822,21.568,9.475z M46.264,13.758c1.486,2.867,2.52,6.086,3.335,9.207
		c1.338,5.125,2.155,10.175,0.935,15.148c-0.109-5.711-0.629-11.355-2.818-16.656c-1.715-4.153-4.282-7.612-7.596-9.953
		c-0.016-0.026-0.044-0.039-0.073-0.054c-1.57-1.097-3.306-1.946-5.2-2.495C39.099,4.351,44.394,10.151,46.264,13.758z
		 M46.719,24.79c-0.539,0.066-1.073,0.138-1.608,0.209c-0.109-0.795-0.259-1.575-0.446-2.34c0.575-0.099,1.141-0.22,1.7-0.356
		c0.515,1.577,0.922,3.244,1.241,4.971c-0.755,0.112-1.502,0.225-2.248,0.334c-0.041-0.701-0.102-1.395-0.183-2.083
		c0.538-0.1,1.072-0.209,1.596-0.344C46.983,25.127,46.946,24.762,46.719,24.79z M42.144,14.685
		c0.548,0.598,1.053,1.237,1.513,1.919c-0.611,0.039-1.223,0.08-1.835,0.14c-0.367-0.449-0.757-0.888-1.204-1.301
		c-0.2-0.185-0.412-0.343-0.618-0.513C40.714,14.855,41.429,14.772,42.144,14.685z M39.431,14.466
		c-1.385-1.02-2.898-1.717-4.483-2.173c1.239-0.16,2.482-0.279,3.734-0.378c1.162,0.672,2.199,1.469,3.104,2.393
		C41.004,14.329,40.218,14.384,39.431,14.466z M43.918,17.018c0.525,0.826,0.998,1.7,1.414,2.624
		c-0.568-0.028-1.14-0.032-1.714-0.023c-0.384-0.838-0.858-1.637-1.419-2.396C42.772,17.158,43.345,17.087,43.918,17.018z
		 M45.589,20.238c0.219,0.524,0.429,1.057,0.618,1.607c-0.569,0.064-1.138,0.127-1.704,0.198c-0.167-0.6-0.365-1.187-0.595-1.76
		C44.466,20.271,45.028,20.253,45.589,20.238z M47.676,27.645c0.147,0.829,0.281,1.667,0.393,2.518
		c-0.872,0.028-1.746,0.074-2.62,0.139c-0.008-0.703-0.025-1.406-0.057-2.105C46.167,28.053,46.931,27.872,47.676,27.645z
		 M48.213,33.523c-0.916,0.046-1.84,0.11-2.768,0.188c0.006-0.94,0.013-1.889,0.009-2.839c0.894-0.08,1.785-0.179,2.671-0.296
		c0.251,2.011,0.416,4.069,0.532,6.127c-1.066,0.097-2.132,0.215-3.198,0.358c-0.02-0.853-0.021-1.725-0.017-2.605
		c0.969-0.151,1.917-0.34,2.821-0.574C48.457,33.831,48.422,33.512,48.213,33.523z M37.824,11.459
		c-1.35,0.087-2.701,0.284-4.029,0.55c-4.868-1.022-10.296,0.073-14.92,1.584c-0.51,0.167-0.302,0.907,0.221,0.8
		c5.698-1.166,12.892-2.506,18.175,0.358c-1.387,0.217-2.765,0.487-4.109,0.763c-0.196,0.04-0.112,0.335,0.082,0.298
		c1.575-0.295,3.153-0.491,4.733-0.666c0.771,0.491,1.495,1.081,2.159,1.789c-1.836,0.232-3.667,0.531-5.469,0.857
		c-0.21,0.038-0.117,0.345,0.087,0.316c1.933-0.275,3.87-0.489,5.807-0.704c0.295,0.35,0.583,0.714,0.85,1.117
		c0.249,0.376,0.467,0.764,0.67,1.158c-1.742,0.109-3.484,0.338-5.174,0.591c-0.232,0.035-0.18,0.445,0.056,0.414
		c1.822-0.237,3.627-0.316,5.436-0.364c0.277,0.617,0.506,1.252,0.697,1.901c-2.117,0.273-4.231,0.543-6.382,0.655
		c-0.227,0.012-0.231,0.358,0,0.356c2.135-0.013,4.373-0.086,6.558-0.365c0.19,0.755,0.336,1.527,0.44,2.312
		c-2.238,0.296-4.467,0.576-6.75,0.662c-0.162,0.006-0.164,0.251,0,0.253c2.23,0.023,4.555-0.044,6.816-0.348
		c0.075,0.679,0.13,1.364,0.161,2.055c-2.22,0.304-4.432,0.542-6.727,0.524c-0.191-0.001-0.189,0.286,0,0.295
		c2.199,0.106,4.506,0.091,6.752-0.198c0.02,0.666,0.032,1.334,0.029,2.005c-2.182,0.198-4.364,0.454-6.529,0.671
		c-0.183,0.018-0.189,0.303,0,0.291c2.163-0.139,4.349-0.244,6.526-0.404c-0.01,0.959-0.032,1.918-0.049,2.868
		c-2.338,0.227-4.686,0.509-6.978,0.774c-0.156,0.018-0.163,0.241,0,0.248c2.21,0.104,4.621,0.047,6.966-0.219
		c-0.012,0.881-0.015,1.753,0.008,2.607c-1.927,0.282-3.85,0.6-5.757,0.881c-0.173,0.026-0.135,0.326,0.042,0.308
		c1.9-0.192,3.823-0.354,5.741-0.55c0.027,0.637,0.065,1.268,0.131,1.881c0.102,0.949,1.595,0.97,1.505,0
		c-0.063-0.667-0.097-1.357-0.123-2.054c1.076-0.123,2.145-0.269,3.208-0.437c0.114,2.177,0.181,4.348,0.242,6.456
		c-0.027-0.093-0.116-0.168-0.246-0.146c-1.842,0.311-3.584,0.688-5.468,0.669c-0.233-0.002-0.232,0.353,0,0.361
		c1.817,0.066,3.849-0.005,5.578-0.632c0.122-0.044,0.158-0.149,0.137-0.24c0.026,0.884,0.051,1.758,0.079,2.616
		c-0.023-0.006-0.044-0.018-0.069-0.014c-1.857,0.311-3.566,0.744-5.474,0.674c-0.236-0.009-0.234,0.352,0,0.366
		c1.802,0.104,3.874,0.044,5.555-0.697c0.029,0.869,0.061,1.725,0.1,2.557c-1.729,0.211-3.51,0.404-5.197,0.802
		c-0.176,0.042-0.14,0.324,0.043,0.318c1.718-0.063,3.471-0.345,5.179-0.598c0.031,0.602,0.065,1.195,0.105,1.772
		c-0.013-0.003-0.021-0.015-0.036-0.015c-1.991,0.024-4.018,0.358-5.996,0.58c-0.158,0.018-0.165,0.264,0,0.253
		c1.998-0.137,4.064-0.176,6.04-0.511c0.006-0.001,0.007-0.007,0.013-0.009c0.034,0.464,0.071,0.921,0.114,1.366
		c-2.538,0.702-5.017,1.188-7.673,1.178c-0.23-0.001-0.229,0.351,0,0.356c2.591,0.057,5.253-0.218,7.716-1.067
		c0.058,0.551,0.121,1.09,0.195,1.608c-0.374,0.163-0.65,0.6-0.42,1.082c0.05,0.104,0.083,0.202,0.116,0.301
		c-7.297,0.743-14.609,1.491-21.875,2.483c-0.099,0.014-0.076,0.182,0.024,0.175c7.328-0.537,14.65-1.326,21.956-2.115
		c0.112,3.486-11.247,3.207-12.631,3.246c-3.156,0.088-6.312,0.176-9.468,0.265c-4.109,0.115-22.86,2.764-20.938-5.924
		c0.079-0.357-0.131-0.608-0.394-0.695c0.901-9.633-1.408-19.736,1.515-29.105C10.516,15.37,19.846,9.488,29.816,9.669
		c0.104,0.039,0.222,0.043,0.338,0.013C33.192,9.779,35.71,10.416,37.824,11.459z M32.748,8.489c-0.666-0.11-1.352-0.178-2.05-0.22
		c-0.02-1.773-1.216-3.765-2.939-4.07c-1.919-0.341-3.921,1.515-3.064,3.431c0.227,0.507,1.002,0.14,0.874-0.368
		c-0.357-1.413,1.667-2.183,2.68-1.494c0.879,0.598,1.068,1.524,1.176,2.471c-0.118,0.001-0.231-0.012-0.351-0.009
		c-2.127,0.053-4.258,0.356-6.322,0.898c-0.731-2.362,0.693-5.126,3.003-5.979c0.021,0.005,0.041,0.011,0.062,0.016
		c0.18,0.047,0.327-0.036,0.415-0.16c0.229-0.056,0.464-0.099,0.706-0.116c1.573-0.106,2.753,0.441,3.647,1.332
		c0.044,0.123,0.138,0.225,0.263,0.278C31.788,5.575,32.375,7.049,32.748,8.489z"/>
	<path style="fill:#1D1D1B;" d="M47.974,40.32c-1.851,0.139-3.723,0.462-5.55,0.78c-0.209,0.036-0.163,0.394,0.05,0.373
		c1.846-0.183,3.736-0.373,5.557-0.734C48.264,40.692,48.214,40.302,47.974,40.32z"/>
	<path style="fill:#1D1D1B;" d="M20.217,5.586c-1.245-0.033-2.508,0.151-3.748,0.254c-0.232,0.019-0.236,0.381,0,0.366
		c1.257-0.08,2.549-0.085,3.791-0.302C20.445,5.871,20.393,5.591,20.217,5.586z"/>
	<path style="fill:#1D1D1B;" d="M56.217,26.304c-1.016,0.039-1.971,0.284-3.002,0.215c-0.253-0.017-0.245,0.363,0,0.389
		c0.987,0.104,2.171,0.159,3.09-0.28C56.461,26.553,56.384,26.298,56.217,26.304z"/>
	<path style="fill:#1D1D1B;" d="M43.965,3.281c-1.417,0.035-2.836,0.214-4.247,0.337c-0.192,0.017-0.198,0.315,0,0.305
		c1.413-0.071,2.841-0.089,4.247-0.248C44.211,3.647,44.225,3.274,43.965,3.281z"/>
</g>
<g>
</g>
<g>
</g>
<g>
</g>
<g>
</g>
<g>
</g>
<g>
</g>
<g>
</g>
<g>
</g>
<g>
</g>
<g>
</g>
<g>
</g>
<g>
</g>
<g>
</g>
<g>
</g>
<g>
</g>
</svg>
