<?xml version="1.0" encoding="iso-8859-1"?>
<!-- Generator: Adobe Illustrator 18.0.0, SVG Export Plug-In . SVG Version: 6.00 Build 0)  -->
<!DOCTYPE svg PUBLIC "-//W3C//DTD SVG 1.1//EN" "http://www.w3.org/Graphics/SVG/1.1/DTD/svg11.dtd">
<svg version="1.1" id="Capa_1" xmlns="http://www.w3.org/2000/svg" xmlns:xlink="http://www.w3.org/1999/xlink" x="0px" y="0px"
	 viewBox="0 0 66.97 66.97" style="enable-background:new 0 0 66.97 66.97;" xml:space="preserve">
<g>
	<g>
		<path style="fill:#1D1D1B;" d="M6.885,18.935c0.023,0.011,0.046,0.04,0.069,0.058C6.983,18.993,6.979,18.98,6.885,18.935z"/>
		<path style="fill:#1D1D1B;" d="M66.873,14.634c-3.977-7.428-13.068-10.87-20.32-14.201c-0.429-0.197-0.838,0.202-0.635,0.635
			c1.061,2.259,1.27,1.941-0.383,1.798c-0.392-0.034-0.68,0.411-0.579,0.761c0.027,0.095,0.054,0.19,0.081,0.284
			c-1.311-0.098-2.264,0.458-2.374,2.105c-0.044,0.662,0.81,0.897,1.225,0.535c0.635,0.539,1.272,1.076,1.914,1.61
			c-4.188-0.394-8.497,0.006-12.7,0.104c-3.562,0.083-7.158,0.041-10.683,0.579c0.43-0.529-0.077-1.283-0.698-1.339
			c-1.427-0.13-2.786-0.35-4.165-0.614c0.41-0.896,0.592-1.728,0.646-2.848c0.027-0.547-0.604-0.838-1.045-0.6
			c-2.69,1.45-0.642-0.397-2.276-1.583c-0.141-0.102-0.381-0.092-0.523,0C9.16,5.242,4.636,10.941,0.231,15.275
			c-0.49,0.482-0.159,1.556,0.609,1.47c1.246-0.14,2.491-0.266,3.738-0.388c-0.325,0.961-0.66,1.916-1.021,2.869
			c-0.083,0.22,0.003,0.575,0.191,0.722c0.333,0.261,0.73,0.325,1.013,0.51c0.349,0.23,0.598-0.079,1.087,0.277
			c0.439,0.319,0.142,0.55,0.418,0.769c0.488,0.388,0.833,0.705,1.226,0.806c-0.229,1.218-0.233,2.497-0.065,3.668
			c0.009,0.061,0.036,0.104,0.056,0.154c-0.607,8.187-0.45,16.562,0.105,24.732c-0.605-0.389-1.2-0.791-1.816-1.167
			c-0.168-0.102-0.316-0.058-0.412,0.044c-0.302-0.049-0.611,0.078-0.678,0.47c-0.201,1.175-0.508,0.921-1.375,0.28
			c-0.566-0.419-1.335,0.397-0.959,0.959c0.879,1.314,0.809,1.897-0.792,2.205C0.958,53.77,0.784,54.604,1.2,54.999
			c3.438,3.265,6.927,6.476,10.4,9.704c0.418,0.388,1.101,0.225,1.265-0.334c-0.082,0.281,2.562,0.09,2.88,0.063
			c0.525-0.043,0.98-0.613,0.644-1.123c-0.763-1.159-0.464-1.163,1.111-1.477c0.956-0.19,1.457,0.106,2.344-0.569
			c0.345-0.263,0.555-0.824,0.15-1.166c-1.043-0.88-2.099-1.738-3.162-2.584c9.872,1.494,20.073,1.465,30.06,1.567
			c-0.609,0.837-1.159,1.714-1.672,2.611c-0.209,0.091-0.415,0.219-0.611,0.396c-0.349,0.314-0.123,0.988,0.34,1.027
			c0.133,0.078,0.295,0.084,0.441-0.022c0.862-0.06,1.82,0.013,1.919,1.217c0.041,0.499,0.437,0.813,0.935,0.712
			c0.653-0.133,1.304-0.272,1.955-0.411c0.053,0.457,0.113,0.913,0.144,1.372c0.031,0.456,0.492,0.759,0.913,0.524
			c1.055-0.591,2.08-1.154,3.194-1.634c0.488-0.211,0.136-1.064-0.366-0.868c-0.861,0.337-1.722,0.689-2.57,1.066
			c-0.015-0.427-0.024-0.855-0.029-1.285c-0.006-0.481-0.432-0.735-0.868-0.661c-0.68,0.115-1.361,0.232-2.04,0.35
			c-0.335-0.818-1.022-1.518-1.812-1.806c4.083-4.307,8.015-8.385,12.929-11.826c0.059,0.442,0.119,0.883,0.179,1.325
			c-0.002,0.311,0.276,0.614,0.598,0.598c0.774-0.039,1.381-0.156,1.998-0.388c-0.189,0.69-0.499,1.156-0.261,2.019
			c0.155,0.562,0.815,0.156,1.061,0.589c0.965,1.703-0.18,3.091-1.18,4.611c0.102-0.155-5.552,7.031-5.775,5.404
			c-0.104-0.756-1.152-0.466-1.226,0.166c-0.136,1.173,0.571,2.005,1.785,2.042c2.328,0.071,4.556-3.488,5.707-5.111
			c0.981-1.383,3.75-5.035,3.232-6.989c-0.468-1.767-2.511-1.107-2.105-3.523c0.084-0.498-0.366-0.86-0.83-0.638
			c-2,0.958-1.672-0.46-1.854-1.657c-0.076-0.5-0.743-0.687-1.128-0.459c-0.339,0.201-0.676,0.412-1.014,0.621
			c0.65-9.983,0.578-20.242-0.001-30.255c1.603,1.128,3.22,2.233,4.853,3.302c0.763,0.5,1.655-0.475,1.22-1.22
			c-1.086-1.861-1.232-2.47-0.143-3.944c0.146-0.198,0.131-0.545,0-0.745c0.465,0.073,0.93,0.147,1.394,0.221
			C66.807,15.806,67.15,15.151,66.873,14.634z M6.953,18.993c-0.127,0.002-1.17-0.329-1.071-0.237
			c-0.857,0.365-0.985,0.219-0.383-0.439c0.331-0.872,0.64-1.753,0.927-2.64c0.152-0.449-0.258-1.011-0.741-0.973
			c-0.873,0.068-1.746,0.116-2.619,0.172c2.06-2.055,4.125-4.106,6.135-6.209c1.063-1.113,2.087-2.417,3.234-3.442
			c0.737-0.658,1.94-2.321,1.545-0.451c-0.077,0.365,0.175,0.841,0.609,0.8c0.687-0.064,1.277-0.184,1.856-0.365
			c-0.194,0.615-0.387,1.231-0.581,1.846c-0.238,0.407-0.011,0.911,0.425,1.046c1.174,0.362,2.337,0.623,3.52,0.826
			c-4.104,3.669-8.214,7.331-12.219,11.109C7.396,19.621,7.17,19.164,6.953,18.993z M17.929,60.299
			c-1.526-0.004-3.5-0.964-4.3,0.841c-0.319,0.72-0.138,1.195,0.208,1.609c-0.708-0.115-1.359-0.159-1.844,0.24
			c-2.847-2.706-5.692-5.415-8.561-8.097c0.496-0.127,0.974-0.295,1.435-0.582c0.275-0.171,0.442-0.523,0.343-0.844
			c-0.082-0.266-0.187-0.514-0.309-0.75c0.473,0.099,0.8-0.208,0.858-0.657c0.066-0.438,0.133-0.875,0.2-1.313
			c0.631,0.485,1.26,0.972,1.889,1.459c0.018,0.017,0.038,0.03,0.057,0.044C11.294,54.874,14.652,57.537,17.929,60.299z
			 M57.591,23.366c-2.655-0.072-5.451,0.487-8.061,0.748c-0.411,0.041-0.425,0.681,0,0.654c2.592-0.164,5.417-0.07,8.011-0.548
			c-0.166,2.966-0.289,5.944-0.355,8.923c-2.554-0.393-5.557,0.157-8.056,0.718c-0.326,0.073-0.178,0.53,0.135,0.488
			c2.625-0.354,5.311-0.271,7.914-0.644c-0.03,1.492-0.053,2.985-0.057,4.475c-0.909-0.074-1.837,0.19-2.746,0.257
			c-0.949,0.069-1.895,0.074-2.845,0.032c-0.363-0.016-0.349,0.52,0,0.556c1.666,0.172,3.97,0.437,5.593-0.234
			c0,1.296-0.009,2.594,0.013,3.887c-3.049-0.153-6.246,0.234-9.274,0.413c-0.403,0.024-0.411,0.636,0,0.633
			c3.036-0.019,6.247,0.147,9.285-0.196c0.025,1.223,0.061,2.443,0.107,3.66c-1.778,0.03-3.666,0.478-5.387,0.693
			c-0.327,0.041-0.345,0.552,0,0.527c1.728-0.124,3.666-0.057,5.42-0.367c0.02,0.462,0.032,0.927,0.054,1.389
			c0,0.002,0.001,0.004,0.001,0.006c-0.777,0.516-1.538,1.066-2.289,1.631c-2.373-0.045-4.852,0.27-7.19,0.492
			c-0.305,0.029-0.318,0.486,0,0.485c1.964-0.003,4.031,0.054,6.036-0.083c-0.855,0.686-1.691,1.396-2.496,2.141
			c-1.406,0.054-2.843,0.274-4.205,0.437c-0.349,0.042-0.372,0.571,0,0.563c1.048-0.024,2.141-0.031,3.224-0.093
			c-0.742,0.735-1.456,1.497-2.127,2.292c-10.556-0.228-21.216-1.154-31.764-0.721c-0.222,0.009-0.372,0.184-0.421,0.375
			c-2.332-1.829-4.714-3.582-7.183-5.225c0.45-8.371,0.487-16.967-0.267-25.353c0.196-0.137,0.344-0.341,0.352-0.611
			c0.049-1.882,0.222-3.819,0.166-5.698c-0.002-0.052-0.033-0.088-0.05-0.132c4.229-3.342,8.343-6.82,12.436-10.328
			c0.047,0.056,0.104,0.106,0.188,0.12c7.51,1.233,17.134,0.984,24.59-0.53c0.202-0.041,0.307-0.163,0.345-0.305
			c1.425,1.172,2.868,2.326,4.325,3.463c-1.273-0.033-2.565,0.059-3.819,0.093c-0.407,0.011-0.408,0.622,0,0.633
			c1.582,0.044,3.221,0.171,4.809,0.028c1.193,0.92,2.389,1.837,3.602,2.73c-2.378-0.452-5.125-0.198-7.409-0.03
			c-0.402,0.03-0.41,0.652,0,0.633c1.448-0.069,2.892-0.084,4.34-0.013c1.405,0.069,2.863,0.36,4.263,0.277
			c0.397,0.288,0.791,0.581,1.19,0.865C57.834,19.493,57.705,21.428,57.591,23.366z M63.512,14.905
			c-0.345,0.162-0.483,0.711-0.267,1.02c-0.182-0.26-1.328,0.946-1.382,1.124c-0.065,0.22-0.051,0.476-0.008,0.744
			c-1.052-0.816-2.105-1.629-3.177-2.424c-0.042-0.133-0.147-0.201-0.263-0.191c-4.414-3.262-8.976-6.342-13.612-9.24
			c0.352-0.135,0.705-0.271,1.057-0.407c0.642,0.138,1.084-0.486,0.813-1.058c0.245-0.119,0.49-0.238,0.734-0.357
			c0.261,0.049,0.624-0.183,0.493-0.493c-1.316-3.12,0.988-0.829,2.421,0c1.873,1.084,3.732,2.194,5.592,3.298
			c3.438,2.042,6.665,4.141,8.918,7.426C64.509,14.424,64.216,14.574,63.512,14.905z"/>
	</g>
	<path style="fill:#1D1D1B;" d="M56.873,28.867c-0.612,0.017-1.186,0.249-1.782,0.374c-0.734,0.154-1.481,0.23-2.229,0.265
		c-0.34,0.016-0.339,0.509,0,0.527c1.261,0.068,3.068,0.076,4.142-0.682C57.201,29.212,57.149,28.86,56.873,28.867z"/>
	<path style="fill:#1D1D1B;" d="M57.195,19.083c-1.606-0.159-3.396,0.245-4.997,0.431c-0.359,0.042-0.38,0.589,0,0.576
		c1.637-0.053,3.498,0.079,5.09-0.324C57.692,19.664,57.566,19.12,57.195,19.083z"/>
</g>
<g>
</g>
<g>
</g>
<g>
</g>
<g>
</g>
<g>
</g>
<g>
</g>
<g>
</g>
<g>
</g>
<g>
</g>
<g>
</g>
<g>
</g>
<g>
</g>
<g>
</g>
<g>
</g>
<g>
</g>
</svg>
