<?xml version="1.0" encoding="iso-8859-1"?>
<!-- Generator: Adobe Illustrator 18.0.0, SVG Export Plug-In . SVG Version: 6.00 Build 0)  -->
<!DOCTYPE svg PUBLIC "-//W3C//DTD SVG 1.1//EN" "http://www.w3.org/Graphics/SVG/1.1/DTD/svg11.dtd">
<svg version="1.1" id="Capa_1" xmlns="http://www.w3.org/2000/svg" xmlns:xlink="http://www.w3.org/1999/xlink" x="0px" y="0px"
	 viewBox="0 0 58.743 58.743" style="enable-background:new 0 0 58.743 58.743;" xml:space="preserve">
<g>
	<path style="fill:#1D1D1B;" d="M55.629,8.255C53.4,8.28,51.058,8.749,48.852,9.08c-0.109,0.016-0.084,0.201,0.026,0.193
		c2.227-0.157,4.613-0.212,6.797-0.673C55.871,8.559,55.825,8.253,55.629,8.255z"/>
	<path style="fill:#1D1D1B;" d="M58.519,41.725c-0.358-8.549-0.626-17.092-0.828-25.646c-0.059-2.502,0.867-7.286-1.086-9.312
		c-1.42-1.474-4.083-1.279-5.963-1.41c-3.561-0.248-10.09,0.66-7.861,5.594c-8.997-0.921-17.988-0.617-27.057-0.559
		c-3.793,0.024-12.775-1.91-15.077,2.403c-1.228,2.301-0.363,5.911-0.201,8.311c0.306,4.543,0.633,9.087,0.995,13.626
		c0.335,4.199,0.372,8.474,0.888,12.653c0.237,1.918,0.449,3.5,2.264,4.482c2.234,1.209,5.551,0.849,7.996,1
		c4.474,0.277,8.956,0.437,13.438,0.483c7.991,0.082,16.437,0.367,24.319-1.165c2.251-0.438,5.387-0.937,7.076-2.663
		C59.36,47.542,58.624,44.225,58.519,41.725z M56.827,44.391c-3.193,0.365-6.392,1.076-9.57,1.554
		c-0.151,0.023-0.117,0.283,0.036,0.269c3.106-0.284,6.443-0.601,9.477-1.419c-0.167,0.793-0.578,1.523-1.527,2.612
		c-3.556,0.602-7.078,1.384-10.648,1.93c-0.171,0.026-0.132,0.323,0.041,0.304c3.377-0.365,6.834-0.841,10.136-1.712
		c-1.623,1.74-2.534,2.093-4.893,2.561c-3.725,0.739-7.578,0.847-11.363,0.979c-7.044,0.246-14.096,0.144-21.132-0.271
		c-3.795-0.224-10.971,0.396-13.005-3.815c-1.098-2.273-0.516-7.182-0.673-9.733c-0.219-3.569-0.414-7.138-0.646-10.706
		c-0.216-3.333-1.157-7.405-0.755-10.706c0.549-4.497,3.979-3.657,7.586-3.648c3.888,0.009,7.777,0.041,11.665,0.068
		c7.216,0.051,14.232,0.137,21.386-0.604c0.228-0.024,0.374-0.143,0.453-0.291c0.633,0.249,1.479-0.46,1.096-1.265
		c-1.864-3.922,4.892-3.187,6.149-3.113c2.148,0.128,2.513-0.098,3.74,1.798c-1.807,0.071-3.65,0.371-5.427,0.541
		c-0.373,0.035-0.383,0.617,0,0.591c1.916-0.133,3.926-0.137,5.845-0.413c0.485,0.906,0.797,1.9,0.987,2.948
		c-1.491,0.015-3.109,0.454-4.553,0.664c-0.229,0.033-0.177,0.427,0.055,0.407c1.465-0.126,3.14-0.087,4.601-0.421
		c0.127,0.929,0.182,1.889,0.203,2.85c-2.941,0.321-5.816,0.978-8.802,1.119c-0.333,0.016-0.337,0.518,0,0.52
		c2.809,0.016,6.077-0.086,8.813-0.988c0.013,1.218-0.007,2.429,0.032,3.573c-1.972,0.19-3.968,0.626-5.901,0.94
		c-0.213,0.035-0.166,0.404,0.051,0.38c1.924-0.216,3.942-0.332,5.872-0.671c0.034,0.812,0.057,1.623,0.089,2.434
		c-0.299,0.139-0.586,0.313-0.867,0.497c-1.61,0.412-3.056,0.776-4.752,0.587c-0.339-0.038-0.422,0.549-0.081,0.601
		c1.72,0.259,3.697,0.23,5.264-0.614c0.107-0.058,0.152-0.149,0.16-0.245c0.103-0.054,0.201-0.114,0.301-0.174
		c0.068,1.803,0.139,3.606,0.197,5.409c-0.037-0.05-0.087-0.09-0.163-0.091c-2.542-0.027-5.207,0.578-7.728,0.92
		c-0.194,0.026-0.151,0.363,0.047,0.345c2.535-0.229,5.264-0.236,7.741-0.83c0.053-0.013,0.086-0.045,0.112-0.08
		c0.029,0.926,0.061,1.853,0.088,2.779c-3.21,0.362-6.373,0.892-9.606,1.079c-0.309,0.018-0.314,0.493,0,0.485
		c3.192-0.081,6.5-0.247,9.623-0.969c0.036,1.241,0.077,2.481,0.111,3.722c-3.001-0.004-6.084,0.494-9.065,0.751
		c-0.352,0.03-0.36,0.579,0,0.556c2.988-0.194,6.111-0.171,9.084-0.618c0.03,1.109,0.066,2.218,0.093,3.328
		c-3.418,0.323-6.866,1.166-10.232,1.792c-0.261,0.049-0.146,0.431,0.108,0.393c3.348-0.497,6.839-0.824,10.139-1.615
		c0,0.019,0.001,0.037,0.001,0.056C56.852,42.888,56.908,43.685,56.827,44.391z"/>
</g>
<g>
</g>
<g>
</g>
<g>
</g>
<g>
</g>
<g>
</g>
<g>
</g>
<g>
</g>
<g>
</g>
<g>
</g>
<g>
</g>
<g>
</g>
<g>
</g>
<g>
</g>
<g>
</g>
<g>
</g>
</svg>
