<?xml version="1.0" encoding="iso-8859-1"?>
<!-- Generator: Adobe Illustrator 18.0.0, SVG Export Plug-In . SVG Version: 6.00 Build 0)  -->
<!DOCTYPE svg PUBLIC "-//W3C//DTD SVG 1.1//EN" "http://www.w3.org/Graphics/SVG/1.1/DTD/svg11.dtd">
<svg version="1.1" id="Capa_1" xmlns="http://www.w3.org/2000/svg" xmlns:xlink="http://www.w3.org/1999/xlink" x="0px" y="0px"
	 viewBox="0 0 52.523 52.523" style="enable-background:new 0 0 52.523 52.523;" xml:space="preserve">
<g>
	<path style="fill:#1D1D1B;" d="M51.801,16.343c-0.022-0.128-0.068-0.228-0.118-0.32c0.589-0.737,0.269-2.121-0.968-2.149
		c-8.55-0.193-17.11-0.065-25.66,0.122c-7.683,0.168-15.652-0.032-23.254,1.26c-0.644-0.462-1.786-0.191-1.783,0.844
		c0.007,2.32-0.488,20.282,3.396,19.04c0.134-0.043,0.204-0.132,0.246-0.232c-0.131,0.435,0.113,0.985,0.723,1.046
		c13.312,1.33,26.767,1.669,40.117,2.556c3.315,0.22,5.873,1.035,6.825-2.514C52.856,30.291,52.811,22.138,51.801,16.343z
		 M37.384,26.417c4.115-0.055,8.225,0.27,12.329,0.316c-0.024,0.928-0.073,1.846-0.189,2.738c-1.635-0.266-3.507-0.008-5.141,0.045
		c-0.348,0.011-0.349,0.53,0,0.542c1.603,0.053,3.433,0.301,5.044,0.061c-0.114,0.689-0.264,1.363-0.47,2.013
		c0.033,0.208,0.047,0.405,0.052,0.596c-4.082-0.153-8.22,0.07-12.301-0.007c-0.307-0.006-0.298,0.447,0,0.471
		c3.983,0.319,8.186,0.667,12.213,0.355c-0.255,1.049-1.085,1.75-2.512,2.091c-1.272-0.095-2.543-0.186-3.815-0.275
		c-2.544-0.177-5.089-0.352-7.635-0.494C24.82,34.303,14.53,33.798,4.383,34.37c-0.378,0.021-0.611,0.228-0.708,0.484
		c0.052-0.196-0.031-0.424-0.261-0.512c-1.13-0.435-0.843-8.253-0.904-9.515c-0.133-2.74-0.214-5.485-0.266-8.228
		c7.839,0.792,15.94,0.167,23.798,0.094c7.943-0.073,15.888-0.063,23.83-0.206c-0.011,0.042-0.033,0.078-0.039,0.122
		c-0.126,1.008-0.174,2.06-0.185,3.134c-3.708-0.341-7.591,0.04-11.265,0.5c-0.266,0.033-0.282,0.445,0,0.429
		c3.764-0.222,7.511-0.062,11.268-0.166c0.004,0.78,0.017,1.566,0.036,2.358c-2.013,0.225-3.871,0.42-5.911,0.063
		c-0.373-0.065-0.539,0.494-0.159,0.576c1.958,0.423,4.118,0.615,6.087,0.113c0.017,0.754,0.03,1.509,0.026,2.259
		c-4.055-0.468-8.333-0.245-12.345,0.021C37.053,25.919,37.045,26.421,37.384,26.417z"/>
</g>
<g>
</g>
<g>
</g>
<g>
</g>
<g>
</g>
<g>
</g>
<g>
</g>
<g>
</g>
<g>
</g>
<g>
</g>
<g>
</g>
<g>
</g>
<g>
</g>
<g>
</g>
<g>
</g>
<g>
</g>
</svg>
