<?xml version="1.0" encoding="iso-8859-1"?>
<!-- Generator: Adobe Illustrator 18.0.0, SVG Export Plug-In . SVG Version: 6.00 Build 0)  -->
<!DOCTYPE svg PUBLIC "-//W3C//DTD SVG 1.1//EN" "http://www.w3.org/Graphics/SVG/1.1/DTD/svg11.dtd">
<svg version="1.1" id="Capa_1" xmlns="http://www.w3.org/2000/svg" xmlns:xlink="http://www.w3.org/1999/xlink" x="0px" y="0px"
	 viewBox="0 0 63.384 63.384" style="enable-background:new 0 0 63.384 63.384;" xml:space="preserve">
<g>
	<path style="fill:#1D1D1B;" d="M38.692,9.149c-0.189-2.516-0.334-5.065-0.754-7.555c0.404-0.376,0.238-1.27-0.498-1.326
		c-1.162-0.089-2.324-0.178-3.485-0.267c-0.498-0.038-0.866,0.519-0.737,0.968c0.216,0.751,0.732,3.784-0.741,3.521
		c0.133-1.14,0.458-2.904-0.196-3.672c-0.734-0.862-2.258-0.142-3.058,0.204c-0.044,0.019-0.074,0.046-0.104,0.073
		c-0.222-0.143-0.552-0.112-0.608,0.214c-0.363,2.123-1.883,7.418,0.932,8.557c1.213,0.491,2.595-0.85,3.489,0.118
		c0.37,0.401,0.145,2.563,0.178,3.058c0.037,0.559-0.009,1.627,0.38,2.132c0.994,1.293,4.575,0.611,5.279-0.646
		C39.547,13.143,38.803,10.624,38.692,9.149z M37.012,13.846c-0.639,0.533-1.95-0.255-2.267-0.805
		c-0.563-0.977,0.113-2.691-0.267-3.805c-0.335-0.982-1.029-1.455-2.063-1.371C30.87,7.991,29.409,8.943,29.36,6.37
		c-0.029-1.534,0.049-3.053-0.024-4.587c0.066,0.02,0.135,0.03,0.211,0.01c0.546-0.204,1.108-0.229,1.688-0.077
		c-0.053,0.36-0.085,0.723-0.096,1.087c-0.053,0.724-0.086,1.45-0.128,2.174c-0.014,0.23,0.141,0.513,0.352,0.613
		c1.068,0.508,2.197,0.279,2.988-0.631c0.831-0.956,0.811-2.188,0.583-3.365c0.616,0.041,1.231,0.082,1.847,0.123
		c0,0.004-0.002,0.007-0.003,0.011c-0.01,0.333-0.002,0.668-0.002,1.002c-0.375,0.058-0.741,0.198-1.104,0.306
		c-0.425,0.127-0.249,0.766,0.183,0.664c0.304-0.071,0.618-0.128,0.919-0.221c0.011,0.807,0.036,1.615,0.079,2.424
		c-0.357-0.018-0.708-0.086-1.046-0.237c-0.178-0.079-0.334,0.169-0.156,0.267c0.391,0.215,0.803,0.34,1.225,0.372
		c0.048,0.839,0.104,1.678,0.167,2.516c-0.313,0.008-0.626,0.024-0.94,0.042c-0.249,0.014-0.249,0.373,0,0.387
		c0.324,0.018,0.649,0.034,0.973,0.042c0.063,0.822,0.128,1.642,0.186,2.458c-0.455-0.001-0.91,0.172-1.278,0.441
		c-0.214,0.157-0.025,0.507,0.213,0.364c0.372-0.223,0.737-0.275,1.128-0.267C37.406,12.86,37.48,13.456,37.012,13.846z"/>
	<path style="fill:#1D1D1B;" d="M39.769,30.949c-1.381,0.152-2.765,0.269-4.147,0.403c2.324-3.747,6.177-10.666,0.508-12.751
		c-3.592-1.321-9.414,2.698-6.615,6.548c0.132,0.181,0.411,0.182,0.558,0.059c0.34,0.148,0.68,0.297,1.02,0.445
		c0.381,0.166,0.687,0.362,1.11,0.241c0.206-0.059,0.357-0.285,0.332-0.499c0.301-0.585,0.618-1.08,1.178-1.257
		c-0.149,0.972-0.395,1.906-0.83,2.809c-0.522,1.087-1.287,1.918-2.022,2.857c-0.077,0.098-0.082,0.228-0.046,0.339
		c-0.154,0.069-0.278,0.198-0.314,0.409c-0.36,2.09-0.029,4.141,0.596,6.147c0.1,0.32,0.395,0.566,0.739,0.562
		c2.49-0.024,4.977-0.154,7.469-0.154c0.293,0,0.637-0.222,0.694-0.528c0.296-1.598,0.474-3.171,0.613-4.79
		C40.647,31.371,40.195,30.903,39.769,30.949z M31.621,24.724c-0.041-0.011-0.078-0.021-0.122-0.033
		c-0.43-0.118-0.86-0.237-1.29-0.355c-0.081-0.022-0.155-0.011-0.224,0.012c-0.609-2.976,3.8-5.067,6.017-3.665
		c-0.443,0.002-0.888,0.055-1.301,0.132c-0.356,0.066-0.198,0.586,0.148,0.536c0.657-0.096,1.27-0.022,1.889,0.071
		c0.28,0.435,0.464,0.987,0.486,1.699c-0.596-0.003-1.19,0.022-1.787,0.049c-0.285,0.013-0.285,0.43,0,0.443
		c0.6,0.027,1.199,0.053,1.798,0.049c-0.044,0.599-0.19,1.19-0.393,1.774c-0.577-0.046-1.161-0.011-1.738-0.003
		c-0.021,0-0.029,0.017-0.047,0.021c0.136-0.687,0.17-1.38,0.084-2.034c-0.045-0.342-0.269-0.686-0.666-0.666
		C33.291,22.815,31.919,23.53,31.621,24.724z M38.917,33.428c-0.604-0.003-1.206,0.012-1.813,0.04c-0.33,0.015-0.331,0.498,0,0.513
		c0.598,0.028,1.191,0.043,1.786,0.041c-0.042,0.545-0.102,1.089-0.19,1.629c-2.1-0.069-4.214-0.095-6.31,0.047
		c-0.518-1.625-0.624-3.247-0.594-4.97c0.004-0.238-0.126-0.412-0.299-0.521c1.714-0.704,2.931-2.426,3.43-4.268
		c0.046,0.041,0.099,0.077,0.178,0.078c0.501,0.007,1.008,0.037,1.51,0.015c-0.455,1.077-1.095,2.127-1.747,3.14
		c-0.255,0.005-0.51,0.019-0.764,0.03c-0.244,0.011-0.245,0.369,0,0.38c0.161,0.007,0.323,0.016,0.485,0.024
		c-0.445,0.687-0.881,1.358-1.246,2.008c-0.501,0.891,0.609,1.67,1.298,1.171c1.435,0.187,2.876,0.16,4.307-0.028
		C38.947,32.982,38.927,33.205,38.917,33.428z"/>
	<path style="fill:#1D1D1B;" d="M26.078,17.765c-0.029-0.337-0.208-0.596-0.535-0.703c-0.563-0.184-1.68,0.205-2.076-0.017
		c-0.378-0.212-0.392-1.73-0.665-2.186c-0.911-1.522-2.707-1.81-4.322-2c-0.379-0.045-0.626,0.34-0.659,0.659
		c-0.111,1.081,0,2.033,0.298,3.048c-0.763-0.08-1.526-0.157-2.292-0.205c-0.399-0.025-0.727,0.355-0.732,0.732
		c-0.022,1.544-0.085,3.068-0.288,4.601c-0.044,0.33,0.315,0.606,0.609,0.609c0.891,0.01,1.973,0.182,2.934,0.103
		c-0.035,0.613-0.071,1.226-0.106,1.838c-0.035,0.599-0.259,1.428-0.101,2.007c0.258,0.949,1.701,1.044,2.455,0.818
		c1.059-0.318,1.766-1.231,2.031-2.274c0.19-0.747,0.277-1.74,0.154-2.625c0.871-0.029,1.743-0.059,2.614-0.085
		c0.408-0.012,0.695-0.321,0.721-0.721C26.196,20.158,26.183,18.971,26.078,17.765z M22.437,20.618
		c-0.122-0.001-0.227,0.023-0.319,0.064c-0.382-0.168-0.893,0.061-1.045,0.487c-0.068,0.191-0.101,0.387-0.119,0.586
		c-0.283,0.004-0.567,0.018-0.85,0.026c-0.357,0.01-0.358,0.545,0,0.556c0.281,0.008,0.563,0.022,0.844,0.026
		c0.025,0.465,0.092,0.937,0.085,1.4c-0.31,0.018-0.619,0.036-0.929,0.054c-0.312,0.018-0.312,0.467,0,0.485
		c0.286,0.017,0.573,0.033,0.859,0.05c-0.164,0.666-0.693,1.415-1.366,1.182c-0.214-1.074-0.343-2.175-0.485-3.264
		c0.043-0.012,0.088-0.019,0.129-0.033c0.499-0.17,0.484-0.824,0-1c-0.897-0.326-2.062-0.217-3.098-0.168
		c0.188-1.098,0.325-2.207,0.384-3.319c0.86-0.094,1.718-0.208,2.577-0.322c0.409-0.055,0.456-0.51,0.16-0.68
		c0.002-0.05,0.008-0.098-0.005-0.154c-0.173-0.784-0.222-1.547-0.182-2.325c0.93,0.154,1.909,0.435,2.42,1.183
		c-0.368-0.025-0.741-0.007-1.117,0.072c-0.295,0.062-0.167,0.498,0.123,0.447c0.421-0.073,0.832-0.063,1.237,0.003
		c0.028,0.09,0.062,0.174,0.079,0.273c0.054,0.312,0.015,0.598,0.022,0.88c-0.579-0.011-1.16-0.002-1.738,0.006
		c-0.335,0.005-0.335,0.516,0,0.52c0.62,0.009,1.243,0.018,1.864,0.001c0.027,0.06,0.039,0.119,0.08,0.18
		c0.641,0.938,1.677,0.513,2.606,0.556c0.023,0.358,0.012,0.717,0.019,1.076c-1.294-0.086-2.61-0.003-3.903,0.019
		c-0.312,0.005-0.313,0.48,0,0.485c1.296,0.021,2.615,0.105,3.912,0.018c-0.001,0.217,0.018,0.434,0.011,0.652
		C23.941,20.632,23.189,20.625,22.437,20.618z"/>
	<path style="fill:#1D1D1B;" d="M48.253,39.213c-0.052-0.015-0.105-0.025-0.156-0.04c-0.02-0.095-0.034-0.178-0.055-0.277
		c-0.147-0.672-0.956-0.543-1.18-0.039c-8.734-2.015-18.435,0.995-27.352-0.306c-0.296-0.043-0.496,0.192-0.512,0.42
		c-0.367,0.042-0.704,0.286-0.694,0.756c0.015,0.667,0.029,1.333,0.044,2c0.01,0.44,0.318,0.671,0.653,0.713
		c-0.068,0.202,0.003,0.436,0.286,0.51c7.386,1.94,15.45,0.897,23.001,0.829c4.826-0.044,6.651,0.504,5.982-3.674
		C48.67,39.983,48.704,39.348,48.253,39.213z M46.683,40.343c-0.023-0.116-0.104-0.217-0.244-0.2
		c-1.886,0.225-3.769,0.379-5.668,0.283c-0.373-0.019-0.366,0.547,0,0.576c1.94,0.157,3.84,0.102,5.739-0.342
		c0.029-0.007,0.04-0.032,0.063-0.047c-1.599,2.887-10.53,1.93-12.981,1.989c-4.66,0.112-9.242,0.168-13.875-0.46
		c0.08-0.112,0.14-0.243,0.144-0.417c0.015-0.667,0.029-1.333,0.044-2c0.002-0.103-0.023-0.187-0.05-0.269
		c4.347,0.887,8.53,0.852,12.984,0.638c4.686-0.225,9.282-0.062,13.944,0.011C46.762,40.192,46.713,40.262,46.683,40.343z"/>
	<path style="fill:#1D1D1B;" d="M42.919,54.481c-1.216-2.687-4.362-3.715-6.91-2.852c0.408-0.336,0.829-0.652,1.271-0.915
		c1.234-0.736,2.578-0.748,3.84-1.305c0.454-0.201,0.404-0.778,0.103-1.082c0.159-0.196,0.193-0.481-0.035-0.709
		c-0.374-0.373-0.853-0.618-1.266-0.942c-0.423-0.333-0.795-0.732-1.106-1.17c-0.281-0.396-0.815-0.228-0.915,0.129
		c-10.909-0.717-11.535,18.785-0.238,17.706C41.809,62.945,44.669,58.35,42.919,54.481z M41.627,58.136
		c-0.142,0.029-0.289,0.042-0.456,0.012c-0.294-0.052-0.422,0.37-0.125,0.454c0.132,0.038,0.269,0.06,0.406,0.07
		c-1.019,2.526-4.06,3.637-6.775,2.438c-3.291-1.454-4.079-5.274-3.318-8.512c0.818-3.479,3.449-5.638,6.875-6.103
		c0.071,0.114,0.15,0.227,0.23,0.341c-0.456,0.024-0.913,0.065-1.36,0.086c-0.279,0.013-0.282,0.438,0,0.436
		c0.58-0.004,1.176,0.019,1.765,0c0.232,0.267,0.488,0.513,0.765,0.714c-0.259,0.03-0.521,0.096-0.782,0.167
		c-1.247,0.22-2.479,0.358-3.748,0.246c-0.288-0.025-0.275,0.407,0,0.443c0.627,0.083,1.252,0.115,1.873,0.092
		c-0.31,0.173-0.602,0.352-0.858,0.53c-1.45,1.012-2.327,2.359-2.883,4.007c-0.062,0.185,0.013,0.332,0.137,0.42
		c0.128,0.323,0.604,0.521,0.91,0.224c1.648-1.604,4.216-1.827,5.881-0.707c-0.678-0.006-1.349-0.057-2.031-0.227
		c-0.269-0.067-0.376,0.328-0.114,0.414c0.9,0.293,1.846,0.443,2.783,0.349c0.369,0.399,0.656,0.893,0.824,1.485
		c-0.508-0.01-1.018,0.008-1.525,0.021c-0.244,0.006-0.245,0.373,0,0.38c0.543,0.014,1.089,0.036,1.632,0.019
		c0.042,0.238,0.066,0.489,0.071,0.753C41.815,57.206,41.748,57.688,41.627,58.136z"/>
	<path style="fill:#1D1D1B;" d="M40.199,57.399c-0.265-1.658-1.877-2.888-3.538-2.421c-0.099,0.028-0.167,0.101-0.215,0.188
		c-0.139-0.134-0.343-0.211-0.576-0.175c-1.552,0.243-2.145,2.258-1.848,3.604c0.37,1.682,2.005,2.538,3.634,2.206
		C39.241,60.479,40.464,59.053,40.199,57.399z M37.203,59.067c-0.728,0.099-1.363-0.299-1.531-1.024
		c-0.193-0.835,0.267-1.447,0.788-2.037c0.084-0.095,0.126-0.195,0.149-0.295c0.021,0.007,0.028,0.027,0.051,0.03
		C38.412,55.985,39.453,58.759,37.203,59.067z"/>
</g>
<g>
</g>
<g>
</g>
<g>
</g>
<g>
</g>
<g>
</g>
<g>
</g>
<g>
</g>
<g>
</g>
<g>
</g>
<g>
</g>
<g>
</g>
<g>
</g>
<g>
</g>
<g>
</g>
<g>
</g>
</svg>
