<?xml version="1.0" encoding="iso-8859-1"?>
<!-- Generator: Adobe Illustrator 18.0.0, SVG Export Plug-In . SVG Version: 6.00 Build 0)  -->
<!DOCTYPE svg PUBLIC "-//W3C//DTD SVG 1.1//EN" "http://www.w3.org/Graphics/SVG/1.1/DTD/svg11.dtd">
<svg version="1.1" id="Capa_1" xmlns="http://www.w3.org/2000/svg" xmlns:xlink="http://www.w3.org/1999/xlink" x="0px" y="0px"
	 viewBox="0 0 61.095 61.095" style="enable-background:new 0 0 61.095 61.095;" xml:space="preserve">
<g>
	<path style="fill:#1D1D1B;" d="M52.291,24.456c0.232-0.508,0.341-1.077,0.305-1.629c-0.031-0.472-0.152-1.094-0.466-1.503
		c-2.245-5.168-5.053-10.197-8.34-14.771c-2.151-2.993-4.669-5.562-8.315-6.518c-0.136-0.036-0.236,0.008-0.3,0.084
		c-1.725-0.534-3.842,0.802-3.915,2.689c-0.317-0.177-0.631-0.36-0.962-0.513c-7.903-3.659-18.688,0.098-20.735,9.081
		c-0.012,0.052,0.002,0.095,0.018,0.136c-0.138-0.15-0.276-0.3-0.408-0.448c-0.31-0.344-0.931,0.118-0.651,0.503
		c1.742,2.398,4.214,5.088,7.097,7.505c-3.642,1.35-3.388,6.58-0.559,8.783c3.704,2.884,9.065,1.201,11.612-2.379
		c0.006-0.009,0.006-0.017,0.012-0.025c3.379,1.033,6.805,1.161,9.969-0.174c0.44-0.186,0.528-0.669,0.374-1.003
		c2.719-3.985,2.926-8.818,1.352-13.05c2.377,3.986,4.647,8.046,7.119,11.952c-4.884,7.778-8.924,16.361-12.559,24.78
		c-0.116,0.268-0.073,0.52,0.042,0.728c-0.303,0.605-0.275,1.415,0.175,2.009c1.13,1.49,3.591,1.085,5.181,0.901
		c0.223-0.026,0.379-0.156,0.453-0.319c0.014-0.016,0.032-0.023,0.045-0.041c0.389-0.524,0.767-1.057,1.145-1.591
		c2.805,0.044,5.619,0.009,8.395-0.204c0.336,0.376,0.65,0.775,0.922,1.209c-0.084,0.241-0.188,0.459-0.296,0.673
		c-3.945,0.623-7.884,0.919-11.886,0.926c-0.163,0-0.163,0.248,0,0.253c3.888,0.124,7.754-0.135,11.597-0.683
		c-0.391,0.605-0.873,1.11-1.439,1.512c-4.3,0.147-8.618,0.596-12.898,0.879c-0.149,0.01-0.152,0.241,0,0.234
		c3.894-0.17,7.833-0.205,11.739-0.452c-3.462,1.548-8.619,0.831-11.734,0.772C31.12,54.7,24.183,55.417,21.65,52.53
		c-0.008-0.033-0.016-0.066-0.025-0.099c0.115-0.102,0.205-0.239,0.227-0.427c0.711-6.097,7.327-5.315,11.672-6.034
		c0.486-0.08,0.452-0.844,0-0.949c-4.818-1.117-12.114,0.534-12.872,6.157c-0.223-0.052-0.473,0.06-0.457,0.357
		c0.036,0.672,0.215,1.248,0.497,1.749c0.122,1.562,0.039,3.083-0.124,4.674c-0.063,0.612,0.498,0.824,0.954,0.665
		c0.04,0.027,0.076,0.057,0.127,0.075c9.112,3.252,19.463,3.292,28.439-0.473c0.311-0.13,0.445-0.409,0.447-0.679
		c0.239-0.062,0.445-0.251,0.463-0.582c0.121-2.198,0.397-4.512,0.093-6.7c-0.058-0.416-0.501-0.584-0.884-0.518
		c-0.696-1.394-1.85-2.486-3.277-3.192c-1.204-0.596-2.886-1.066-4.305-0.794c4.17-6.412,7.659-13.309,9.986-20.582
		C52.726,24.816,52.548,24.566,52.291,24.456z M49.537,53.696c0.032,0.757,0.081,1.513,0.13,2.262
		c-5.847,0.503-11.693,0.98-17.549,1.371c-0.251,0.017-0.255,0.406,0,0.394c5.867-0.285,11.735-0.698,17.58-1.289
		c0.01,0.163,0.022,0.328,0.031,0.489h-0.001c-9.361,2.945-18.134,3.412-27.633,0.787c0.108-0.982,0.089-1.989-0.028-2.988
		c3.384,2.25,10.419,1.541,13.264,1.595c3.873,0.073,11.308,0.92,14.006-2.603C49.404,53.707,49.471,53.703,49.537,53.696z
		 M32.319,2.966c0.105-1.286,1.976-2.313,2.994-1.324c0.877,0.853,0.382,2.527-0.685,2.964c-0.102,0.042-0.18,0.101-0.242,0.17
		c-0.009-0.001-0.011-0.009-0.02-0.009c-0.122-0.003-0.246-0.004-0.368-0.006c-0.582-0.517-1.199-0.996-1.856-1.423
		C32.236,3.251,32.305,3.128,32.319,2.966z M17.603,27.331c-3.554-1.194-4.058-5.428-1.062-7.508
		c2.667,2.116,5.638,3.957,8.686,5.121C23.015,26.703,20.563,28.326,17.603,27.331z M37.477,17.15
		c-6.193-0.223-12.424-0.235-18.62-0.307c-0.088-0.001-0.086,0.13,0,0.136c6.152,0.437,12.42,0.724,18.595,0.59
		c-0.068,0.789-0.184,1.584-0.348,2.377c-5.288-0.43-10.685-0.379-15.985-0.441c-0.142-0.002-0.141,0.214,0,0.22
		c5.272,0.258,10.633,0.634,15.916,0.529c-0.159,0.719-0.345,1.436-0.577,2.147c-4.014-0.304-8.075-0.392-12.095-0.478
		c-0.131-0.003-0.128,0.192,0,0.202c3.97,0.281,7.982,0.564,11.967,0.635c-0.129,0.376-0.26,0.751-0.408,1.122
		c-0.031,0.077-0.042,0.148-0.041,0.215c-9.39,2.857-20.088-5.851-26.17-12.442c0.098,0.039,0.217,0.02,0.288-0.095
		c4.229-6.94,11.531-11.868,19.77-8.011c0.747,0.35,1.415,0.751,2.042,1.177c-2.317-0.02-4.651,0.014-6.944,0.155
		c-0.175,0.011-0.175,0.261,0,0.272c2.565,0.166,5.178,0.196,7.764,0.168c0.65,0.516,1.241,1.067,1.75,1.662
		c-3.324-0.139-6.702,0.039-10.015,0.058c-0.223,0.001-0.224,0.346,0,0.347c3.431,0.019,6.933,0.212,10.37,0.043
		c0.52,0.667,0.97,1.369,1.336,2.109c-3.816-0.119-7.639-0.128-11.457-0.168c-0.19-0.002-0.19,0.29,0,0.295
		c3.891,0.118,7.786,0.272,11.68,0.304c0.392,0.874,0.684,1.791,0.883,2.736c-6.325-0.512-12.722-0.617-19.062-0.528
		c-0.139,0.002-0.139,0.213,0,0.216c6.396,0.131,12.764,0.473,19.151,0.785c0.12,0.682,0.2,1.375,0.229,2.08
		c-4.788-0.228-9.589-0.316-14.379-0.45c-0.181-0.005-0.18,0.273,0,0.281c4.792,0.209,9.592,0.465,14.388,0.58
		C37.513,16.161,37.508,16.654,37.477,17.15z M46.036,47.721c0.123,0.051,0.245,0.098,0.37,0.162
		c0.562,0.287,1.053,0.654,1.497,1.069c-2.512,0.006-5.03,0.079-7.547,0.156c0.33-0.473,0.655-0.95,0.979-1.428
		C42.903,47.707,44.47,47.724,46.036,47.721z M49.837,28.424c-1.076,0.09-2.127,0.177-3.22,0.089c-0.227-0.018-0.222,0.328,0,0.352
		c0.985,0.104,2.018,0.147,3.014,0.018c-0.292,0.659-0.585,1.316-0.883,1.969c-0.028-0.038-0.067-0.065-0.131-0.057
		c-1.687,0.207-3.288,0.52-5.002,0.474c-0.251-0.007-0.25,0.379,0,0.389c1.619,0.063,3.437,0.029,4.991-0.498
		c-0.345,0.751-0.685,1.505-1.039,2.25c-1.075,0.069-2.107,0.193-3.199,0.088c-0.247-0.024-0.243,0.359,0,0.384
		c0.963,0.102,2.022,0.145,2.998-0.049c-0.349,0.73-0.683,1.47-1.044,2.194c-1.401-0.029-2.808,0.022-4.207,0.037
		c-0.193,0.002-0.193,0.298,0,0.3c1.335,0.014,2.678,0.063,4.016,0.042c-0.271,0.54-0.537,1.082-0.815,1.618
		c-1.316-0.03-2.644-0.011-3.951,0.03c-0.205,0.006-0.205,0.312,0,0.319c1.241,0.038,2.5,0.056,3.752,0.034
		c-0.268,0.514-0.528,1.032-0.803,1.543c-1.488,0.122-2.949,0.187-4.447,0.13c-0.144-0.006-0.138,0.206,0,0.22
		c1.41,0.147,2.862,0.142,4.275-0.032c-0.317,0.584-0.621,1.175-0.948,1.754c-1.522-0.049-3.058,0.02-4.578,0.053
		c-0.178,0.004-0.178,0.273,0,0.277c1.448,0.031,2.91,0.094,4.361,0.059c-0.504,0.885-1.017,1.766-1.547,2.64
		c-1.332-0.024-2.798,0.096-4.096,0.337c-0.154,0.029-0.108,0.255,0.035,0.263c1.22,0.06,2.563-0.011,3.802-0.183
		c-0.369,0.602-0.735,1.205-1.117,1.802c-1.146,0.021-2.293,0.041-3.438,0.053c-0.181,0.002-0.181,0.279,0,0.281
		c1.063,0.012,2.126,0.03,3.19,0.049c-0.323,0.5-0.638,1.002-0.97,1.498c-1.075,0.03-2.149,0.056-3.222,0.068
		c-0.208,0.002-0.208,0.317,0,0.323c0.965,0.028,1.937,0.053,2.911,0.075c-0.167,0.246-0.324,0.496-0.494,0.742
		c-0.754-0.255-1.609-0.144-2.401-0.188c-0.413-0.023-0.967-0.088-1.263-0.42c-0.252-0.283-0.342-0.981,0.138-1.105
		c0.343-0.089,0.356-0.474,0.155-0.671c3.847-7.887,7.918-15.726,11.548-23.712c0.419,0.645,0.826,1.299,1.26,1.932
		c0.051,0.074,0.12,0.122,0.194,0.157c-0.245-0.032-0.49-0.062-0.737-0.108c-0.282-0.052-0.405,0.377-0.12,0.434
		c1.197,0.24,2.422,0.366,3.642,0.304C50.245,27.465,50.046,27.949,49.837,28.424z M50.657,26.493
		c-0.902,0.019-1.791,0.005-2.682-0.092c0.21-0.03,0.398-0.165,0.411-0.378c0.836,0.273,1.76,0.226,2.534-0.152
		C50.835,26.08,50.743,26.284,50.657,26.493z M50.929,23.991c-0.508,0.967-1.746,1.343-2.714,0.876
		c-0.101-0.049-0.197-0.055-0.287-0.044c-0.169-0.405-0.364-0.804-0.545-1.207c1.237-0.03,2.517-0.038,3.739-0.207
		C51.086,23.61,51.025,23.807,50.929,23.991z M47.244,23.309c-2.924-6.391-7.283-12.415-11.443-17.951
		c1.203-0.885,1.584-2.756,0.838-4.062c1.463,0.839,2.7,1.957,3.8,3.221c-0.942-0.006-1.885,0.013-2.825,0.024
		c-0.223,0.003-0.224,0.344,0,0.347c1.048,0.012,2.101,0.036,3.151,0.019c0.51,0.614,0.995,1.255,1.456,1.916
		C40.7,6.702,39.14,6.796,37.615,6.812c-0.196,0.002-0.196,0.303,0,0.305c1.572,0.016,3.183,0.121,4.75-0.019
		c0.015-0.001,0.022-0.012,0.035-0.016c0.368,0.536,0.727,1.079,1.075,1.627c-1.377-0.336-2.779-0.3-4.16,0.07
		c-0.189,0.051-0.108,0.323,0.08,0.289c1.454-0.261,2.876-0.217,4.327,0.031c0.404,0.643,0.802,1.286,1.196,1.919
		c0.049,0.078,0.094,0.157,0.142,0.235c-1.058-0.112-2.143-0.12-3.195-0.183c-0.185-0.011-0.182,0.271,0,0.286
		c1.126,0.09,2.28,0.247,3.418,0.265c0.358,0.585,0.716,1.17,1.064,1.759c-0.662-0.056-1.346-0.054-1.978-0.098
		c-0.176-0.012-0.172,0.255,0,0.272c0.713,0.069,1.483,0.216,2.226,0.253c0.393,0.672,0.784,1.344,1.17,2.019
		c-0.882-0.02-1.769,0.013-2.65,0.032c-0.136,0.003-0.136,0.208,0,0.211c0.932,0.02,1.871,0.059,2.804,0.03
		c0.374,0.658,0.754,1.314,1.122,1.976c-0.975-0.024-1.952-0.014-2.927-0.011c-0.193,0.001-0.193,0.299,0,0.3
		c1.026,0.003,2.054,0.016,3.079-0.015c0.416,0.749,0.829,1.5,1.241,2.252c-1.123,0.14-2.174,0.246-3.318,0.196
		c-0.166-0.007-0.209,0.268-0.04,0.295c1.13,0.177,2.421,0.156,3.523-0.189c0.075,0.137,0.151,0.273,0.225,0.411
		c-0.083,0.527,0.179,0.796,0.288,1.288c0.032,0.143,0.042,0.287,0.043,0.432C49.866,23.01,48.53,23.181,47.244,23.309z"/>
</g>
<g>
</g>
<g>
</g>
<g>
</g>
<g>
</g>
<g>
</g>
<g>
</g>
<g>
</g>
<g>
</g>
<g>
</g>
<g>
</g>
<g>
</g>
<g>
</g>
<g>
</g>
<g>
</g>
<g>
</g>
</svg>
