<?xml version="1.0" encoding="iso-8859-1"?>
<!-- Generator: Adobe Illustrator 18.0.0, SVG Export Plug-In . SVG Version: 6.00 Build 0)  -->
<!DOCTYPE svg PUBLIC "-//W3C//DTD SVG 1.1//EN" "http://www.w3.org/Graphics/SVG/1.1/DTD/svg11.dtd">
<svg version="1.1" id="Capa_1" xmlns="http://www.w3.org/2000/svg" xmlns:xlink="http://www.w3.org/1999/xlink" x="0px" y="0px"
	 viewBox="0 0 63.073 63.073" style="enable-background:new 0 0 63.073 63.073;" xml:space="preserve">
<g>
	<path style="fill:#1D1D1B;" d="M62.753,32.894c-0.873-0.577-1.94-0.772-2.936-1.06c-1.084-0.313-2.17-0.616-3.258-0.915
		c-0.056-0.016-0.104-0.01-0.155-0.013c0.129-1.216,0.155-2.465,0.064-3.745c-0.053-0.741-0.15-1.463-0.28-2.17
		c1.062-0.051,2.124-0.107,3.186-0.166c1.046-0.058,2.143-0.006,3.145-0.329c0.469-0.151,0.584-0.99,0-1.071
		c-2.068-0.287-4.486,0.332-6.56,0.601c-0.395-1.654-0.972-3.217-1.739-4.652c0.994-0.344,1.996-0.661,3.02-0.908
		c1.144-0.276,2.384-0.351,3.443-0.879c0.446-0.222,0.355-0.996-0.143-1.092c-2.209-0.429-4.902,0.751-6.945,1.785
		c-0.846-1.359-1.84-2.604-2.972-3.704c2.089-1.095,4.339-2.742,5.26-4.726c0.231-0.498-0.291-1.246-0.847-0.847
		c-1.058,0.761-1.869,1.785-2.831,2.658c-0.815,0.74-1.697,1.38-2.606,1.989c-1.613-1.363-3.434-2.477-5.395-3.287
		c0.961-2.446,2.358-4.703,3.203-7.169c0.194-0.566-0.59-0.985-0.987-0.575c-1.805,1.867-2.742,4.756-3.314,7.336
		c-2.012-0.701-4.137-1.114-6.315-1.162c0.333-2.222,0.721-4.58,0.479-6.748c-0.075-0.672-1.063-0.922-1.257-0.17
		c-0.562,2.177-0.508,4.627-0.491,6.932c-1.349,0.054-2.709,0.236-4.063,0.568c-0.005-0.001-0.006-0.006-0.012-0.007
		c-0.46-0.079-0.918-0.126-1.376-0.16c-0.286-2.806-0.592-5.797-1.593-8.321c-0.288-0.725-1.381-0.665-1.409,0.191
		c-0.086,2.631,0.583,5.447,1.242,8.102c-2.854,0.135-5.62,1.097-8.136,2.616c-0.544-0.657-1.111-1.3-1.6-1.971
		c-0.956-1.312-1.851-2.67-2.723-4.04c-0.392-0.616-1.287-0.08-0.972,0.568c0.753,1.548,1.592,3.039,2.52,4.489
		c0.404,0.631,0.811,1.312,1.256,1.964c-2.026,1.465-3.852,3.285-5.375,5.316c-0.735-0.888-1.84-1.376-2.827-1.961
		c-1.239-0.734-2.478-1.468-3.717-2.202c-0.647-0.383-1.186,0.58-0.582,0.996c1.12,0.771,2.239,1.542,3.359,2.313
		c0.949,0.654,1.927,1.569,3.059,1.858c-0.94,1.383-1.748,2.841-2.383,4.337c-2.99-0.992-6.969-1.855-9.912-1.329
		c-0.431,0.077-0.311,0.628,0,0.759c1.601,0.673,3.482,0.817,5.183,1.191c1.377,0.303,2.727,0.714,4.093,1.057
		c-0.565,1.69-0.914,3.402-0.998,5.074c-0.051,1.029-0.031,2.038,0.054,3.025c-2.659,0.014-5.562,0.971-7.865,1.837
		c-0.615,0.231-0.378,1.195,0.277,1.003c1.714-0.501,3.448-0.874,5.225-1.067c0.853-0.093,1.715-0.097,2.571-0.143
		c0.37,2.267,1.085,4.398,2.095,6.341c-1.232,0.611-2.332,1.679-3.391,2.498c-1.317,1.02-2.624,2.054-3.935,3.081
		c-0.426,0.334,0.129,1.048,0.579,0.751c1.515-0.998,3.036-1.988,4.542-2.999c0.971-0.651,2.064-1.248,2.924-2.057
		c1.434,2.339,3.303,4.369,5.505,5.98c-1.168,2.054-2.257,4.16-3.369,6.242c-0.388,0.727,0.667,1.345,1.105,0.646
		c1.234-1.971,2.508-3.928,3.694-5.931c2.441,1.497,5.201,2.534,8.172,2.961c-1.121,3.071-1.94,6.905-0.956,9.848
		c0.19,0.568,1.082,0.648,1.234,0c0.378-1.61,0.194-3.309,0.32-4.956c0.121-1.587,0.353-3.175,0.616-4.751
		c1.249,0.109,2.528,0.12,3.83,0.013c0.974-0.08,1.946-0.215,2.911-0.399c0.673,2.458,1.444,5.066,2.719,7.19
		c0.315,0.525,1.031,0.158,0.938-0.396c-0.395-2.365-1.457-4.785-2.509-7.037c2.333-0.543,4.608-1.377,6.745-2.465
		c0.598,2.527,1.845,4.879,3.906,6.515c0.552,0.439,1.268-0.238,0.785-0.786c-1.661-1.887-2.999-3.89-3.699-6.273
		c1.772-0.99,3.446-2.141,4.951-3.469c2.077,2.202,4.382,4.207,7.111,5.545c0.668,0.328,1.195-0.575,0.582-0.996
		c-2.407-1.653-4.805-3.271-6.974-5.224c1.788-1.699,3.334-3.623,4.526-5.75c0.77,0.567,1.557,1.11,2.36,1.62
		c1.437,0.913,2.98,2.021,4.644,2.435c0.813,0.202,1.139-0.814,0.536-1.272c-1.318-1.002-3.008-1.589-4.46-2.396
		c-0.845-0.47-1.673-0.967-2.498-1.469c0.885-1.809,1.535-3.74,1.876-5.783c1.055,0.404,2.11,0.805,3.169,1.195
		c0.983,0.362,1.939,0.813,2.995,0.867C63.132,34.228,63.294,33.251,62.753,32.894z M54.069,31.757
		c-6.042-0.363-12.139-0.311-18.188-0.371c-0.176-0.002-0.174,0.264,0,0.272c6.012,0.258,12.067,0.629,18.089,0.59
		c-0.156,0.822-0.355,1.628-0.615,2.408c-9.477-0.984-19.215-0.942-28.726-0.868c-0.169,0.001-0.169,0.259,0,0.263
		c9.518,0.212,19.029,0.925,28.539,1.137c-0.2,0.544-0.418,1.079-0.665,1.6c-0.452-0.252-0.982,0.397-0.566,0.756
		c0.043,0.037,0.091,0.069,0.134,0.106c-0.127,0.238-0.268,0.467-0.405,0.699c-7.773-0.865-15.739-0.781-23.533-0.342
		c-0.177,0.01-0.179,0.282,0,0.276c7.809-0.237,15.512,0.121,23.299,0.468c-0.68,1.091-1.466,2.116-2.336,3.075
		c-8.726-1.286-17.671-1.449-26.466-1.125c-0.186,0.007-0.188,0.294,0,0.291c8.759-0.14,17.352,0.507,26.053,1.286
		c-0.82,0.858-1.709,1.658-2.654,2.396c-6.788-0.522-13.606-0.839-20.405-1.158c-0.176-0.008-0.172,0.258,0,0.272
		c6.577,0.523,13.172,1.046,19.762,1.385c-0.969,0.708-1.988,1.355-3.049,1.931c-7.116-0.957-14.275-1.45-21.458-1.344
		c-0.13,0.002-0.13,0.198,0,0.202c6.893,0.177,13.717,0.685,20.545,1.613c-1.097,0.543-2.23,1.016-3.386,1.41
		c-5.502-0.861-11.12-1.318-16.658-1.857c-0.225-0.022-0.216,0.318,0,0.347c5.131,0.684,10.312,1.446,15.48,1.882
		c-2.206,0.643-4.475,1.011-6.715,1.06c-9.803,0.213-17.756-6.802-19.202-16.064c0.116-0.239,0.09-0.546-0.08-0.749
		c-0.129-1.105-0.19-2.232-0.127-3.388c0.279-5.152,2.85-9.907,6.581-13.393c0.922-0.861,1.88-1.577,2.865-2.205
		c0.023,0.021,0.042,0.047,0.066,0.068c0.656,0.573,1.66-0.09,1.331-0.887c2.207-1.188,4.544-2.007,6.976-2.838
		c-0.081,0.704,0.446,1.465,1.312,1.175c5.417-1.817,10.982-1.161,15.432,1.319c-5.3-0.106-10.634,0.04-15.92,0.138
		c-0.283,0.005-0.284,0.435,0,0.441c5.664,0.105,11.382,0.266,17.055,0.11c1.205,0.793,2.316,1.722,3.294,2.787
		c-7.198-0.208-14.403-0.232-21.603-0.445c-0.248-0.007-0.247,0.374,0,0.384c7.364,0.303,14.751,0.648,22.123,0.634
		c0.689,0.823,1.307,1.713,1.837,2.669c-9.645-0.211-19.424,0.47-28.997-0.816c-0.145-0.02-0.181,0.235-0.035,0.258
		c9.586,1.498,19.668,1.26,29.378,1.177c0.548,1.094,0.989,2.264,1.302,3.507c-8.393-0.06-16.721,0.038-25.117-0.481
		c-0.194-0.012-0.19,0.283,0,0.3c8.326,0.742,16.874,1.213,25.236,0.65c0.239,1.076,0.386,2.201,0.428,3.373
		c-9.71-0.803-19.676-0.542-29.403-0.298c-0.102,0.003-0.103,0.158,0,0.159c9.781,0.178,19.64,0.744,29.42,0.592
		c0,0.039,0.004,0.076,0.004,0.115C54.31,29.751,54.229,30.768,54.069,31.757z"/>
</g>
<g>
</g>
<g>
</g>
<g>
</g>
<g>
</g>
<g>
</g>
<g>
</g>
<g>
</g>
<g>
</g>
<g>
</g>
<g>
</g>
<g>
</g>
<g>
</g>
<g>
</g>
<g>
</g>
<g>
</g>
</svg>
